

#include "funciones.h"
#include "midis.h"

//MIDI DATA

byte menu_scroll[55] =
{
	0x4D, 0x54, 0x68, 0x64, 0x00, 0x00, 0x00, 0x06, 0x00, 0x00, 0x00, 0x01,
	0x03, 0xC0, 0x4D, 0x54, 0x72, 0x6B, 0x00, 0x00, 0x00, 0x21, 0x00, 0xC9,
	0x00, 0x00, 0xFF, 0x59, 0x02, 0x00, 0x00, 0x00, 0xFF, 0x51, 0x03, 0x0B,
	0x71, 0xB0, 0x00, 0xB9, 0x07, 0x7F, 0x00, 0x99, 0x46, 0x7F, 0x81, 0x70,
	0x89, 0x46, 0x00, 0x00, 0xFF, 0x2F, 0x00
};

byte Music_Boss[4529] = {
	0x4D, 0x54, 0x68, 0x64, 0x00, 0x00, 0x00, 0x06, 0x00, 0x00, 0x00, 0x01,
	0x00, 0x46, 0x4D, 0x54, 0x72, 0x6B, 0x00, 0x00, 0x11, 0x9B, 0x00, 0xC0,
	0x33, 0x00, 0xB0, 0x07, 0x7F, 0x00, 0xB0, 0x0A, 0x1D, 0x00, 0x90, 0x5B,
	0x7F, 0x00, 0xB0, 0x07, 0x3B, 0x00, 0xC1, 0x33, 0x00, 0xB1, 0x07, 0x7F,
	0x00, 0xB1, 0x0A, 0x61, 0x00, 0x91, 0x5B, 0x7F, 0x00, 0xB1, 0x07, 0x3B,
	0x00, 0xC2, 0x2F, 0x00, 0xB2, 0x0A, 0x40, 0x00, 0x92, 0x25, 0x7F, 0x00,
	0xB2, 0x07, 0x3B, 0x00, 0xC3, 0x0D, 0x00, 0xB3, 0x0A, 0x57, 0x00, 0x93,
	0x28, 0x7F, 0x00, 0xB3, 0x07, 0x3B, 0x00, 0xC4, 0x0D, 0x00, 0xB4, 0x0A,
	0x32, 0x00, 0x94, 0x26, 0x7F, 0x00, 0xB4, 0x07, 0x3B, 0x00, 0xC5, 0x76,
	0x00, 0xB5, 0x0A, 0x7F, 0x00, 0x95, 0x3E, 0x7F, 0x00, 0xB5, 0x07, 0x27,
	0x00, 0xC9, 0x00, 0x00, 0x99, 0x32, 0x78, 0x00, 0xB9, 0x07, 0x27, 0x00,
	0x99, 0x23, 0x7F, 0x00, 0x99, 0x23, 0x7F, 0x00, 0x99, 0x39, 0x6B, 0x00,
	0x99, 0x34, 0x7F, 0x00, 0xC6, 0x33, 0x00, 0xB6, 0x07, 0x7F, 0x00, 0xB6,
	0x0A, 0x40, 0x00, 0xC7, 0x33, 0x00, 0xB7, 0x07, 0x7F, 0x00, 0xB7, 0x0A,
	0x40, 0x03, 0x85, 0x3E, 0x00, 0x00, 0x89, 0x32, 0x00, 0x08, 0x89, 0x23,
	0x00, 0x00, 0x89, 0x23, 0x00, 0x00, 0x82, 0x25, 0x00, 0x00, 0x83, 0x28,
	0x00, 0x01, 0xB5, 0x07, 0x28, 0x00, 0xB9, 0x07, 0x28, 0x00, 0x84, 0x26,
	0x00, 0x03, 0x89, 0x39, 0x00, 0x00, 0x89, 0x34, 0x00, 0x01, 0xB0, 0x07,
	0x3C, 0x00, 0xB1, 0x07, 0x3C, 0x00, 0xB2, 0x07, 0x3C, 0x00, 0xB3, 0x07,
	0x3C, 0x00, 0xB4, 0x07, 0x3C, 0x00, 0xB5, 0x0A, 0x00, 0x01, 0x95, 0x35,
	0x7F, 0x00, 0x99, 0x2F, 0x7F, 0x04, 0x85, 0x35, 0x00, 0x00, 0x89, 0x2F,
	0x00, 0x04, 0xB5, 0x07, 0x29, 0x00, 0xB9, 0x07, 0x29, 0x05, 0x80, 0x5B,
	0x00, 0x00, 0x81, 0x5B, 0x00, 0x02, 0xB0, 0x07, 0x3D, 0x00, 0xB1, 0x07,
	0x3D, 0x00, 0xB2, 0x07, 0x3D, 0x00, 0xB3, 0x07, 0x3D, 0x00, 0xB4, 0x07,
	0x3D, 0x02, 0xB5, 0x0A, 0x7F, 0x01, 0x93, 0x28, 0x7F, 0x00, 0x94, 0x26,
	0x7F, 0x00, 0x95, 0x37, 0x7C, 0x00, 0x99, 0x30, 0x7C, 0x00, 0x99, 0x23,
	0x7F, 0x00, 0x99, 0x23, 0x7F, 0x02, 0x85, 0x37, 0x00, 0x00, 0xB5, 0x07,
	0x2A, 0x00, 0x89, 0x30, 0x00, 0x00, 0xB9, 0x07, 0x2A, 0x0A, 0x89, 0x23,
	0x00, 0x00, 0x89, 0x23, 0x00, 0x02, 0xB0, 0x07, 0x3E, 0x00, 0xB1, 0x07,
	0x3E, 0x00, 0xB2, 0x07, 0x3E, 0x00, 0xB3, 0x07, 0x3E, 0x00, 0xB4, 0x07,
	0x3E, 0x01, 0xB5, 0x07, 0x2B, 0x00, 0xB9, 0x07, 0x2B, 0x01, 0x83, 0x28,
	0x00, 0x00, 0xB5, 0x0A, 0x00, 0x01, 0x84, 0x26, 0x00, 0x00, 0x95, 0x33,
	0x7F, 0x00, 0x99, 0x2D, 0x7F, 0x04, 0x85, 0x33, 0x00, 0x00, 0x89, 0x2D,
	0x00, 0x07, 0xB5, 0x07, 0x2C, 0x00, 0xB9, 0x07, 0x2C, 0x02, 0xB0, 0x07,
	0x3F, 0x00, 0xB1, 0x07, 0x3F, 0x00, 0xB2, 0x07, 0x3F, 0x00, 0xB3, 0x07,
	0x3F, 0x00, 0xB4, 0x07, 0x3F, 0x04, 0xB5, 0x0A, 0x7F, 0x01, 0x90, 0x5B,
	0x7F, 0x00, 0x91, 0x5B, 0x7F, 0x00, 0x95, 0x32, 0x7D, 0x00, 0x99, 0x2F,
	0x7D, 0x03, 0x85, 0x32, 0x00, 0x00, 0x89, 0x2F, 0x00, 0x02, 0xB5, 0x07,
	0x2D, 0x00, 0xB9, 0x07, 0x2D, 0x07, 0xB0, 0x07, 0x40, 0x00, 0xB1, 0x07,
	0x40, 0x00, 0xB2, 0x07, 0x40, 0x00, 0xB3, 0x07, 0x40, 0x00, 0xB4, 0x07,
	0x40, 0x06, 0xB5, 0x07, 0x2E, 0x00, 0xB9, 0x07, 0x2E, 0x0A, 0xB0, 0x07,
	0x41, 0x00, 0xB1, 0x07, 0x41, 0x00, 0xB2, 0x07, 0x41, 0x00, 0xB3, 0x07,
	0x41, 0x00, 0xB4, 0x07, 0x41, 0x03, 0xB5, 0x07, 0x2F, 0x00, 0xB9, 0x07,
	0x2F, 0x01, 0x80, 0x5B, 0x00, 0x00, 0x81, 0x5B, 0x00, 0x02, 0xB5, 0x0A,
	0x40, 0x01, 0x95, 0x29, 0x7F, 0x00, 0x99, 0x2B, 0x7F, 0x00, 0x99, 0x29,
	0x7F, 0x04, 0x89, 0x2B, 0x00, 0x00, 0x85, 0x29, 0x00, 0x00, 0x89, 0x29,
	0x00, 0x05, 0xB5, 0x07, 0x30, 0x00, 0xB9, 0x07, 0x30, 0x00, 0xB0, 0x07,
	0x42, 0x00, 0xB1, 0x07, 0x42, 0x00, 0xB2, 0x07, 0x42, 0x00, 0xB3, 0x07,
	0x42, 0x00, 0xB4, 0x07, 0x42, 0x0D, 0xB5, 0x07, 0x31, 0x00, 0xB9, 0x07,
	0x31, 0x04, 0xB0, 0x07, 0x43, 0x00, 0xB1, 0x07, 0x43, 0x00, 0xB2, 0x07,
	0x43, 0x00, 0xB3, 0x07, 0x43, 0x00, 0xB4, 0x07, 0x43, 0x08, 0xB5, 0x07,
	0x32, 0x00, 0xB9, 0x07, 0x32, 0x01, 0x90, 0x5B, 0x7F, 0x00, 0x91, 0x5B,
	0x7F, 0x00, 0x92, 0x25, 0x7F, 0x00, 0x99, 0x23, 0x7F, 0x00, 0x99, 0x23,
	0x7F, 0x00, 0x99, 0x31, 0x6B, 0x00, 0x99, 0x34, 0x7F, 0x07, 0xB0, 0x07,
	0x44, 0x00, 0xB1, 0x07, 0x44, 0x00, 0xB2, 0x07, 0x44, 0x00, 0xB3, 0x07,
	0x44, 0x00, 0xB4, 0x07, 0x44, 0x01, 0x89, 0x34, 0x00, 0x03, 0x89, 0x23,
	0x00, 0x00, 0x89, 0x23, 0x00, 0x01, 0xB5, 0x07, 0x33, 0x00, 0xB9, 0x07,
	0x33, 0x00, 0x89, 0x31, 0x00, 0x01, 0x82, 0x25, 0x00, 0x0B, 0xB0, 0x07,
	0x45, 0x00, 0xB1, 0x07, 0x45, 0x00, 0xB2, 0x07, 0x45, 0x00, 0xB3, 0x07,
	0x45, 0x00, 0xB4, 0x07, 0x45, 0x01, 0xB5, 0x07, 0x34, 0x00, 0xB9, 0x07,
	0x34, 0x08, 0x80, 0x5B, 0x00, 0x00, 0x81, 0x5B, 0x00, 0x02, 0x99, 0x23,
	0x7F, 0x00, 0x99, 0x23, 0x7F, 0x02, 0xB5, 0x07, 0x35, 0x00, 0xB9, 0x07,
	0x35, 0x03, 0xB0, 0x07, 0x46, 0x00, 0xB1, 0x07, 0x46, 0x00, 0xB2, 0x07,
	0x46, 0x00, 0xB3, 0x07, 0x46, 0x00, 0xB4, 0x07, 0x46, 0x06, 0x89, 0x23,
	0x00, 0x00, 0x89, 0x23, 0x00, 0x04, 0xB5, 0x07, 0x36, 0x00, 0xB9, 0x07,
	0x36, 0x07, 0xB0, 0x07, 0x47, 0x00, 0xB1, 0x07, 0x47, 0x00, 0xB2, 0x07,
	0x47, 0x00, 0xB3, 0x07, 0x47, 0x00, 0xB4, 0x07, 0x47, 0x06, 0xB5, 0x07,
	0x37, 0x00, 0xB9, 0x07, 0x37, 0x07, 0x90, 0x5B, 0x7F, 0x00, 0x91, 0x5B,
	0x7F, 0x00, 0x92, 0x25, 0x7F, 0x03, 0xB0, 0x07, 0x48, 0x00, 0xB1, 0x07,
	0x48, 0x00, 0xB2, 0x07, 0x48, 0x00, 0xB3, 0x07, 0x48, 0x00, 0xB4, 0x07,
	0x48, 0x02, 0xB5, 0x07, 0x38, 0x00, 0xB9, 0x07, 0x38, 0x08, 0x82, 0x25,
	0x00, 0x05, 0xB5, 0x07, 0x39, 0x00, 0xB9, 0x07, 0x39, 0x02, 0xB0, 0x07,
	0x49, 0x00, 0xB1, 0x07, 0x49, 0x00, 0xB2, 0x07, 0x49, 0x00, 0xB3, 0x07,
	0x49, 0x00, 0xB4, 0x07, 0x49, 0x0B, 0xB5, 0x07, 0x3A, 0x00, 0xB9, 0x07,
	0x3A, 0x05, 0x80, 0x5B, 0x00, 0x00, 0xB0, 0x07, 0x4A, 0x00, 0x81, 0x5B,
	0x00, 0x00, 0xB1, 0x07, 0x4A, 0x00, 0xB2, 0x07, 0x4A, 0x00, 0xB3, 0x07,
	0x4A, 0x00, 0xB4, 0x07, 0x4A, 0x08, 0xB5, 0x07, 0x3B, 0x00, 0xB9, 0x07,
	0x3B, 0x09, 0xB0, 0x07, 0x4B, 0x00, 0xB1, 0x07, 0x4B, 0x00, 0xB2, 0x07,
	0x4B, 0x00, 0xB3, 0x07, 0x4B, 0x00, 0xB4, 0x07, 0x4B, 0x03, 0xB5, 0x07,
	0x3C, 0x00, 0xB9, 0x07, 0x3C, 0x0D, 0xB0, 0x07, 0x4C, 0x00, 0xB1, 0x07,
	0x4C, 0x00, 0xB2, 0x07, 0x4C, 0x00, 0xB3, 0x07, 0x4C, 0x00, 0xB4, 0x07,
	0x4C, 0x00, 0xB5, 0x0A, 0x7F, 0x00, 0xB5, 0x07, 0x3D, 0x00, 0xB9, 0x07,
	0x3D, 0x01, 0x90, 0x5B, 0x7F, 0x00, 0x91, 0x5B, 0x7F, 0x00, 0x92, 0x25,
	0x7F, 0x00, 0x93, 0x28, 0x7F, 0x00, 0x94, 0x26, 0x7F, 0x00, 0x95, 0x32,
	0x7F, 0x00, 0x99, 0x32, 0x78, 0x00, 0x99, 0x23, 0x7F, 0x00, 0x99, 0x23,
	0x7F, 0x00, 0x99, 0x39, 0x6B, 0x00, 0x99, 0x34, 0x7F, 0x03, 0x85, 0x32,
	0x00, 0x00, 0x89, 0x32, 0x00, 0x04, 0x89, 0x34, 0x00, 0x04, 0x82, 0x25,
	0x00, 0x00, 0x89, 0x23, 0x00, 0x00, 0x89, 0x23, 0x00, 0x01, 0x83, 0x28,
	0x00, 0x00, 0xB5, 0x07, 0x3E, 0x00, 0xB9, 0x07, 0x3E, 0x00, 0x84, 0x26,
	0x00, 0x00, 0x89, 0x39, 0x00, 0x03, 0xB0, 0x07, 0x4D, 0x00, 0xB1, 0x07,
	0x4D, 0x00, 0xB2, 0x07, 0x4D, 0x00, 0xB3, 0x07, 0x4D, 0x00, 0xB4, 0x07,
	0x4D, 0x01, 0xB5, 0x0A, 0x00, 0x01, 0x95, 0x2F, 0x7F, 0x00, 0x99, 0x2F,
	0x7F, 0x04, 0x85, 0x2F, 0x00, 0x00, 0x89, 0x2F, 0x00, 0x04, 0xB5, 0x07,
	0x3F, 0x00, 0xB9, 0x07, 0x3F, 0x07, 0xB0, 0x07, 0x4E, 0x00, 0xB1, 0x07,
	0x4E, 0x00, 0xB2, 0x07, 0x4E, 0x00, 0xB3, 0x07, 0x4E, 0x00, 0xB4, 0x07,
	0x4E, 0x02, 0xB5, 0x0A, 0x7F, 0x01, 0x80, 0x5B, 0x00, 0x00, 0x81, 0x5B,
	0x00, 0x00, 0x93, 0x28, 0x7F, 0x00, 0x94, 0x26, 0x7F, 0x00, 0x95, 0x30,
	0x7F, 0x00, 0x99, 0x30, 0x7C, 0x00, 0x99, 0x23, 0x7F, 0x00, 0x99, 0x23,
	0x7F, 0x02, 0x85, 0x30, 0x00, 0x00, 0xB5, 0x07, 0x40, 0x00, 0x89, 0x30,
	0x00, 0x00, 0xB9, 0x07, 0x40, 0x0A, 0x89, 0x23, 0x00, 0x00, 0x89, 0x23,
	0x00, 0x00, 0x84, 0x26, 0x00, 0x02, 0xB0, 0x07, 0x4F, 0x00, 0xB1, 0x07,
	0x4F, 0x00, 0xB2, 0x07, 0x4F, 0x00, 0x83, 0x28, 0x00, 0x00, 0xB3, 0x07,
	0x4F, 0x00, 0xB4, 0x07, 0x4F, 0x01, 0xB5, 0x07, 0x41, 0x00, 0xB9, 0x07,
	0x41, 0x01, 0xB5, 0x0A, 0x00, 0x01, 0x95, 0x2D, 0x7F, 0x00, 0x99, 0x2D,
	0x7F, 0x04, 0x85, 0x2D, 0x00, 0x00, 0x89, 0x2D, 0x00, 0x07, 0xB5, 0x07,
	0x42, 0x00, 0xB9, 0x07, 0x42, 0x02, 0xB0, 0x07, 0x50, 0x00, 0xB1, 0x07,
	0x50, 0x00, 0xB2, 0x07, 0x50, 0x00, 0xB3, 0x07, 0x50, 0x00, 0xB4, 0x07,
	0x50, 0x04, 0xB5, 0x0A, 0x7F, 0x01, 0x90, 0x5B, 0x7F, 0x00, 0x91, 0x5B,
	0x7F, 0x00, 0x95, 0x2F, 0x7D, 0x00, 0x99, 0x2F, 0x7D, 0x03, 0x85, 0x2F,
	0x00, 0x00, 0x89, 0x2F, 0x00, 0x02, 0xB5, 0x07, 0x43, 0x00, 0xB9, 0x07,
	0x43, 0x06, 0xB0, 0x07, 0x51, 0x00, 0xB1, 0x07, 0x51, 0x00, 0xB2, 0x07,
	0x51, 0x00, 0xB3, 0x07, 0x51, 0x00, 0xB4, 0x07, 0x51, 0x07, 0xB5, 0x07,
	0x44, 0x00, 0xB9, 0x07, 0x44, 0x0A, 0xB0, 0x07, 0x52, 0x00, 0xB1, 0x07,
	0x52, 0x00, 0xB2, 0x07, 0x52, 0x00, 0xB3, 0x07, 0x52, 0x00, 0xB4, 0x07,
	0x52, 0x03, 0xB5, 0x07, 0x45, 0x00, 0xB9, 0x07, 0x45, 0x03, 0xB5, 0x0A,
	0x00, 0x01, 0x95, 0x29, 0x7F, 0x00, 0x99, 0x2B, 0x7F, 0x00, 0x99, 0x29,
	0x7F, 0x04, 0x89, 0x2B, 0x00, 0x00, 0x85, 0x29, 0x00, 0x00, 0x89, 0x29,
	0x00, 0x01, 0x80, 0x5B, 0x00, 0x00, 0x81, 0x5B, 0x00, 0x04, 0xB5, 0x07,
	0x46, 0x00, 0xB9, 0x07, 0x46, 0x00, 0xB0, 0x07, 0x53, 0x00, 0xB1, 0x07,
	0x53, 0x00, 0xB2, 0x07, 0x53, 0x00, 0xB3, 0x07, 0x53, 0x00, 0xB4, 0x07,
	0x53, 0x0C, 0xB5, 0x07, 0x47, 0x00, 0xB9, 0x07, 0x47, 0x05, 0xB0, 0x07,
	0x54, 0x00, 0xB1, 0x07, 0x54, 0x00, 0xB2, 0x07, 0x54, 0x00, 0xB3, 0x07,
	0x54, 0x00, 0xB4, 0x07, 0x54, 0x08, 0xB5, 0x0A, 0x40, 0x00, 0xB5, 0x07,
	0x48, 0x00, 0xB9, 0x07, 0x48, 0x01, 0x90, 0x5B, 0x7F, 0x00, 0x91, 0x5B,
	0x7F, 0x00, 0x92, 0x25, 0x7F, 0x00, 0x95, 0x29, 0x7F, 0x00, 0x99, 0x2B,
	0x7C, 0x00, 0x99, 0x29, 0x76, 0x00, 0x99, 0x23, 0x7F, 0x00, 0x99, 0x23,
	0x7F, 0x00, 0x99, 0x31, 0x6B, 0x00, 0x99, 0x34, 0x7F, 0x04, 0x85, 0x29,
	0x00, 0x00, 0x89, 0x29, 0x00, 0x00, 0x89, 0x2B, 0x00, 0x03, 0xB0, 0x07,
	0x55, 0x00, 0xB1, 0x07, 0x55, 0x00, 0xB2, 0x07, 0x55, 0x00, 0xB3, 0x07,
	0x55, 0x00, 0xB4, 0x07, 0x55, 0x02, 0x89, 0x34, 0x00, 0x02, 0x89, 0x23,
	0x00, 0x00, 0x89, 0x23, 0x00, 0x00, 0x89, 0x31, 0x00, 0x01, 0x82, 0x25,
	0x00, 0x00, 0xB5, 0x07, 0x49, 0x00, 0xB9, 0x07, 0x49, 0x0B, 0xB0, 0x07,
	0x56, 0x00, 0xB1, 0x07, 0x56, 0x00, 0xB2, 0x07, 0x56, 0x00, 0xB3, 0x07,
	0x56, 0x00, 0xB4, 0x07, 0x56, 0x02, 0xB5, 0x07, 0x4A, 0x00, 0xB9, 0x07,
	0x4A, 0x0A, 0x99, 0x23, 0x7F, 0x00, 0x99, 0x23, 0x7F, 0x02, 0xB5, 0x07,
	0x4B, 0x00, 0xB9, 0x07, 0x4B, 0x01, 0x80, 0x5B, 0x00, 0x00, 0x81, 0x5B,
	0x00, 0x02, 0xB0, 0x07, 0x57, 0x00, 0xB1, 0x07, 0x57, 0x00, 0xB2, 0x07,
	0x57, 0x00, 0xB3, 0x07, 0x57, 0x00, 0xB4, 0x07, 0x57, 0x07, 0x89, 0x23,
	0x00, 0x00, 0x89, 0x23, 0x00, 0x03, 0xB5, 0x07, 0x4C, 0x00, 0xB9, 0x07,
	0x4C, 0x07, 0xB0, 0x07, 0x58, 0x00, 0xB1, 0x07, 0x58, 0x00, 0xB2, 0x07,
	0x58, 0x00, 0xB3, 0x07, 0x58, 0x00, 0xB4, 0x07, 0x58, 0x06, 0xB5, 0x07,
	0x4D, 0x00, 0xB9, 0x07, 0x4D, 0x07, 0x90, 0x5B, 0x7F, 0x00, 0x91, 0x5B,
	0x7F, 0x00, 0x92, 0x25, 0x7F, 0x03, 0xB0, 0x07, 0x59, 0x00, 0xB1, 0x07,
	0x59, 0x00, 0xB2, 0x07, 0x59, 0x00, 0xB3, 0x07, 0x59, 0x00, 0xB4, 0x07,
	0x59, 0x02, 0xB5, 0x07, 0x4E, 0x00, 0xB9, 0x07, 0x4E, 0x06, 0x82, 0x25,
	0x00, 0x07, 0xB5, 0x07, 0x4F, 0x00, 0xB9, 0x07, 0x4F, 0x01, 0xB0, 0x07,
	0x5A, 0x00, 0xB1, 0x07, 0x5A, 0x00, 0xB2, 0x07, 0x5A, 0x00, 0xB3, 0x07,
	0x5A, 0x00, 0xB4, 0x07, 0x5A, 0x0C, 0xB5, 0x07, 0x50, 0x00, 0xB9, 0x07,
	0x50, 0x05, 0xB0, 0x07, 0x5B, 0x00, 0xB1, 0x07, 0x5B, 0x00, 0xB2, 0x07,
	0x5B, 0x00, 0xB3, 0x07, 0x5B, 0x00, 0xB4, 0x07, 0x5B, 0x07, 0x80, 0x5B,
	0x00, 0x00, 0x81, 0x5B, 0x00, 0x00, 0xB5, 0x07, 0x51, 0x00, 0xB9, 0x07,
	0x51, 0x0A, 0xB0, 0x07, 0x5C, 0x00, 0xB1, 0x07, 0x5C, 0x00, 0xB2, 0x07,
	0x5C, 0x00, 0xB3, 0x07, 0x5C, 0x00, 0xB4, 0x07, 0x5C, 0x03, 0xB5, 0x07,
	0x52, 0x00, 0xB9, 0x07, 0x52, 0x0D, 0xB0, 0x07, 0x5D, 0x00, 0xB1, 0x07,
	0x5D, 0x00, 0xB2, 0x07, 0x5D, 0x00, 0xB3, 0x07, 0x5D, 0x00, 0xB4, 0x07,
	0x5D, 0x00, 0xB5, 0x07, 0x53, 0x00, 0xB9, 0x07, 0x53, 0x01, 0x90, 0x5B,
	0x7F, 0x00, 0x91, 0x55, 0x7F, 0x00, 0x92, 0x25, 0x7F, 0x00, 0x93, 0x28,
	0x7F, 0x00, 0x94, 0x26, 0x7F, 0x00, 0x95, 0x32, 0x7F, 0x00, 0x99, 0x32,
	0x78, 0x00, 0x99, 0x23, 0x7F, 0x00, 0x99, 0x23, 0x7F, 0x00, 0x99, 0x39,
	0x6B, 0x00, 0x99, 0x34, 0x7F, 0x03, 0x85, 0x32, 0x00, 0x00, 0x89, 0x32,
	0x00, 0x07, 0x89, 0x34, 0x00, 0x01, 0x89, 0x23, 0x00, 0x00, 0x89, 0x23,
	0x00, 0x01, 0xB5, 0x07, 0x54, 0x00, 0xB9, 0x07, 0x54, 0x00, 0x82, 0x25,
	0x00, 0x00, 0x83, 0x28, 0x00, 0x01, 0x84, 0x26, 0x00, 0x01, 0x89, 0x39,
	0x00, 0x01, 0xB0, 0x07, 0x5E, 0x00, 0xB1, 0x07, 0x5E, 0x00, 0xB2, 0x07,
	0x5E, 0x00, 0xB3, 0x07, 0x5E, 0x00, 0xB4, 0x07, 0x5E, 0x01, 0xB5, 0x0A,
	0x00, 0x01, 0x95, 0x2F, 0x7F, 0x00, 0x99, 0x2F, 0x7F, 0x04, 0x85, 0x2F,
	0x00, 0x00, 0x89, 0x2F, 0x00, 0x04, 0xB5, 0x07, 0x55, 0x00, 0xB9, 0x07,
	0x55, 0x07, 0xB0, 0x07, 0x5F, 0x00, 0xB1, 0x07, 0x5F, 0x00, 0xB2, 0x07,
	0x5F, 0x00, 0xB3, 0x07, 0x5F, 0x00, 0xB4, 0x07, 0x5F, 0x02, 0xB5, 0x0A,
	0x7F, 0x01, 0x93, 0x28, 0x7F, 0x00, 0x94, 0x26, 0x7F, 0x00, 0x95, 0x30,
	0x7C, 0x00, 0x99, 0x30, 0x7C, 0x00, 0x99, 0x23, 0x7F, 0x00, 0x99, 0x23,
	0x7F, 0x02, 0xB5, 0x07, 0x56, 0x00, 0xB9, 0x07, 0x56, 0x00, 0x85, 0x30,
	0x00, 0x00, 0x89, 0x30, 0x00, 0x01, 0x81, 0x55, 0x00, 0x01, 0x80, 0x5B,
	0x00, 0x07, 0x89, 0x23, 0x00, 0x00, 0x89, 0x23, 0x00, 0x03, 0xB0, 0x07,
	0x60, 0x00, 0xB1, 0x07, 0x60, 0x00, 0xB2, 0x07, 0x60, 0x00, 0xB3, 0x07,
	0x60, 0x00, 0xB4, 0x07, 0x60, 0x00, 0x84, 0x26, 0x00, 0x01, 0x83, 0x28,
	0x00, 0x00, 0xB5, 0x07, 0x57, 0x00, 0xB9, 0x07, 0x57, 0x01, 0xB5, 0x0A,
	0x00, 0x01, 0x95, 0x2D, 0x7F, 0x00, 0x99, 0x2D, 0x7F, 0x04, 0x85, 0x2D,
	0x00, 0x00, 0x89, 0x2D, 0x00, 0x07, 0xB5, 0x07, 0x58, 0x00, 0xB9, 0x07,
	0x58, 0x02, 0xB0, 0x07, 0x61, 0x00, 0xB1, 0x07, 0x61, 0x00, 0xB2, 0x07,
	0x61, 0x00, 0xB3, 0x07, 0x61, 0x00, 0xB4, 0x07, 0x61, 0x04, 0xB5, 0x0A,
	0x7F, 0x01, 0x90, 0x5B, 0x7F, 0x00, 0x91, 0x55, 0x7F, 0x00, 0x95, 0x2F,
	0x7F, 0x00, 0x99, 0x2F, 0x7D, 0x03, 0x85, 0x2F, 0x00, 0x00, 0x89, 0x2F,
	0x00, 0x02, 0xB5, 0x07, 0x59, 0x00, 0xB9, 0x07, 0x59, 0x06, 0xB0, 0x07,
	0x62, 0x00, 0xB1, 0x07, 0x62, 0x00, 0xB2, 0x07, 0x62, 0x00, 0xB3, 0x07,
	0x62, 0x00, 0xB4, 0x07, 0x62, 0x07, 0xB5, 0x07, 0x5A, 0x00, 0xB9, 0x07,
	0x5A, 0x0A, 0xB0, 0x07, 0x63, 0x00, 0xB1, 0x07, 0x63, 0x00, 0xB2, 0x07,
	0x63, 0x00, 0xB3, 0x07, 0x63, 0x00, 0xB4, 0x07, 0x63, 0x02, 0xB5, 0x07,
	0x5B, 0x00, 0xB9, 0x07, 0x5B, 0x04, 0xB5, 0x0A, 0x40, 0x01, 0x95, 0x29,
	0x7F, 0x00, 0x99, 0x2B, 0x7F, 0x00, 0x99, 0x29, 0x7F, 0x04, 0x81, 0x55,
	0x00, 0x00, 0x89, 0x2B, 0x00, 0x00, 0x85, 0x29, 0x00, 0x00, 0x89, 0x29,
	0x00, 0x01, 0x80, 0x5B, 0x00, 0x03, 0xB5, 0x07, 0x5C, 0x00, 0xB9, 0x07,
	0x5C, 0x01, 0xB0, 0x07, 0x64, 0x00, 0xB1, 0x07, 0x64, 0x00, 0xB2, 0x07,
	0x64, 0x00, 0xB3, 0x07, 0x64, 0x00, 0xB4, 0x07, 0x64, 0x0C, 0xB5, 0x07,
	0x5D, 0x00, 0xB9, 0x07, 0x5D, 0x05, 0xB0, 0x07, 0x65, 0x00, 0xB1, 0x07,
	0x65, 0x00, 0xB2, 0x07, 0x65, 0x00, 0xB3, 0x07, 0x65, 0x00, 0xB4, 0x07,
	0x65, 0x08, 0xB5, 0x07, 0x5E, 0x00, 0xB9, 0x07, 0x5E, 0x01, 0x90, 0x5B,
	0x7F, 0x00, 0x91, 0x55, 0x7F, 0x00, 0x92, 0x25, 0x7F, 0x00, 0x99, 0x23,
	0x7F, 0x00, 0x99, 0x23, 0x7F, 0x00, 0x99, 0x31, 0x6B, 0x00, 0x99, 0x34,
	0x7F, 0x07, 0xB0, 0x07, 0x66, 0x00, 0xB1, 0x07, 0x66, 0x00, 0xB2, 0x07,
	0x66, 0x00, 0xB3, 0x07, 0x66, 0x00, 0xB4, 0x07, 0x66, 0x04, 0x89, 0x23,
	0x00, 0x00, 0x89, 0x23, 0x00, 0x00, 0x89, 0x31, 0x00, 0x01, 0x82, 0x25,
	0x00, 0x00, 0xB5, 0x07, 0x5F, 0x00, 0xB9, 0x07, 0x5F, 0x02, 0x89, 0x34,
	0x00, 0x09, 0xB0, 0x07, 0x67, 0x00, 0xB1, 0x07, 0x67, 0x00, 0xB2, 0x07,
	0x67, 0x00, 0xB3, 0x07, 0x67, 0x00, 0xB4, 0x07, 0x67, 0x01, 0xB5, 0x07,
	0x60, 0x00, 0xB9, 0x07, 0x60, 0x0B, 0x99, 0x23, 0x7F, 0x00, 0x99, 0x23,
	0x7F, 0x02, 0xB5, 0x07, 0x61, 0x00, 0xB9, 0x07, 0x61, 0x00, 0x81, 0x55,
	0x00, 0x01, 0x80, 0x5B, 0x00, 0x02, 0xB0, 0x07, 0x68, 0x00, 0xB1, 0x07,
	0x68, 0x00, 0xB2, 0x07, 0x68, 0x00, 0xB3, 0x07, 0x68, 0x00, 0xB4, 0x07,
	0x68, 0x07, 0x89, 0x23, 0x00, 0x00, 0x89, 0x23, 0x00, 0x03, 0xB5, 0x07,
	0x62, 0x00, 0xB9, 0x07, 0x62, 0x07, 0xB0, 0x07, 0x69, 0x00, 0xB1, 0x07,
	0x69, 0x00, 0xB2, 0x07, 0x69, 0x00, 0xB3, 0x07, 0x69, 0x00, 0xB4, 0x07,
	0x69, 0x06, 0xB5, 0x07, 0x63, 0x00, 0xB9, 0x07, 0x63, 0x07, 0x90, 0x5B,
	0x7F, 0x00, 0x91, 0x55, 0x7F, 0x00, 0x92, 0x25, 0x7F, 0x03, 0xB0, 0x07,
	0x6A, 0x00, 0xB1, 0x07, 0x6A, 0x00, 0xB2, 0x07, 0x6A, 0x00, 0xB3, 0x07,
	0x6A, 0x00, 0xB4, 0x07, 0x6A, 0x02, 0xB5, 0x07, 0x64, 0x00, 0xB9, 0x07,
	0x64, 0x06, 0x82, 0x25, 0x00, 0x07, 0xB5, 0x07, 0x65, 0x00, 0xB9, 0x07,
	0x65, 0x01, 0xB0, 0x07, 0x6B, 0x00, 0xB1, 0x07, 0x6B, 0x00, 0xB2, 0x07,
	0x6B, 0x00, 0xB3, 0x07, 0x6B, 0x00, 0xB4, 0x07, 0x6B, 0x0B, 0xB5, 0x07,
	0x66, 0x00, 0xB9, 0x07, 0x66, 0x06, 0xB0, 0x07, 0x6C, 0x00, 0xB1, 0x07,
	0x6C, 0x00, 0xB2, 0x07, 0x6C, 0x00, 0xB3, 0x07, 0x6C, 0x00, 0xB4, 0x07,
	0x6C, 0x00, 0x81, 0x55, 0x00, 0x03, 0x80, 0x5B, 0x00, 0x04, 0xB5, 0x07,
	0x67, 0x00, 0xB9, 0x07, 0x67, 0x0A, 0xB0, 0x07, 0x6D, 0x00, 0xB1, 0x07,
	0x6D, 0x00, 0xB2, 0x07, 0x6D, 0x00, 0xB3, 0x07, 0x6D, 0x00, 0xB4, 0x07,
	0x6D, 0x03, 0xB5, 0x07, 0x68, 0x00, 0xB9, 0x07, 0x68, 0x0D, 0xB0, 0x07,
	0x6E, 0x00, 0xB1, 0x07, 0x6E, 0x00, 0xB2, 0x07, 0x6E, 0x00, 0xB3, 0x07,
	0x6E, 0x00, 0xB4, 0x07, 0x6E, 0x00, 0xB5, 0x07, 0x69, 0x00, 0xB5, 0x0A,
	0x7F, 0x00, 0xB9, 0x07, 0x69, 0x01, 0x90, 0x5B, 0x7F, 0x00, 0x91, 0x55,
	0x7F, 0x00, 0x92, 0x25, 0x7F, 0x00, 0x93, 0x28, 0x7F, 0x00, 0x94, 0x26,
	0x78, 0x00, 0x95, 0x32, 0x7F, 0x00, 0x99, 0x32, 0x78, 0x00, 0x99, 0x23,
	0x7F, 0x00, 0x99, 0x23, 0x7F, 0x00, 0x99, 0x39, 0x6B, 0x00, 0x99, 0x34,
	0x7F, 0x03, 0x85, 0x32, 0x00, 0x00, 0x89, 0x32, 0x00, 0x09, 0x82, 0x25,
	0x00, 0x00, 0xB5, 0x07, 0x6A, 0x00, 0xB9, 0x07, 0x6A, 0x00, 0x89, 0x23,
	0x00, 0x00, 0x89, 0x23, 0x00, 0x00, 0x83, 0x28, 0x00, 0x00, 0x84, 0x26,
	0x00, 0x02, 0x89, 0x39, 0x00, 0x01, 0xB0, 0x07, 0x6F, 0x00, 0xB1, 0x07,
	0x6F, 0x00, 0xB2, 0x07, 0x6F, 0x00, 0xB3, 0x07, 0x6F, 0x00, 0xB4, 0x07,
	0x6F, 0x01, 0xB5, 0x0A, 0x00, 0x01, 0x95, 0x2F, 0x7F, 0x00, 0x99, 0x2F,
	0x7F, 0x03, 0x89, 0x34, 0x00, 0x01, 0x85, 0x2F, 0x00, 0x00, 0x89, 0x2F,
	0x00, 0x03, 0xB5, 0x07, 0x6B, 0x00, 0xB9, 0x07, 0x6B, 0x08, 0xB0, 0x07,
	0x70, 0x00, 0xB1, 0x07, 0x70, 0x00, 0xB2, 0x07, 0x70, 0x00, 0xB3, 0x07,
	0x70, 0x00, 0xB4, 0x07, 0x70, 0x02, 0xB5, 0x0A, 0x7F, 0x01, 0x93, 0x28,
	0x7F, 0x00, 0x94, 0x26, 0x7F, 0x00, 0x95, 0x30, 0x7F, 0x00, 0x99, 0x30,
	0x7C, 0x00, 0x99, 0x23, 0x7F, 0x00, 0x99, 0x23, 0x7F, 0x02, 0xB5, 0x07,
	0x6C, 0x00, 0xB9, 0x07, 0x6C, 0x00, 0x85, 0x30, 0x00, 0x00, 0x89, 0x30,
	0x00, 0x03, 0x81, 0x55, 0x00, 0x01, 0x80, 0x5B, 0x00, 0x06, 0x89, 0x23,
	0x00, 0x00, 0x89, 0x23, 0x00, 0x01, 0xB0, 0x07, 0x71, 0x00, 0xB1, 0x07,
	0x71, 0x00, 0xB2, 0x07, 0x71, 0x00, 0xB3, 0x07, 0x71, 0x00, 0xB4, 0x07,
	0x71, 0x01, 0x83, 0x28, 0x00, 0x01, 0xB5, 0x07, 0x6D, 0x00, 0xB9, 0x07,
	0x6D, 0x00, 0x84, 0x26, 0x00, 0x01, 0xB5, 0x0A, 0x00, 0x01, 0x95, 0x2D,
	0x7F, 0x00, 0x99, 0x2D, 0x7F, 0x04, 0x85, 0x2D, 0x00, 0x00, 0x89, 0x2D,
	0x00, 0x07, 0xB5, 0x07, 0x6E, 0x00, 0xB9, 0x07, 0x6E, 0x02, 0xB0, 0x07,
	0x72, 0x00, 0xB1, 0x07, 0x72, 0x00, 0xB2, 0x07, 0x72, 0x00, 0xB3, 0x07,
	0x72, 0x00, 0xB4, 0x07, 0x72, 0x04, 0xB5, 0x0A, 0x7F, 0x01, 0x90, 0x5B,
	0x7F, 0x00, 0x91, 0x55, 0x7F, 0x00, 0x95, 0x2F, 0x7F, 0x00, 0x99, 0x2F,
	0x7D, 0x00, 0x99, 0x34, 0x7F, 0x03, 0x85, 0x2F, 0x00, 0x00, 0x89, 0x2F,
	0x00, 0x02, 0xB5, 0x07, 0x6F, 0x00, 0xB9, 0x07, 0x6F, 0x06, 0xB0, 0x07,
	0x73, 0x00, 0xB1, 0x07, 0x73, 0x00, 0xB2, 0x07, 0x73, 0x00, 0xB3, 0x07,
	0x73, 0x00, 0xB4, 0x07, 0x73, 0x04, 0x89, 0x34, 0x00, 0x03, 0xB5, 0x07,
	0x70, 0x00, 0xB9, 0x07, 0x70, 0x08, 0xB5, 0x0A, 0x00, 0x02, 0xB0, 0x07,
	0x74, 0x00, 0xB1, 0x07, 0x74, 0x00, 0xB2, 0x07, 0x74, 0x00, 0xB3, 0x07,
	0x74, 0x00, 0xB4, 0x07, 0x74, 0x02, 0xB5, 0x07, 0x71, 0x00, 0xB9, 0x07,
	0x71, 0x05, 0x95, 0x29, 0x7F, 0x00, 0x99, 0x2B, 0x7F, 0x00, 0x99, 0x29,
	0x7F, 0x02, 0x81, 0x55, 0x00, 0x02, 0x89, 0x2B, 0x00, 0x00, 0x85, 0x29,
	0x00, 0x00, 0x89, 0x29, 0x00, 0x01, 0x80, 0x5B, 0x00, 0x03, 0xB5, 0x07,
	0x72, 0x00, 0xB9, 0x07, 0x72, 0x01, 0xB0, 0x07, 0x75, 0x00, 0xB1, 0x07,
	0x75, 0x00, 0xB2, 0x07, 0x75, 0x00, 0xB3, 0x07, 0x75, 0x00, 0xB4, 0x07,
	0x75, 0x0C, 0xB5, 0x07, 0x73, 0x00, 0xB9, 0x07, 0x73, 0x05, 0xB0, 0x07,
	0x76, 0x00, 0xB1, 0x07, 0x76, 0x00, 0xB2, 0x07, 0x76, 0x00, 0xB3, 0x07,
	0x76, 0x00, 0xB4, 0x07, 0x76, 0x08, 0xB5, 0x0A, 0x40, 0x00, 0xB5, 0x07,
	0x74, 0x00, 0xB9, 0x07, 0x74, 0x01, 0x90, 0x5B, 0x7F, 0x00, 0x91, 0x55,
	0x7F, 0x00, 0x92, 0x25, 0x7F, 0x00, 0x95, 0x29, 0x7F, 0x00, 0x99, 0x2B,
	0x7C, 0x00, 0x99, 0x29, 0x76, 0x00, 0x99, 0x23, 0x7F, 0x00, 0x99, 0x23,
	0x7F, 0x00, 0x99, 0x31, 0x6B, 0x00, 0x99, 0x34, 0x7F, 0x04, 0x85, 0x29,
	0x00, 0x00, 0x89, 0x29, 0x00, 0x00, 0x89, 0x2B, 0x00, 0x03, 0xB0, 0x07,
	0x77, 0x00, 0xB1, 0x07, 0x77, 0x00, 0xB2, 0x07, 0x77, 0x00, 0xB3, 0x07,
	0x77, 0x00, 0xB4, 0x07, 0x77, 0x04, 0x89, 0x31, 0x00, 0x00, 0xB5, 0x07,
	0x75, 0x00, 0xB9, 0x07, 0x75, 0x00, 0x89, 0x23, 0x00, 0x00, 0x89, 0x23,
	0x00, 0x02, 0x82, 0x25, 0x00, 0x03, 0x89, 0x34, 0x00, 0x07, 0xB0, 0x07,
	0x78, 0x00, 0xB1, 0x07, 0x78, 0x00, 0xB2, 0x07, 0x78, 0x00, 0xB3, 0x07,
	0x78, 0x00, 0xB4, 0x07, 0x78, 0x01, 0xB5, 0x07, 0x76, 0x00, 0xB9, 0x07,
	0x76, 0x0B, 0x99, 0x23, 0x7F, 0x00, 0x99, 0x23, 0x7F, 0x02, 0x81, 0x55,
	0x00, 0x00, 0xB5, 0x07, 0x77, 0x00, 0xB9, 0x07, 0x77, 0x03, 0x80, 0x5B,
	0x00, 0x00, 0xB0, 0x07, 0x79, 0x00, 0xB1, 0x07, 0x79, 0x00, 0xB2, 0x07,
	0x79, 0x00, 0xB3, 0x07, 0x79, 0x00, 0xB4, 0x07, 0x79, 0x06, 0x89, 0x23,
	0x00, 0x00, 0x89, 0x23, 0x00, 0x04, 0xB5, 0x07, 0x78, 0x00, 0xB9, 0x07,
	0x78, 0x06, 0xB0, 0x07, 0x7A, 0x00, 0xB1, 0x07, 0x7A, 0x00, 0xB2, 0x07,
	0x7A, 0x00, 0xB3, 0x07, 0x7A, 0x00, 0xB4, 0x07, 0x7A, 0x07, 0xB5, 0x07,
	0x79, 0x00, 0xB9, 0x07, 0x79, 0x07, 0x90, 0x5B, 0x7F, 0x00, 0x91, 0x55,
	0x7F, 0x00, 0x92, 0x25, 0x7F, 0x00, 0x99, 0x34, 0x7F, 0x03, 0xB0, 0x07,
	0x7B, 0x00, 0xB1, 0x07, 0x7B, 0x00, 0xB2, 0x07, 0x7B, 0x00, 0xB3, 0x07,
	0x7B, 0x00, 0xB4, 0x07, 0x7B, 0x02, 0xB5, 0x07, 0x7A, 0x00, 0xB9, 0x07,
	0x7A, 0x08, 0x82, 0x25, 0x00, 0x01, 0x89, 0x34, 0x00, 0x04, 0xB5, 0x07,
	0x7B, 0x00, 0xB9, 0x07, 0x7B, 0x01, 0xB0, 0x07, 0x7C, 0x00, 0xB1, 0x07,
	0x7C, 0x00, 0xB2, 0x07, 0x7C, 0x00, 0xB3, 0x07, 0x7C, 0x00, 0xB4, 0x07,
	0x7C, 0x0B, 0xB5, 0x07, 0x7C, 0x00, 0xB9, 0x07, 0x7C, 0x06, 0xB0, 0x07,
	0x7D, 0x00, 0x81, 0x55, 0x00, 0x00, 0xB1, 0x07, 0x7D, 0x00, 0xB2, 0x07,
	0x7D, 0x00, 0xB3, 0x07, 0x7D, 0x00, 0xB4, 0x07, 0x7D, 0x01, 0x80, 0x5B,
	0x00, 0x06, 0xB5, 0x07, 0x7D, 0x00, 0xB9, 0x07, 0x7D, 0x09, 0xB0, 0x07,
	0x7E, 0x00, 0xB1, 0x07, 0x7E, 0x00, 0xB2, 0x07, 0x7E, 0x00, 0xB3, 0x07,
	0x7E, 0x00, 0xB4, 0x07, 0x7E, 0x04, 0xB5, 0x07, 0x7E, 0x00, 0xB9, 0x07,
	0x7E, 0x0D, 0xB0, 0x07, 0x7F, 0x00, 0xB1, 0x07, 0x7F, 0x00, 0xB2, 0x07,
	0x7F, 0x00, 0xB3, 0x07, 0x7F, 0x00, 0xB4, 0x07, 0x7F, 0x00, 0xB5, 0x07,
	0x7F, 0x00, 0xB9, 0x07, 0x7F, 0x01, 0x90, 0x5B, 0x7F, 0x00, 0x91, 0x55,
	0x7F, 0x00, 0x92, 0x25, 0x7F, 0x00, 0x93, 0x28, 0x7F, 0x00, 0x99, 0x2B,
	0x7F, 0x00, 0x99, 0x29, 0x7F, 0x00, 0x99, 0x23, 0x7F, 0x00, 0x99, 0x23,
	0x7F, 0x00, 0x99, 0x39, 0x6B, 0x00, 0x99, 0x31, 0x6B, 0x00, 0x99, 0x34,
	0x7F, 0x00, 0x96, 0x17, 0x7F, 0x00, 0x97, 0x23, 0x7F, 0x00, 0xB7, 0x07,
	0x7F, 0x08, 0xB7, 0x07, 0x7E, 0x01, 0x89, 0x23, 0x00, 0x00, 0x89, 0x23,
	0x00, 0x00, 0x89, 0x39, 0x00, 0x01, 0x89, 0x31, 0x00, 0x02, 0x89, 0x34,
	0x00, 0x05, 0xB7, 0x07, 0x7D, 0x05, 0x81, 0x55, 0x00, 0x00, 0x80, 0x5B,
	0x00, 0x03, 0x82, 0x25, 0x00, 0x00, 0x83, 0x28, 0x00, 0x00, 0x89, 0x29,
	0x00, 0x00, 0x89, 0x2B, 0x00, 0x01, 0xB7, 0x07, 0x7C, 0x09, 0xB7, 0x07,
	0x7B, 0x08, 0x99, 0x31, 0x01, 0x00, 0x99, 0x39, 0x01, 0x00, 0x99, 0x34,
	0x01, 0x00, 0xB7, 0x07, 0x7A, 0x09, 0xB7, 0x07, 0x79, 0x01, 0x89, 0x39,
	0x00, 0x01, 0x89, 0x31, 0x00, 0x02, 0x89, 0x34, 0x00, 0x05, 0xB7, 0x07,
	0x78, 0x09, 0xB7, 0x07, 0x77, 0x08, 0xB7, 0x07, 0x76, 0x0A, 0xB7, 0x07,
	0x75, 0x08, 0xB7, 0x07, 0x74, 0x09, 0xB7, 0x07, 0x73, 0x09, 0xB7, 0x07,
	0x72, 0x09, 0xB7, 0x07, 0x71, 0x08, 0xB7, 0x07, 0x70, 0x09, 0xB7, 0x07,
	0x6F, 0x09, 0xB7, 0x07, 0x6E, 0x09, 0xB7, 0x07, 0x6D, 0x09, 0xB7, 0x07,
	0x6C, 0x09, 0xB7, 0x07, 0x6B, 0x08, 0xB7, 0x07, 0x6A, 0x09, 0xB7, 0x07,
	0x69, 0x09, 0xB7, 0x07, 0x68, 0x09, 0xB7, 0x07, 0x67, 0x08, 0xB7, 0x07,
	0x66, 0x09, 0xB7, 0x07, 0x65, 0x09, 0xB7, 0x07, 0x64, 0x09, 0xB7, 0x07,
	0x63, 0x09, 0xB7, 0x07, 0x62, 0x09, 0xB7, 0x07, 0x61, 0x09, 0xB7, 0x07,
	0x60, 0x08, 0xB7, 0x07, 0x5F, 0x09, 0xB7, 0x07, 0x5E, 0x09, 0xB7, 0x07,
	0x5D, 0x09, 0xB7, 0x07, 0x5C, 0x08, 0xB7, 0x07, 0x5B, 0x0A, 0xB7, 0x07,
	0x5A, 0x08, 0xB7, 0x07, 0x59, 0x09, 0xB7, 0x07, 0x58, 0x09, 0xB7, 0x07,
	0x57, 0x09, 0xB7, 0x07, 0x56, 0x08, 0xB7, 0x07, 0x55, 0x09, 0xB7, 0x07,
	0x54, 0x09, 0xB7, 0x07, 0x53, 0x09, 0xB7, 0x07, 0x52, 0x09, 0xB7, 0x07,
	0x51, 0x09, 0xB7, 0x07, 0x50, 0x08, 0xB7, 0x07, 0x4F, 0x09, 0xB7, 0x07,
	0x4E, 0x09, 0xB7, 0x07, 0x4D, 0x09, 0xB7, 0x07, 0x4C, 0x08, 0xB7, 0x07,
	0x4B, 0x09, 0xB7, 0x07, 0x4A, 0x09, 0xB7, 0x07, 0x49, 0x09, 0xB7, 0x07,
	0x48, 0x09, 0xB7, 0x07, 0x47, 0x09, 0xB7, 0x07, 0x46, 0x09, 0xB7, 0x07,
	0x45, 0x08, 0xB7, 0x07, 0x44, 0x09, 0xB7, 0x07, 0x43, 0x09, 0xB7, 0x07,
	0x42, 0x09, 0xB7, 0x07, 0x41, 0x08, 0xB7, 0x07, 0x40, 0x06, 0xB6, 0x07,
	0x7F, 0x04, 0xB7, 0x07, 0x3F, 0x04, 0xB6, 0x07, 0x7E, 0x04, 0xB7, 0x07,
	0x3E, 0x05, 0xB6, 0x07, 0x7D, 0x04, 0xB7, 0x07, 0x3D, 0x05, 0xB6, 0x07,
	0x7C, 0x04, 0xB7, 0x07, 0x3C, 0x05, 0xB6, 0x07, 0x7B, 0x04, 0xB7, 0x07,
	0x3B, 0x04, 0xB6, 0x07, 0x7A, 0x04, 0xB7, 0x07, 0x3A, 0x05, 0xB6, 0x07,
	0x79, 0x04, 0xB7, 0x07, 0x39, 0x05, 0xB6, 0x07, 0x78, 0x04, 0xB7, 0x07,
	0x38, 0x05, 0xB6, 0x07, 0x77, 0x04, 0xB7, 0x07, 0x37, 0x04, 0xB6, 0x07,
	0x76, 0x05, 0xB7, 0x07, 0x36, 0x05, 0xB6, 0x07, 0x75, 0x04, 0xB7, 0x07,
	0x35, 0x04, 0xB6, 0x07, 0x74, 0x04, 0xB7, 0x07, 0x34, 0x05, 0xB6, 0x07,
	0x73, 0x04, 0xB7, 0x07, 0x33, 0x05, 0xB6, 0x07, 0x72, 0x04, 0xB7, 0x07,
	0x32, 0x05, 0xB6, 0x07, 0x71, 0x04, 0xB7, 0x07, 0x31, 0x04, 0xB6, 0x07,
	0x70, 0x04, 0xB7, 0x07, 0x30, 0x05, 0xB6, 0x07, 0x6F, 0x04, 0xB7, 0x07,
	0x2F, 0x05, 0xB6, 0x07, 0x6E, 0x04, 0xB7, 0x07, 0x2E, 0x05, 0xB6, 0x07,
	0x6D, 0x04, 0xB7, 0x07, 0x2D, 0x05, 0xB6, 0x07, 0x6C, 0x04, 0xB7, 0x07,
	0x2C, 0x05, 0xB6, 0x07, 0x6B, 0x04, 0xB7, 0x07, 0x2B, 0x04, 0xB6, 0x07,
	0x6A, 0x05, 0xB7, 0x07, 0x2A, 0x04, 0xB6, 0x07, 0x69, 0x04, 0xB7, 0x07,
	0x29, 0x05, 0xB6, 0x07, 0x68, 0x04, 0xB7, 0x07, 0x28, 0x05, 0xB6, 0x07,
	0x67, 0x04, 0xB7, 0x07, 0x27, 0x04, 0xB6, 0x07, 0x66, 0x05, 0xB7, 0x07,
	0x26, 0x04, 0xB6, 0x07, 0x65, 0x04, 0xB7, 0x07, 0x25, 0x05, 0xB6, 0x07,
	0x64, 0x05, 0xB7, 0x07, 0x24, 0x04, 0xB6, 0x07, 0x63, 0x04, 0xB7, 0x07,
	0x23, 0x05, 0xB6, 0x07, 0x62, 0x04, 0xB7, 0x07, 0x22, 0x05, 0xB6, 0x07,
	0x61, 0x04, 0xB7, 0x07, 0x21, 0x05, 0xB6, 0x07, 0x60, 0x04, 0xB7, 0x07,
	0x20, 0x04, 0xB6, 0x07, 0x5F, 0x04, 0xB7, 0x07, 0x1F, 0x05, 0xB6, 0x07,
	0x5E, 0x04, 0xB7, 0x07, 0x1E, 0x05, 0xB6, 0x07, 0x5D, 0x04, 0xB7, 0x07,
	0x1D, 0x05, 0xB6, 0x07, 0x5C, 0x04, 0xB7, 0x07, 0x1C, 0x04, 0xB6, 0x07,
	0x5B, 0x05, 0xB7, 0x07, 0x1B, 0x05, 0xB6, 0x07, 0x5A, 0x04, 0xB7, 0x07,
	0x1A, 0x04, 0xB6, 0x07, 0x59, 0x04, 0xB7, 0x07, 0x19, 0x05, 0xB6, 0x07,
	0x58, 0x04, 0xB7, 0x07, 0x18, 0x05, 0xB6, 0x07, 0x57, 0x04, 0xB7, 0x07,
	0x17, 0x05, 0xB6, 0x07, 0x56, 0x04, 0xB7, 0x07, 0x16, 0x04, 0xB6, 0x07,
	0x55, 0x04, 0xB7, 0x07, 0x15, 0x05, 0xB6, 0x07, 0x54, 0x04, 0xB7, 0x07,
	0x14, 0x05, 0xB6, 0x07, 0x53, 0x04, 0xB7, 0x07, 0x13, 0x05, 0xB6, 0x07,
	0x52, 0x04, 0xB7, 0x07, 0x12, 0x05, 0xB6, 0x07, 0x51, 0x04, 0xB7, 0x07,
	0x11, 0x05, 0xB6, 0x07, 0x50, 0x04, 0xB7, 0x07, 0x10, 0x04, 0xB6, 0x07,
	0x4F, 0x05, 0xB7, 0x07, 0x0F, 0x04, 0xB6, 0x07, 0x4E, 0x04, 0xB7, 0x07,
	0x0E, 0x05, 0xB6, 0x07, 0x4D, 0x04, 0xB7, 0x07, 0x0D, 0x05, 0xB6, 0x07,
	0x4C, 0x04, 0xB7, 0x07, 0x0C, 0x04, 0xB6, 0x07, 0x4B, 0x05, 0xB7, 0x07,
	0x0B, 0x04, 0xB6, 0x07, 0x4A, 0x04, 0xB7, 0x07, 0x0A, 0x05, 0xB6, 0x07,
	0x49, 0x05, 0xB7, 0x07, 0x09, 0x04, 0xB6, 0x07, 0x48, 0x04, 0xB7, 0x07,
	0x08, 0x05, 0xB6, 0x07, 0x47, 0x04, 0xB7, 0x07, 0x07, 0x05, 0xB6, 0x07,
	0x46, 0x04, 0xB7, 0x07, 0x06, 0x05, 0xB6, 0x07, 0x45, 0x04, 0xB7, 0x07,
	0x05, 0x04, 0xB6, 0x07, 0x44, 0x04, 0xB7, 0x07, 0x04, 0x05, 0xB6, 0x07,
	0x43, 0x04, 0xB7, 0x07, 0x03, 0x05, 0xB6, 0x07, 0x42, 0x04, 0xB7, 0x07,
	0x02, 0x05, 0xB6, 0x07, 0x41, 0x04, 0xB7, 0x07, 0x01, 0x04, 0xB6, 0x07,
	0x40, 0x05, 0x86, 0x17, 0x00, 0x00, 0x87, 0x23, 0x00, 0x00, 0xB7, 0x07,
	0x00, 0x01, 0xFF, 0x2F, 0x00
};

byte Music_General[7200] = {
	0x4D, 0x54, 0x68, 0x64, 0x00, 0x00, 0x00, 0x06, 0x00, 0x00, 0x00, 0x01,
	0x00, 0x46, 0x4D, 0x54, 0x72, 0x6B, 0x00, 0x00, 0x1C, 0x0A, 0x00, 0xFF,
	0x58, 0x04, 0x04, 0x02, 0x18, 0x08, 0x00, 0xFF, 0x51, 0x03, 0x07, 0xA1,
	0x20, 0x00, 0xCB, 0x12, 0x00, 0xBB, 0x07, 0x64, 0x00, 0xBB, 0x0A, 0x6B,
	0x00, 0xCA, 0x12, 0x00, 0xBA, 0x07, 0x64, 0x00, 0xBA, 0x0A, 0x13, 0x00,
	0xB9, 0x07, 0x5A, 0x00, 0xC8, 0x12, 0x00, 0xB8, 0x07, 0x64, 0x00, 0xB8,
	0x0A, 0x40, 0x00, 0xC7, 0x27, 0x00, 0xB7, 0x07, 0x64, 0x00, 0xB7, 0x0A,
	0x40, 0x00, 0xC6, 0x2C, 0x00, 0xB6, 0x07, 0x64, 0x00, 0xB6, 0x0A, 0x54,
	0x00, 0xC5, 0x2C, 0x00, 0xB5, 0x07, 0x64, 0x00, 0xB5, 0x0A, 0x2C, 0x00,
	0xC4, 0x1F, 0x00, 0xB4, 0x07, 0x64, 0x00, 0xB4, 0x0A, 0x04, 0x00, 0xC3,
	0x0B, 0x00, 0xB3, 0x07, 0x64, 0x00, 0xB3, 0x0A, 0x40, 0x00, 0xC2, 0x12,
	0x00, 0xB2, 0x07, 0x64, 0x00, 0xB2, 0x0A, 0x7C, 0x00, 0xC1, 0x0F, 0x00,
	0xB1, 0x0A, 0x22, 0x00, 0xB1, 0x07, 0x00, 0x00, 0xB1, 0x07, 0x00, 0x00,
	0xC0, 0x35, 0x00, 0xB0, 0x0A, 0x40, 0x00, 0xB0, 0x07, 0x7F, 0x07, 0xB1,
	0x07, 0x05, 0x07, 0xB1, 0x07, 0x0A, 0x07, 0xB1, 0x07, 0x0F, 0x07, 0xB1,
	0x07, 0x15, 0x07, 0xB1, 0x07, 0x1A, 0x04, 0x9B, 0x48, 0x40, 0x00, 0x9A,
	0x44, 0x40, 0x00, 0x99, 0x2A, 0x76, 0x00, 0x99, 0x24, 0x6E, 0x00, 0x98,
	0x41, 0x40, 0x00, 0x97, 0x1D, 0x6E, 0x03, 0xB1, 0x07, 0x1F, 0x06, 0x89,
	0x2A, 0x00, 0x01, 0xB1, 0x07, 0x25, 0x07, 0xB1, 0x07, 0x2A, 0x00, 0xB0,
	0x07, 0x7D, 0x07, 0xB1, 0x07, 0x2F, 0x00, 0xB0, 0x07, 0x78, 0x1B, 0x89,
	0x24, 0x00, 0x21, 0x99, 0x24, 0x50, 0x0E, 0x89, 0x24, 0x00, 0x0E, 0x99,
	0x2A, 0x6B, 0x00, 0x99, 0x28, 0x70, 0x0B, 0x89, 0x2A, 0x00, 0x07, 0x89,
	0x28, 0x00, 0x41, 0x87, 0x1D, 0x00, 0x01, 0x99, 0x24, 0x47, 0x00, 0x97,
	0x29, 0x65, 0x0A, 0x89, 0x24, 0x00, 0x00, 0x87, 0x29, 0x00, 0x11, 0x8B,
	0x48, 0x00, 0x00, 0x8A, 0x44, 0x00, 0x00, 0x88, 0x41, 0x00, 0x01, 0x9B,
	0x49, 0x40, 0x00, 0x9A, 0x46, 0x40, 0x00, 0x99, 0x2A, 0x6B, 0x00, 0x99,
	0x24, 0x70, 0x00, 0x98, 0x41, 0x40, 0x00, 0x97, 0x29, 0x59, 0x0C, 0x89,
	0x2A, 0x00, 0x02, 0x89, 0x24, 0x00, 0x46, 0x99, 0x24, 0x56, 0x0B, 0x89,
	0x24, 0x00, 0x11, 0x99, 0x2A, 0x7F, 0x00, 0x99, 0x28, 0x5C, 0x0B, 0x89,
	0x2A, 0x00, 0x07, 0x89, 0x28, 0x00, 0x42, 0x99, 0x24, 0x53, 0x09, 0x89,
	0x24, 0x00, 0x08, 0x87, 0x29, 0x00, 0x0A, 0x8B, 0x49, 0x00, 0x00, 0x8A,
	0x46, 0x00, 0x00, 0x88, 0x41, 0x00, 0x01, 0x9B, 0x48, 0x40, 0x00, 0x9A,
	0x44, 0x40, 0x00, 0x99, 0x2A, 0x7F, 0x00, 0x99, 0x24, 0x65, 0x00, 0x98,
	0x41, 0x40, 0x00, 0x97, 0x1D, 0x62, 0x0C, 0x89, 0x2A, 0x00, 0x01, 0x89,
	0x24, 0x00, 0x47, 0x99, 0x24, 0x65, 0x0B, 0x89, 0x24, 0x00, 0x11, 0x99,
	0x2A, 0x7F, 0x00, 0x99, 0x28, 0x62, 0x0B, 0x89, 0x2A, 0x00, 0x04, 0x89,
	0x28, 0x00, 0x41, 0x87, 0x1D, 0x00, 0x04, 0x99, 0x24, 0x4A, 0x00, 0x97,
	0x29, 0x68, 0x09, 0x89, 0x24, 0x00, 0x03, 0x87, 0x29, 0x00, 0x0F, 0x8B,
	0x48, 0x00, 0x00, 0x8A, 0x44, 0x00, 0x00, 0x88, 0x41, 0x00, 0x01, 0x9B,
	0x47, 0x40, 0x00, 0x9A, 0x43, 0x40, 0x00, 0x99, 0x2A, 0x7E, 0x00, 0x99,
	0x24, 0x5C, 0x00, 0x98, 0x41, 0x40, 0x00, 0x97, 0x29, 0x56, 0x0D, 0x89,
	0x2A, 0x00, 0x00, 0x89, 0x24, 0x00, 0x47, 0x99, 0x24, 0x59, 0x0B, 0x89,
	0x24, 0x00, 0x11, 0x99, 0x2A, 0x7F, 0x00, 0x99, 0x28, 0x70, 0x0D, 0x89,
	0x2A, 0x00, 0x02, 0x89, 0x28, 0x00, 0x45, 0x99, 0x24, 0x59, 0x09, 0x89,
	0x24, 0x00, 0x0D, 0x87, 0x29, 0x00, 0x05, 0x8B, 0x47, 0x00, 0x00, 0x8A,
	0x43, 0x00, 0x00, 0x88, 0x41, 0x00, 0x01, 0x9B, 0x48, 0x40, 0x00, 0x9A,
	0x44, 0x40, 0x00, 0x99, 0x2A, 0x7A, 0x00, 0x99, 0x24, 0x65, 0x00, 0x98,
	0x41, 0x40, 0x00, 0x97, 0x1D, 0x68, 0x0B, 0x89, 0x2A, 0x00, 0x00, 0x89,
	0x24, 0x00, 0x49, 0x99, 0x24, 0x5C, 0x0B, 0x89, 0x24, 0x00, 0x11, 0x99,
	0x2A, 0x76, 0x00, 0x99, 0x28, 0x62, 0x0B, 0x89, 0x2A, 0x00, 0x03, 0x89,
	0x28, 0x00, 0x45, 0x87, 0x1D, 0x00, 0x01, 0x99, 0x24, 0x38, 0x00, 0x97,
	0x29, 0x70, 0x09, 0x89, 0x24, 0x00, 0x02, 0x87, 0x29, 0x00, 0x10, 0x8B,
	0x48, 0x00, 0x00, 0x8A, 0x44, 0x00, 0x00, 0x88, 0x41, 0x00, 0x01, 0x9B,
	0x49, 0x40, 0x00, 0x9A, 0x46, 0x40, 0x00, 0x99, 0x2A, 0x7E, 0x00, 0x99,
	0x24, 0x59, 0x00, 0x98, 0x41, 0x40, 0x00, 0x97, 0x29, 0x72, 0x0A, 0x89,
	0x2A, 0x00, 0x01, 0x89, 0x24, 0x00, 0x49, 0x99, 0x24, 0x53, 0x0B, 0x89,
	0x24, 0x00, 0x11, 0x99, 0x2A, 0x7E, 0x00, 0x99, 0x28, 0x53, 0x0A, 0x89,
	0x2A, 0x00, 0x04, 0x89, 0x28, 0x00, 0x46, 0x99, 0x24, 0x59, 0x09, 0x89,
	0x24, 0x00, 0x0F, 0x87, 0x29, 0x00, 0x03, 0x8B, 0x49, 0x00, 0x00, 0x8A,
	0x46, 0x00, 0x00, 0x88, 0x41, 0x00, 0x01, 0x9B, 0x48, 0x40, 0x00, 0x9A,
	0x44, 0x40, 0x00, 0x99, 0x2A, 0x76, 0x00, 0x99, 0x24, 0x68, 0x00, 0x98,
	0x41, 0x40, 0x00, 0x97, 0x1D, 0x70, 0x0B, 0x89, 0x2A, 0x00, 0x02, 0x89,
	0x24, 0x00, 0x47, 0x99, 0x24, 0x59, 0x0A, 0x89, 0x24, 0x00, 0x12, 0x99,
	0x2A, 0x78, 0x00, 0x99, 0x28, 0x56, 0x0B, 0x89, 0x2A, 0x00, 0x02, 0x89,
	0x28, 0x00, 0x46, 0x87, 0x1D, 0x00, 0x01, 0x99, 0x24, 0x56, 0x00, 0x97,
	0x29, 0x74, 0x0A, 0x89, 0x24, 0x00, 0x01, 0x87, 0x29, 0x00, 0x10, 0x8B,
	0x48, 0x00, 0x00, 0x8A, 0x44, 0x00, 0x00, 0x88, 0x41, 0x00, 0x01, 0x9B,
	0x47, 0x40, 0x00, 0x9A, 0x43, 0x40, 0x00, 0x99, 0x2A, 0x7F, 0x00, 0x99,
	0x24, 0x56, 0x00, 0x98, 0x41, 0x40, 0x00, 0x97, 0x29, 0x72, 0x09, 0x89,
	0x2A, 0x00, 0x02, 0x89, 0x24, 0x00, 0x11, 0x99, 0x24, 0x56, 0x09, 0x89,
	0x24, 0x00, 0x13, 0x99, 0x24, 0x50, 0x0A, 0x89, 0x24, 0x00, 0x12, 0x99,
	0x24, 0x47, 0x0B, 0x89, 0x24, 0x00, 0x11, 0x99, 0x2A, 0x7F, 0x00, 0x99,
	0x28, 0x6E, 0x09, 0x89, 0x2A, 0x00, 0x03, 0x89, 0x28, 0x00, 0x48, 0x99,
	0x24, 0x41, 0x08, 0x89, 0x24, 0x00, 0x13, 0x8B, 0x47, 0x00, 0x00, 0x8A,
	0x43, 0x00, 0x00, 0x88, 0x41, 0x00, 0x00, 0x87, 0x29, 0x00, 0x01, 0x9B,
	0x48, 0x40, 0x00, 0x9A, 0x44, 0x40, 0x00, 0x99, 0x2A, 0x62, 0x00, 0x99,
	0x24, 0x62, 0x00, 0x98, 0x41, 0x40, 0x00, 0x97, 0x1D, 0x70, 0x0A, 0x89,
	0x24, 0x00, 0x01, 0x89, 0x2A, 0x00, 0x1F, 0x8B, 0x48, 0x00, 0x00, 0x8A,
	0x44, 0x00, 0x00, 0x88, 0x41, 0x00, 0x0E, 0x9B, 0x48, 0x40, 0x00, 0x9A,
	0x44, 0x40, 0x00, 0x99, 0x2A, 0x44, 0x00, 0x98, 0x41, 0x40, 0x0A, 0x89,
	0x2A, 0x00, 0x01, 0x8B, 0x48, 0x00, 0x01, 0x8A, 0x44, 0x00, 0x02, 0x88,
	0x41, 0x00, 0x0E, 0x9B, 0x49, 0x40, 0x00, 0x9A, 0x46, 0x40, 0x00, 0x99,
	0x2A, 0x38, 0x00, 0x99, 0x24, 0x56, 0x00, 0x98, 0x41, 0x40, 0x0A, 0x89,
	0x2A, 0x00, 0x01, 0x8B, 0x49, 0x00, 0x00, 0x8A, 0x46, 0x00, 0x00, 0x89,
	0x24, 0x00, 0x02, 0x88, 0x41, 0x00, 0x0F, 0x9B, 0x49, 0x40, 0x00, 0x9A,
	0x46, 0x40, 0x00, 0x99, 0x2A, 0x5F, 0x00, 0x99, 0x28, 0x74, 0x00, 0x98,
	0x41, 0x40, 0x0A, 0x8B, 0x49, 0x00, 0x01, 0x89, 0x2A, 0x00, 0x01, 0x8A,
	0x46, 0x00, 0x00, 0x88, 0x41, 0x00, 0x01, 0x89, 0x28, 0x00, 0x0F, 0x9B,
	0x48, 0x40, 0x00, 0x9A, 0x44, 0x40, 0x00, 0x98, 0x41, 0x40, 0x1C, 0x99,
	0x2A, 0x56, 0x04, 0x87, 0x1D, 0x00, 0x06, 0x89, 0x2A, 0x00, 0x12, 0x99,
	0x2A, 0x38, 0x00, 0x99, 0x24, 0x53, 0x00, 0x97, 0x1D, 0x6E, 0x0A, 0x8A,
	0x44, 0x00, 0x00, 0x89, 0x2A, 0x00, 0x00, 0x89, 0x24, 0x00, 0x00, 0x87,
	0x1D, 0x00, 0x01, 0x8B, 0x48, 0x00, 0x01, 0x88, 0x41, 0x00, 0x10, 0x9B,
	0x47, 0x40, 0x00, 0x9A, 0x43, 0x40, 0x00, 0x99, 0x2A, 0x53, 0x00, 0x99,
	0x24, 0x59, 0x00, 0x98, 0x41, 0x40, 0x00, 0x97, 0x1D, 0x74, 0x09, 0x89,
	0x24, 0x00, 0x05, 0x89, 0x2A, 0x00, 0x0E, 0x99, 0x24, 0x56, 0x09, 0x89,
	0x24, 0x00, 0x13, 0x99, 0x2A, 0x59, 0x00, 0x99, 0x24, 0x50, 0x0A, 0x8A,
	0x43, 0x00, 0x00, 0x89, 0x24, 0x00, 0x01, 0x8B, 0x47, 0x00, 0x02, 0x89,
	0x2A, 0x00, 0x00, 0x88, 0x41, 0x00, 0x0F, 0x9B, 0x48, 0x40, 0x00, 0x9A,
	0x44, 0x40, 0x00, 0x99, 0x24, 0x4D, 0x00, 0x98, 0x41, 0x40, 0x09, 0x88,
	0x41, 0x00, 0x01, 0x8A, 0x44, 0x00, 0x01, 0x8B, 0x48, 0x00, 0x01, 0x89,
	0x24, 0x00, 0x10, 0x9B, 0x48, 0x40, 0x00, 0x9A, 0x44, 0x40, 0x00, 0x99,
	0x2A, 0x53, 0x00, 0x99, 0x28, 0x74, 0x00, 0x98, 0x41, 0x40, 0x0B, 0x89,
	0x2A, 0x00, 0x01, 0x89, 0x28, 0x00, 0x10, 0x99, 0x2A, 0x38, 0x0A, 0x89,
	0x2A, 0x00, 0x12, 0x99, 0x2A, 0x32, 0x0B, 0x89, 0x2A, 0x00, 0x10, 0x87,
	0x1D, 0x00, 0x01, 0x99, 0x2A, 0x38, 0x00, 0x99, 0x24, 0x4D, 0x08, 0x89,
	0x24, 0x00, 0x02, 0x89, 0x2A, 0x00, 0x01, 0x8A, 0x44, 0x00, 0x00, 0x88,
	0x41, 0x00, 0x01, 0x8B, 0x48, 0x00, 0x10, 0x9B, 0x48, 0x40, 0x00, 0x9A,
	0x44, 0x40, 0x00, 0x99, 0x2A, 0x53, 0x00, 0x99, 0x24, 0x6E, 0x00, 0x98,
	0x41, 0x40, 0x00, 0x97, 0x1D, 0x70, 0x0B, 0x89, 0x24, 0x00, 0x02, 0x89,
	0x2A, 0x00, 0x1C, 0x8A, 0x44, 0x00, 0x00, 0x88, 0x41, 0x00, 0x01, 0x8B,
	0x48, 0x00, 0x0E, 0x9B, 0x48, 0x40, 0x00, 0x9A, 0x44, 0x40, 0x00, 0x99,
	0x2A, 0x3E, 0x00, 0x98, 0x41, 0x40, 0x0A, 0x89, 0x2A, 0x00, 0x02, 0x8A,
	0x44, 0x00, 0x01, 0x8B, 0x48, 0x00, 0x02, 0x88, 0x41, 0x00, 0x0D, 0x9B,
	0x49, 0x40, 0x00, 0x9A, 0x46, 0x40, 0x00, 0x99, 0x2A, 0x3E, 0x00, 0x99,
	0x24, 0x65, 0x00, 0x98, 0x41, 0x40, 0x08, 0x8B, 0x49, 0x00, 0x00, 0x8A,
	0x46, 0x00, 0x01, 0x88, 0x41, 0x00, 0x01, 0x89, 0x2A, 0x00, 0x01, 0x89,
	0x24, 0x00, 0x11, 0x9B, 0x49, 0x40, 0x00, 0x9A, 0x46, 0x40, 0x00, 0x99,
	0x2A, 0x47, 0x00, 0x99, 0x28, 0x74, 0x00, 0x98, 0x41, 0x40, 0x0A, 0x8B,
	0x49, 0x00, 0x00, 0x88, 0x41, 0x00, 0x01, 0x8A, 0x46, 0x00, 0x01, 0x89,
	0x2A, 0x00, 0x02, 0x89, 0x28, 0x00, 0x0E, 0x9B, 0x48, 0x40, 0x00, 0x9A,
	0x44, 0x40, 0x00, 0x98, 0x41, 0x40, 0x1C, 0x99, 0x2A, 0x38, 0x02, 0x87,
	0x1D, 0x00, 0x07, 0x89, 0x2A, 0x00, 0x13, 0x99, 0x2A, 0x3E, 0x00, 0x99,
	0x24, 0x50, 0x00, 0x97, 0x1D, 0x70, 0x07, 0x8B, 0x48, 0x00, 0x01, 0x8A,
	0x44, 0x00, 0x00, 0x88, 0x41, 0x00, 0x01, 0x89, 0x24, 0x00, 0x01, 0x89,
	0x2A, 0x00, 0x01, 0x87, 0x1D, 0x00, 0x11, 0x9B, 0x47, 0x40, 0x00, 0x9A,
	0x43, 0x40, 0x00, 0x99, 0x2A, 0x4A, 0x00, 0x99, 0x24, 0x59, 0x00, 0x98,
	0x41, 0x40, 0x00, 0x97, 0x1D, 0x74, 0x0C, 0x89, 0x2A, 0x00, 0x00, 0x89,
	0x24, 0x00, 0x2C, 0x99, 0x2A, 0x56, 0x00, 0x99, 0x24, 0x5C, 0x0A, 0x8B,
	0x47, 0x00, 0x00, 0x8A, 0x43, 0x00, 0x02, 0x89, 0x2A, 0x00, 0x00, 0x88,
	0x41, 0x00, 0x01, 0x89, 0x24, 0x00, 0x0F, 0x9B, 0x48, 0x40, 0x00, 0x9A,
	0x44, 0x40, 0x00, 0x98, 0x41, 0x40, 0x05, 0x8B, 0x48, 0x00, 0x00, 0x88,
	0x41, 0x00, 0x01, 0x8A, 0x44, 0x00, 0x16, 0x9B, 0x48, 0x40, 0x00, 0x9A,
	0x44, 0x40, 0x00, 0x99, 0x2A, 0x4A, 0x00, 0x99, 0x28, 0x7C, 0x00, 0x98,
	0x41, 0x40, 0x0B, 0x89, 0x2A, 0x00, 0x03, 0x89, 0x28, 0x00, 0x0E, 0x99,
	0x2A, 0x3B, 0x0A, 0x89, 0x2A, 0x00, 0x12, 0x99, 0x2A, 0x3B, 0x0B, 0x89,
	0x2A, 0x00, 0x10, 0x87, 0x1D, 0x00, 0x01, 0x99, 0x2A, 0x38, 0x00, 0x99,
	0x24, 0x5C, 0x09, 0x89, 0x24, 0x00, 0x01, 0x8A, 0x44, 0x00, 0x00, 0x88,
	0x41, 0x00, 0x01, 0x8B, 0x48, 0x00, 0x00, 0x89, 0x2A, 0x00, 0x11, 0x9B,
	0x48, 0x40, 0x00, 0x9A, 0x44, 0x40, 0x00, 0x99, 0x2A, 0x4A, 0x00, 0x99,
	0x24, 0x68, 0x00, 0x98, 0x41, 0x40, 0x00, 0x97, 0x1D, 0x68, 0x0B, 0x89,
	0x24, 0x00, 0x02, 0x89, 0x2A, 0x00, 0x1C, 0x88, 0x41, 0x00, 0x01, 0x8B,
	0x48, 0x00, 0x00, 0x8A, 0x44, 0x00, 0x0E, 0x9B, 0x48, 0x40, 0x00, 0x9A,
	0x44, 0x40, 0x00, 0x99, 0x2A, 0x53, 0x00, 0x98, 0x41, 0x40, 0x0B, 0x89,
	0x2A, 0x00, 0x02, 0x8B, 0x48, 0x00, 0x01, 0x8A, 0x44, 0x00, 0x01, 0x88,
	0x41, 0x00, 0x0D, 0x9B, 0x49, 0x40, 0x00, 0x9A, 0x46, 0x40, 0x00, 0x99,
	0x2A, 0x38, 0x00, 0x99, 0x24, 0x56, 0x00, 0x98, 0x41, 0x40, 0x09, 0x8B,
	0x49, 0x00, 0x01, 0x8A, 0x46, 0x00, 0x00, 0x89, 0x2A, 0x00, 0x00, 0x88,
	0x41, 0x00, 0x01, 0x89, 0x24, 0x00, 0x11, 0x9B, 0x49, 0x40, 0x00, 0x9A,
	0x46, 0x40, 0x00, 0x99, 0x2A, 0x4D, 0x00, 0x99, 0x28, 0x74, 0x00, 0x98,
	0x41, 0x40, 0x09, 0x8B, 0x49, 0x00, 0x01, 0x8A, 0x46, 0x00, 0x00, 0x88,
	0x41, 0x00, 0x03, 0x89, 0x2A, 0x00, 0x00, 0x89, 0x28, 0x00, 0x0F, 0x9B,
	0x48, 0x40, 0x00, 0x9A, 0x44, 0x40, 0x00, 0x98, 0x41, 0x40, 0x1C, 0x99,
	0x2A, 0x53, 0x00, 0x87, 0x1D, 0x00, 0x0B, 0x89, 0x2A, 0x00, 0x11, 0x99,
	0x2A, 0x3E, 0x00, 0x99, 0x24, 0x62, 0x00, 0x97, 0x1D, 0x65, 0x08, 0x8B,
	0x48, 0x00, 0x00, 0x8A, 0x44, 0x00, 0x02, 0x89, 0x2A, 0x00, 0x00, 0x89,
	0x24, 0x00, 0x01, 0x88, 0x41, 0x00, 0x00, 0x87, 0x1D, 0x00, 0x11, 0x9B,
	0x47, 0x40, 0x00, 0x9A, 0x43, 0x40, 0x00, 0x99, 0x2A, 0x4D, 0x00, 0x99,
	0x24, 0x56, 0x00, 0x98, 0x41, 0x40, 0x00, 0x97, 0x1D, 0x74, 0x0A, 0x89,
	0x24, 0x00, 0x02, 0x89, 0x2A, 0x00, 0x10, 0x99, 0x24, 0x62, 0x0B, 0x89,
	0x24, 0x00, 0x11, 0x99, 0x2A, 0x65, 0x0B, 0x89, 0x2A, 0x00, 0x01, 0x8B,
	0x47, 0x00, 0x00, 0x8A, 0x43, 0x00, 0x02, 0x88, 0x41, 0x00, 0x0E, 0x9B,
	0x48, 0x40, 0x00, 0x9A, 0x44, 0x40, 0x00, 0x99, 0x24, 0x59, 0x00, 0x98,
	0x41, 0x40, 0x06, 0x8A, 0x44, 0x00, 0x02, 0x88, 0x41, 0x00, 0x01, 0x8B,
	0x48, 0x00, 0x02, 0x89, 0x24, 0x00, 0x11, 0x9B, 0x48, 0x40, 0x00, 0x9A,
	0x44, 0x40, 0x00, 0x99, 0x2A, 0x62, 0x00, 0x99, 0x28, 0x68, 0x00, 0x98,
	0x41, 0x40, 0x0C, 0x89, 0x2A, 0x00, 0x01, 0x89, 0x28, 0x00, 0x2B, 0x99,
	0x2A, 0x59, 0x0B, 0x89, 0x2A, 0x00, 0x0F, 0x87, 0x1D, 0x00, 0x02, 0x99,
	0x2A, 0x38, 0x00, 0x99, 0x24, 0x59, 0x08, 0x89, 0x2A, 0x00, 0x01, 0x89,
	0x24, 0x00, 0x01, 0x88, 0x41, 0x00, 0x01, 0x8B, 0x48, 0x00, 0x00, 0x8A,
	0x44, 0x00, 0x11, 0x9B, 0x48, 0x40, 0x00, 0x9A, 0x44, 0x40, 0x00, 0x99,
	0x2A, 0x4A, 0x00, 0x99, 0x24, 0x74, 0x00, 0x98, 0x41, 0x40, 0x00, 0x97,
	0x1D, 0x68, 0x0B, 0x89, 0x24, 0x00, 0x01, 0x89, 0x2A, 0x00, 0x1B, 0x8A,
	0x44, 0x00, 0x01, 0x8B, 0x48, 0x00, 0x00, 0x88, 0x41, 0x00, 0x10, 0x9B,
	0x48, 0x40, 0x00, 0x9A, 0x44, 0x40, 0x00, 0x99, 0x2A, 0x5F, 0x00, 0x99,
	0x24, 0x68, 0x00, 0x98, 0x41, 0x40, 0x0C, 0x89, 0x2A, 0x00, 0x01, 0x8B,
	0x48, 0x00, 0x00, 0x89, 0x24, 0x00, 0x01, 0x8A, 0x44, 0x00, 0x01, 0x88,
	0x41, 0x00, 0x0D, 0x9B, 0x49, 0x40, 0x00, 0x9A, 0x46, 0x40, 0x00, 0x98,
	0x41, 0x40, 0x0A, 0x8B, 0x49, 0x00, 0x00, 0x88, 0x41, 0x00, 0x01, 0x8A,
	0x46, 0x00, 0x11, 0x9B, 0x49, 0x40, 0x00, 0x9A, 0x46, 0x40, 0x00, 0x99,
	0x2A, 0x59, 0x00, 0x99, 0x28, 0x74, 0x00, 0x98, 0x41, 0x40, 0x09, 0x8B,
	0x49, 0x00, 0x02, 0x89, 0x2A, 0x00, 0x00, 0x88, 0x41, 0x00, 0x01, 0x8A,
	0x46, 0x00, 0x01, 0x89, 0x28, 0x00, 0x0F, 0x9B, 0x48, 0x40, 0x00, 0x9A,
	0x44, 0x40, 0x00, 0x99, 0x2A, 0x3B, 0x00, 0x98, 0x41, 0x40, 0x0B, 0x89,
	0x2A, 0x00, 0x11, 0x99, 0x2A, 0x41, 0x07, 0x87, 0x1D, 0x00, 0x03, 0x89,
	0x2A, 0x00, 0x12, 0x99, 0x2A, 0x41, 0x00, 0x99, 0x24, 0x68, 0x00, 0x97,
	0x1D, 0x62, 0x04, 0x8A, 0x44, 0x00, 0x01, 0x8B, 0x48, 0x00, 0x03, 0x88,
	0x41, 0x00, 0x01, 0x89, 0x2A, 0x00, 0x02, 0x89, 0x24, 0x00, 0x00, 0x87,
	0x1D, 0x00, 0x11, 0x9B, 0x47, 0x40, 0x00, 0x9A, 0x43, 0x40, 0x00, 0x99,
	0x2A, 0x4A, 0x00, 0x99, 0x24, 0x4D, 0x00, 0x98, 0x41, 0x40, 0x00, 0x97,
	0x1D, 0x6E, 0x0A, 0x89, 0x24, 0x00, 0x01, 0x89, 0x2A, 0x00, 0x11, 0x99,
	0x24, 0x56, 0x09, 0x89, 0x24, 0x00, 0x13, 0x99, 0x2A, 0x5F, 0x00, 0x99,
	0x24, 0x68, 0x01, 0x8A, 0x43, 0x00, 0x01, 0x8B, 0x47, 0x00, 0x01, 0x88,
	0x41, 0x00, 0x08, 0x89, 0x2A, 0x00, 0x01, 0x89, 0x24, 0x00, 0x10, 0x9B,
	0x48, 0x40, 0x00, 0x9A, 0x44, 0x40, 0x00, 0x98, 0x41, 0x40, 0x07, 0x8A,
	0x44, 0x00, 0x00, 0x88, 0x41, 0x00, 0x01, 0x8B, 0x48, 0x00, 0x14, 0x9B,
	0x48, 0x40, 0x00, 0x9A, 0x44, 0x40, 0x00, 0x99, 0x2A, 0x59, 0x00, 0x99,
	0x28, 0x74, 0x00, 0x98, 0x41, 0x40, 0x0C, 0x89, 0x2A, 0x00, 0x01, 0x89,
	0x28, 0x00, 0x2B, 0x99, 0x2A, 0x4A, 0x0C, 0x89, 0x2A, 0x00, 0x02, 0x87,
	0x1D, 0x00, 0x0E, 0x99, 0x2E, 0x32, 0x00, 0x99, 0x24, 0x4D, 0x09, 0x89,
	0x24, 0x00, 0x01, 0x8B, 0x48, 0x00, 0x00, 0x8A, 0x44, 0x00, 0x00, 0x88,
	0x41, 0x00, 0x03, 0x89, 0x2E, 0x00, 0x0F, 0x9B, 0x4D, 0x40, 0x00, 0x9A,
	0x49, 0x40, 0x00, 0x99, 0x2A, 0x47, 0x00, 0x99, 0x24, 0x68, 0x00, 0x98,
	0x46, 0x40, 0x00, 0x97, 0x22, 0x74, 0x0B, 0x89, 0x24, 0x00, 0x02, 0x89,
	0x2A, 0x00, 0x1D, 0x8B, 0x4D, 0x00, 0x00, 0x8A, 0x49, 0x00, 0x00, 0x88,
	0x46, 0x00, 0x0E, 0x9B, 0x4D, 0x40, 0x00, 0x9A, 0x49, 0x40, 0x00, 0x99,
	0x2A, 0x4D, 0x00, 0x98, 0x46, 0x40, 0x0A, 0x89, 0x2A, 0x00, 0x01, 0x8B,
	0x4D, 0x00, 0x01, 0x8A, 0x49, 0x00, 0x02, 0x88, 0x46, 0x00, 0x0E, 0x9B,
	0x4E, 0x40, 0x00, 0x9A, 0x4B, 0x40, 0x00, 0x99, 0x24, 0x53, 0x00, 0x98,
	0x46, 0x40, 0x0B, 0x8B, 0x4E, 0x00, 0x00, 0x8A, 0x4B, 0x00, 0x00, 0x89,
	0x24, 0x00, 0x02, 0x88, 0x46, 0x00, 0x0F, 0x9B, 0x4E, 0x40, 0x00, 0x9A,
	0x4B, 0x40, 0x00, 0x99, 0x2A, 0x4D, 0x00, 0x99, 0x28, 0x70, 0x00, 0x98,
	0x46, 0x40, 0x09, 0x89, 0x2A, 0x00, 0x01, 0x8B, 0x4E, 0x00, 0x02, 0x8A,
	0x4B, 0x00, 0x00, 0x88, 0x46, 0x00, 0x02, 0x89, 0x28, 0x00, 0x0E, 0x9B,
	0x4D, 0x40, 0x00, 0x9A, 0x49, 0x40, 0x00, 0x99, 0x2A, 0x4D, 0x00, 0x98,
	0x46, 0x40, 0x09, 0x89, 0x2A, 0x00, 0x13, 0x99, 0x2A, 0x4D, 0x06, 0x87,
	0x22, 0x00, 0x03, 0x89, 0x2A, 0x00, 0x13, 0x99, 0x2A, 0x47, 0x00, 0x99,
	0x24, 0x53, 0x00, 0x97, 0x22, 0x5F, 0x09, 0x89, 0x2A, 0x00, 0x01, 0x8A,
	0x49, 0x00, 0x00, 0x89, 0x24, 0x00, 0x00, 0x87, 0x22, 0x00, 0x01, 0x8B,
	0x4D, 0x00, 0x01, 0x88, 0x46, 0x00, 0x10, 0x9B, 0x4C, 0x40, 0x00, 0x9A,
	0x48, 0x40, 0x00, 0x99, 0x2A, 0x47, 0x00, 0x99, 0x24, 0x50, 0x00, 0x98,
	0x46, 0x40, 0x00, 0x97, 0x22, 0x72, 0x08, 0x89, 0x24, 0x00, 0x03, 0x89,
	0x2A, 0x00, 0x11, 0x99, 0x24, 0x4D, 0x09, 0x89, 0x24, 0x00, 0x13, 0x99,
	0x2A, 0x4D, 0x00, 0x99, 0x24, 0x50, 0x0A, 0x8A, 0x48, 0x00, 0x00, 0x89,
	0x2A, 0x00, 0x01, 0x8B, 0x4C, 0x00, 0x02, 0x89, 0x24, 0x00, 0x00, 0x88,
	0x46, 0x00, 0x0F, 0x9B, 0x4D, 0x40, 0x00, 0x9A, 0x49, 0x40, 0x00, 0x98,
	0x46, 0x40, 0x09, 0x88, 0x46, 0x00, 0x01, 0x8A, 0x49, 0x00, 0x01, 0x8B,
	0x4D, 0x00, 0x11, 0x9B, 0x4D, 0x40, 0x00, 0x9A, 0x49, 0x40, 0x00, 0x99,
	0x2A, 0x62, 0x00, 0x99, 0x28, 0x68, 0x00, 0x98, 0x46, 0x40, 0x0A, 0x89,
	0x2A, 0x00, 0x03, 0x89, 0x28, 0x00, 0x2B, 0x99, 0x2A, 0x41, 0x08, 0x89,
	0x2A, 0x00, 0x13, 0x87, 0x22, 0x00, 0x01, 0x99, 0x2A, 0x53, 0x00, 0x99,
	0x24, 0x47, 0x09, 0x89, 0x2A, 0x00, 0x00, 0x89, 0x24, 0x00, 0x02, 0x8A,
	0x49, 0x00, 0x00, 0x88, 0x46, 0x00, 0x01, 0x8B, 0x4D, 0x00, 0x10, 0x9B,
	0x4D, 0x40, 0x00, 0x9A, 0x49, 0x40, 0x00, 0x99, 0x2A, 0x47, 0x00, 0x99,
	0x24, 0x62, 0x00, 0x98, 0x46, 0x40, 0x00, 0x97, 0x22, 0x74, 0x0B, 0x89,
	0x2A, 0x00, 0x01, 0x89, 0x24, 0x00, 0x1D, 0x8A, 0x49, 0x00, 0x00, 0x88,
	0x46, 0x00, 0x01, 0x8B, 0x4D, 0x00, 0x0E, 0x9B, 0x4D, 0x40, 0x00, 0x9A,
	0x49, 0x40, 0x00, 0x99, 0x2A, 0x59, 0x00, 0x99, 0x24, 0x62, 0x00, 0x98,
	0x46, 0x40, 0x0B, 0x89, 0x2A, 0x00, 0x01, 0x8A, 0x49, 0x00, 0x00, 0x89,
	0x24, 0x00, 0x01, 0x8B, 0x4D, 0x00, 0x02, 0x88, 0x46, 0x00, 0x0D, 0x9B,
	0x4E, 0x40, 0x00, 0x9A, 0x4B, 0x40, 0x00, 0x98, 0x46, 0x40, 0x08, 0x8B,
	0x4E, 0x00, 0x00, 0x8A, 0x4B, 0x00, 0x01, 0x88, 0x46, 0x00, 0x13, 0x9B,
	0x4E, 0x40, 0x00, 0x9A, 0x4B, 0x40, 0x00, 0x99, 0x2A, 0x4D, 0x00, 0x99,
	0x28, 0x72, 0x00, 0x98, 0x46, 0x40, 0x0A, 0x8B, 0x4E, 0x00, 0x00, 0x88,
	0x46, 0x00, 0x01, 0x8A, 0x4B, 0x00, 0x00, 0x89, 0x2A, 0x00, 0x02, 0x89,
	0x28, 0x00, 0x0F, 0x9B, 0x4D, 0x40, 0x00, 0x9A, 0x49, 0x40, 0x00, 0x98,
	0x46, 0x40, 0x1C, 0x99, 0x2A, 0x44, 0x09, 0x89, 0x2A, 0x00, 0x00, 0x87,
	0x22, 0x00, 0x13, 0x99, 0x2A, 0x47, 0x00, 0x99, 0x24, 0x5C, 0x00, 0x97,
	0x22, 0x59, 0x07, 0x8B, 0x4D, 0x00, 0x01, 0x8A, 0x49, 0x00, 0x00, 0x88,
	0x46, 0x00, 0x02, 0x89, 0x2A, 0x00, 0x01, 0x87, 0x22, 0x00, 0x01, 0x89,
	0x24, 0x00, 0x10, 0x9B, 0x4C, 0x40, 0x00, 0x9A, 0x48, 0x40, 0x00, 0x99,
	0x2A, 0x65, 0x00, 0x99, 0x24, 0x44, 0x00, 0x98, 0x46, 0x40, 0x00, 0x97,
	0x22, 0x74, 0x0A, 0x89, 0x24, 0x00, 0x03, 0x89, 0x2A, 0x00, 0x0F, 0x99,
	0x24, 0x4D, 0x0B, 0x89, 0x24, 0x00, 0x11, 0x99, 0x2A, 0x59, 0x00, 0x99,
	0x24, 0x53, 0x09, 0x89, 0x24, 0x00, 0x01, 0x8B, 0x4C, 0x00, 0x00, 0x8A,
	0x48, 0x00, 0x01, 0x89, 0x2A, 0x00, 0x01, 0x88, 0x46, 0x00, 0x10, 0x9B,
	0x4D, 0x40, 0x00, 0x9A, 0x49, 0x40, 0x00, 0x99, 0x24, 0x5C, 0x00, 0x98,
	0x46, 0x40, 0x05, 0x8B, 0x4D, 0x00, 0x00, 0x88, 0x46, 0x00, 0x01, 0x8A,
	0x49, 0x00, 0x05, 0x89, 0x24, 0x00, 0x11, 0x9B, 0x4D, 0x40, 0x00, 0x9A,
	0x49, 0x40, 0x00, 0x99, 0x2A, 0x70, 0x00, 0x99, 0x28, 0x68, 0x00, 0x98,
	0x46, 0x40, 0x0A, 0x89, 0x2A, 0x00, 0x04, 0x89, 0x28, 0x00, 0x0E, 0x99,
	0x2A, 0x4D, 0x0A, 0x89, 0x2A, 0x00, 0x12, 0x99, 0x2A, 0x53, 0x00, 0x99,
	0x28, 0x68, 0x0C, 0x89, 0x2A, 0x00, 0x02, 0x89, 0x28, 0x00, 0x0C, 0x87,
	0x22, 0x00, 0x02, 0x99, 0x2E, 0x47, 0x00, 0x99, 0x24, 0x62, 0x09, 0x89,
	0x24, 0x00, 0x01, 0x8A, 0x49, 0x00, 0x00, 0x88, 0x46, 0x00, 0x01, 0x8B,
	0x4D, 0x00, 0x01, 0x89, 0x2E, 0x00, 0x10, 0x9B, 0x44, 0x40, 0x00, 0x9A,
	0x48, 0x40, 0x00, 0x99, 0x2A, 0x56, 0x00, 0x99, 0x24, 0x62, 0x00, 0x98,
	0x41, 0x40, 0x00, 0x97, 0x1D, 0x5C, 0x0C, 0x89, 0x24, 0x00, 0x02, 0x89,
	0x2A, 0x00, 0x1B, 0x88, 0x41, 0x00, 0x01, 0x8B, 0x44, 0x00, 0x00, 0x8A,
	0x48, 0x00, 0x0E, 0x9B, 0x44, 0x40, 0x00, 0x9A, 0x48, 0x40, 0x00, 0x99,
	0x2A, 0x44, 0x00, 0x99, 0x24, 0x68, 0x00, 0x98, 0x41, 0x40, 0x09, 0x89,
	0x2A, 0x00, 0x03, 0x89, 0x24, 0x00, 0x01, 0x8A, 0x48, 0x00, 0x01, 0x8B,
	0x44, 0x00, 0x01, 0x88, 0x41, 0x00, 0x0D, 0x9B, 0x46, 0x40, 0x00, 0x9A,
	0x49, 0x40, 0x00, 0x99, 0x2A, 0x35, 0x00, 0x98, 0x41, 0x40, 0x09, 0x8A,
	0x49, 0x00, 0x01, 0x8B, 0x46, 0x00, 0x00, 0x89, 0x2A, 0x00, 0x00, 0x88,
	0x41, 0x00, 0x12, 0x9B, 0x46, 0x40, 0x00, 0x9A, 0x49, 0x40, 0x00, 0x99,
	0x2A, 0x56, 0x00, 0x99, 0x28, 0x6E, 0x00, 0x98, 0x41, 0x40, 0x09, 0x8A,
	0x49, 0x00, 0x01, 0x8B, 0x46, 0x00, 0x00, 0x88, 0x41, 0x00, 0x02, 0x89,
	0x2A, 0x00, 0x01, 0x89, 0x28, 0x00, 0x0F, 0x9B, 0x44, 0x40, 0x00, 0x9A,
	0x48, 0x40, 0x00, 0x98, 0x41, 0x40, 0x1C, 0x99, 0x2A, 0x4D, 0x00, 0x87,
	0x1D, 0x00, 0x09, 0x89, 0x2A, 0x00, 0x13, 0x99, 0x2A, 0x4A, 0x00, 0x99,
	0x24, 0x47, 0x00, 0x97, 0x1D, 0x4D, 0x08, 0x8B, 0x44, 0x00, 0x00, 0x8A,
	0x48, 0x00, 0x01, 0x89, 0x2A, 0x00, 0x01, 0x89, 0x24, 0x00, 0x01, 0x88,
	0x41, 0x00, 0x00, 0x87, 0x1D, 0x00, 0x11, 0x9B, 0x43, 0x40, 0x00, 0x9A,
	0x47, 0x40, 0x00, 0x99, 0x2A, 0x56, 0x00, 0x99, 0x24, 0x5C, 0x00, 0x98,
	0x41, 0x40, 0x00, 0x97, 0x1D, 0x62, 0x0C, 0x89, 0x2A, 0x00, 0x01, 0x89,
	0x24, 0x00, 0x2B, 0x99, 0x2A, 0x59, 0x00, 0x99, 0x24, 0x68, 0x0B, 0x89,
	0x2A, 0x00, 0x01, 0x8B, 0x43, 0x00, 0x00, 0x8A, 0x47, 0x00, 0x01, 0x89,
	0x24, 0x00, 0x01, 0x88, 0x41, 0x00, 0x0E, 0x9B, 0x44, 0x40, 0x00, 0x9A,
	0x48, 0x40, 0x00, 0x98, 0x41, 0x40, 0x06, 0x8B, 0x44, 0x00, 0x02, 0x88,
	0x41, 0x00, 0x01, 0x8A, 0x48, 0x00, 0x13, 0x9B, 0x44, 0x40, 0x00, 0x9A,
	0x48, 0x40, 0x00, 0x99, 0x2A, 0x4D, 0x00, 0x99, 0x28, 0x62, 0x00, 0x98,
	0x41, 0x40, 0x0A, 0x89, 0x2A, 0x00, 0x04, 0x89, 0x28, 0x00, 0x2A, 0x99,
	0x2A, 0x53, 0x09, 0x89, 0x2A, 0x00, 0x11, 0x87, 0x1D, 0x00, 0x02, 0x99,
	0x2A, 0x53, 0x00, 0x99, 0x24, 0x4D, 0x09, 0x89, 0x2A, 0x00, 0x01, 0x89,
	0x24, 0x00, 0x00, 0x88, 0x41, 0x00, 0x01, 0x8B, 0x44, 0x00, 0x00, 0x8A,
	0x48, 0x00, 0x11, 0x9B, 0x44, 0x40, 0x00, 0x9A, 0x48, 0x40, 0x00, 0x99,
	0x2A, 0x62, 0x00, 0x99, 0x24, 0x68, 0x00, 0x98, 0x41, 0x40, 0x00, 0x97,
	0x1D, 0x70, 0x0B, 0x89, 0x2A, 0x00, 0x02, 0x89, 0x24, 0x00, 0x1A, 0x8B,
	0x44, 0x00, 0x01, 0x8A, 0x48, 0x00, 0x00, 0x88, 0x41, 0x00, 0x10, 0x9B,
	0x44, 0x40, 0x00, 0x9A, 0x48, 0x40, 0x00, 0x99, 0x2A, 0x53, 0x00, 0x99,
	0x24, 0x65, 0x00, 0x98, 0x41, 0x40, 0x0A, 0x89, 0x2A, 0x00, 0x02, 0x89,
	0x24, 0x00, 0x01, 0x8A, 0x48, 0x00, 0x01, 0x8B, 0x44, 0x00, 0x01, 0x88,
	0x41, 0x00, 0x0D, 0x9B, 0x46, 0x40, 0x00, 0x9A, 0x49, 0x40, 0x00, 0x99,
	0x2A, 0x53, 0x00, 0x98, 0x41, 0x40, 0x0A, 0x8A, 0x49, 0x00, 0x00, 0x89,
	0x2A, 0x00, 0x00, 0x88, 0x41, 0x00, 0x01, 0x8B, 0x46, 0x00, 0x11, 0x9B,
	0x46, 0x40, 0x00, 0x9A, 0x49, 0x40, 0x00, 0x99, 0x2A, 0x65, 0x00, 0x99,
	0x28, 0x68, 0x00, 0x98, 0x41, 0x40, 0x09, 0x8A, 0x49, 0x00, 0x02, 0x88,
	0x41, 0x00, 0x01, 0x8B, 0x46, 0x00, 0x00, 0x89, 0x2A, 0x00, 0x02, 0x89,
	0x28, 0x00, 0x0E, 0x9B, 0x44, 0x40, 0x00, 0x9A, 0x48, 0x40, 0x00, 0x98,
	0x41, 0x40, 0x1C, 0x99, 0x2A, 0x59, 0x06, 0x87, 0x1D, 0x00, 0x06, 0x89,
	0x2A, 0x00, 0x10, 0x99, 0x24, 0x50, 0x00, 0x97, 0x1D, 0x5C, 0x04, 0x8B,
	0x44, 0x00, 0x01, 0x8A, 0x48, 0x00, 0x03, 0x88, 0x41, 0x00, 0x02, 0x89,
	0x24, 0x00, 0x01, 0x87, 0x1D, 0x00, 0x11, 0x9B, 0x43, 0x40, 0x00, 0x9A,
	0x47, 0x40, 0x00, 0x99, 0x2A, 0x65, 0x00, 0x99, 0x24, 0x5C, 0x00, 0x98,
	0x41, 0x40, 0x00, 0x97, 0x1D, 0x62, 0x0B, 0x89, 0x2A, 0x00, 0x01, 0x89,
	0x24, 0x00, 0x2C, 0x99, 0x2A, 0x53, 0x00, 0x99, 0x24, 0x68, 0x01, 0x8B,
	0x43, 0x00, 0x01, 0x8A, 0x47, 0x00, 0x01, 0x88, 0x41, 0x00, 0x06, 0x89,
	0x2A, 0x00, 0x02, 0x89, 0x24, 0x00, 0x11, 0x9B, 0x44, 0x40, 0x00, 0x9A,
	0x48, 0x40, 0x00, 0x99, 0x2A, 0x53, 0x00, 0x98, 0x41, 0x40, 0x07, 0x8B,
	0x44, 0x00, 0x00, 0x88, 0x41, 0x00, 0x01, 0x8A, 0x48, 0x00, 0x02, 0x89,
	0x2A, 0x00, 0x12, 0x9B, 0x44, 0x40, 0x00, 0x9A, 0x48, 0x40, 0x00, 0x99,
	0x2A, 0x62, 0x00, 0x99, 0x24, 0x74, 0x00, 0x98, 0x41, 0x40, 0x0A, 0x89,
	0x2A, 0x00, 0x03, 0x89, 0x24, 0x00, 0x0F, 0x99, 0x2A, 0x4D, 0x0A, 0x89,
	0x2A, 0x00, 0x12, 0x99, 0x2A, 0x59, 0x00, 0x99, 0x28, 0x74, 0x0B, 0x89,
	0x2A, 0x00, 0x02, 0x89, 0x28, 0x00, 0x0F, 0x99, 0x2E, 0x5F, 0x07, 0x87,
	0x1D, 0x00, 0x03, 0x8B, 0x44, 0x00, 0x00, 0x8A, 0x48, 0x00, 0x00, 0x88,
	0x41, 0x00, 0x02, 0x89, 0x2E, 0x00, 0x10, 0x9B, 0x43, 0x40, 0x00, 0x9A,
	0x46, 0x40, 0x00, 0x99, 0x2A, 0x65, 0x00, 0x99, 0x24, 0x6E, 0x00, 0x98,
	0x3F, 0x40, 0x00, 0x97, 0x1B, 0x68, 0x0C, 0x89, 0x2A, 0x00, 0x02, 0x89,
	0x24, 0x00, 0x2A, 0x99, 0x2A, 0x4A, 0x00, 0x99, 0x24, 0x68, 0x05, 0x8B,
	0x43, 0x00, 0x00, 0x8A, 0x46, 0x00, 0x02, 0x88, 0x3F, 0x00, 0x03, 0x89,
	0x2A, 0x00, 0x03, 0x89, 0x24, 0x00, 0x0F, 0x9B, 0x44, 0x40, 0x00, 0x9A,
	0x47, 0x40, 0x00, 0x99, 0x2A, 0x3E, 0x00, 0x98, 0x3F, 0x40, 0x09, 0x8B,
	0x44, 0x00, 0x00, 0x8A, 0x47, 0x00, 0x01, 0x89, 0x2A, 0x00, 0x01, 0x88,
	0x3F, 0x00, 0x11, 0x9B, 0x44, 0x40, 0x00, 0x9A, 0x47, 0x40, 0x00, 0x99,
	0x2A, 0x59, 0x00, 0x99, 0x28, 0x74, 0x00, 0x98, 0x3F, 0x40, 0x0A, 0x8B,
	0x44, 0x00, 0x01, 0x8A, 0x47, 0x00, 0x00, 0x89, 0x2A, 0x00, 0x02, 0x89,
	0x28, 0x00, 0x00, 0x88, 0x3F, 0x00, 0x0F, 0x9B, 0x43, 0x40, 0x00, 0x9A,
	0x46, 0x40, 0x00, 0x98, 0x3F, 0x40, 0x1C, 0x99, 0x2A, 0x59, 0x04, 0x87,
	0x1B, 0x00, 0x05, 0x89, 0x2A, 0x00, 0x13, 0x99, 0x2A, 0x47, 0x00, 0x99,
	0x24, 0x68, 0x00, 0x97, 0x1B, 0x62, 0x09, 0x89, 0x2A, 0x00, 0x01, 0x89,
	0x24, 0x00, 0x03, 0x87, 0x1B, 0x00, 0x06, 0x8B, 0x43, 0x00, 0x00, 0x8A,
	0x46, 0x00, 0x00, 0x88, 0x3F, 0x00, 0x09, 0x9B, 0x44, 0x40, 0x00, 0x9A,
	0x48, 0x40, 0x00, 0x99, 0x2A, 0x56, 0x00, 0x99, 0x24, 0x70, 0x00, 0x98,
	0x41, 0x40, 0x00, 0x97, 0x1D, 0x68, 0x0A, 0x89, 0x24, 0x00, 0x01, 0x89,
	0x2A, 0x00, 0x1E, 0x88, 0x41, 0x00, 0x01, 0x8B, 0x44, 0x00, 0x00, 0x8A,
	0x48, 0x00, 0x0E, 0x9B, 0x44, 0x40, 0x00, 0x9A, 0x48, 0x40, 0x00, 0x99,
	0x2A, 0x59, 0x00, 0x99, 0x24, 0x62, 0x00, 0x98, 0x41, 0x40, 0x0B, 0x89,
	0x24, 0x00, 0x01, 0x89, 0x2A, 0x00, 0x01, 0x8A, 0x48, 0x00, 0x01, 0x8B,
	0x44, 0x00, 0x01, 0x88, 0x41, 0x00, 0x0D, 0x9B, 0x46, 0x40, 0x00, 0x9A,
	0x49, 0x40, 0x00, 0x98, 0x41, 0x40, 0x09, 0x8A, 0x49, 0x00, 0x01, 0x8B,
	0x46, 0x00, 0x00, 0x88, 0x41, 0x00, 0x12, 0x9B, 0x46, 0x40, 0x00, 0x9A,
	0x49, 0x40, 0x00, 0x99, 0x2A, 0x65, 0x00, 0x99, 0x28, 0x72, 0x00, 0x98,
	0x41, 0x40, 0x09, 0x8A, 0x49, 0x00, 0x01, 0x8B, 0x46, 0x00, 0x00, 0x89,
	0x2A, 0x00, 0x00, 0x88, 0x41, 0x00, 0x02, 0x89, 0x28, 0x00, 0x10, 0x9B,
	0x44, 0x40, 0x00, 0x9A, 0x48, 0x40, 0x00, 0x99, 0x2A, 0x4A, 0x00, 0x98,
	0x41, 0x40, 0x0A, 0x89, 0x2A, 0x00, 0x12, 0x99, 0x2A, 0x56, 0x02, 0x87,
	0x1D, 0x00, 0x08, 0x89, 0x2A, 0x00, 0x12, 0x99, 0x2A, 0x4D, 0x00, 0x99,
	0x24, 0x4D, 0x00, 0x97, 0x1D, 0x62, 0x08, 0x8B, 0x44, 0x00, 0x00, 0x8A,
	0x48, 0x00, 0x01, 0x89, 0x2A, 0x00, 0x00, 0x89, 0x24, 0x00, 0x02, 0x88,
	0x41, 0x00, 0x03, 0x87, 0x1D, 0x00, 0x0E, 0x9B, 0x43, 0x40, 0x00, 0x9A,
	0x46, 0x40, 0x00, 0x99, 0x2A, 0x59, 0x00, 0x99, 0x24, 0x70, 0x00, 0x98,
	0x3F, 0x40, 0x00, 0x97, 0x1B, 0x56, 0x0B, 0x89, 0x2A, 0x00, 0x00, 0x89,
	0x24, 0x00, 0x2D, 0x99, 0x2A, 0x70, 0x00, 0x99, 0x24, 0x70, 0x05, 0x8B,
	0x43, 0x00, 0x00, 0x8A, 0x46, 0x00, 0x02, 0x88, 0x3F, 0x00, 0x04, 0x89,
	0x2A, 0x00, 0x00, 0x89, 0x24, 0x00, 0x11, 0x9B, 0x44, 0x40, 0x00, 0x9A,
	0x47, 0x40, 0x00, 0x98, 0x3F, 0x40, 0x09, 0x8B, 0x44, 0x00, 0x00, 0x8A,
	0x47, 0x00, 0x02, 0x88, 0x3F, 0x00, 0x11, 0x9B, 0x44, 0x40, 0x00, 0x9A,
	0x47, 0x40, 0x00, 0x99, 0x2A, 0x68, 0x00, 0x99, 0x28, 0x74, 0x00, 0x98,
	0x3F, 0x40, 0x0A, 0x8B, 0x44, 0x00, 0x01, 0x8A, 0x47, 0x00, 0x01, 0x89,
	0x2A, 0x00, 0x01, 0x89, 0x28, 0x00, 0x00, 0x88, 0x3F, 0x00, 0x0F, 0x9B,
	0x43, 0x40, 0x00, 0x9A, 0x46, 0x40, 0x00, 0x98, 0x3F, 0x40, 0x1C, 0x99,
	0x2A, 0x4D, 0x06, 0x87, 0x1B, 0x00, 0x04, 0x89, 0x2A, 0x00, 0x12, 0x99,
	0x2A, 0x47, 0x00, 0x99, 0x24, 0x4D, 0x00, 0x97, 0x1B, 0x5F, 0x0A, 0x89,
	0x2A, 0x00, 0x01, 0x89, 0x24, 0x00, 0x03, 0x87, 0x1B, 0x00, 0x05, 0x8B,
	0x43, 0x00, 0x00, 0x8A, 0x46, 0x00, 0x00, 0x88, 0x3F, 0x00, 0x09, 0x9B,
	0x44, 0x40, 0x00, 0x9A, 0x48, 0x40, 0x00, 0x99, 0x2A, 0x70, 0x00, 0x99,
	0x24, 0x4D, 0x00, 0x98, 0x41, 0x40, 0x00, 0x97, 0x1D, 0x5C, 0x09, 0x89,
	0x24, 0x00, 0x04, 0x89, 0x2A, 0x00, 0x0F, 0x99, 0x24, 0x50, 0x08, 0x89,
	0x24, 0x00, 0x05, 0x88, 0x41, 0x00, 0x01, 0x8B, 0x44, 0x00, 0x00, 0x8A,
	0x48, 0x00, 0x0E, 0x9B, 0x44, 0x40, 0x00, 0x9A, 0x48, 0x40, 0x00, 0x99,
	0x2A, 0x62, 0x00, 0x99, 0x24, 0x72, 0x00, 0x98, 0x41, 0x40, 0x0B, 0x89,
	0x2A, 0x00, 0x01, 0x89, 0x24, 0x00, 0x01, 0x8A, 0x48, 0x00, 0x01, 0x8B,
	0x44, 0x00, 0x01, 0x88, 0x41, 0x00, 0x0D, 0x9B, 0x46, 0x40, 0x00, 0x9A,
	0x49, 0x40, 0x00, 0x98, 0x41, 0x40, 0x09, 0x8A, 0x49, 0x00, 0x01, 0x8B,
	0x46, 0x00, 0x00, 0x88, 0x41, 0x00, 0x12, 0x9B, 0x46, 0x40, 0x00, 0x9A,
	0x49, 0x40, 0x00, 0x99, 0x2A, 0x59, 0x00, 0x99, 0x28, 0x7C, 0x00, 0x98,
	0x41, 0x40, 0x09, 0x8A, 0x49, 0x00, 0x01, 0x8B, 0x46, 0x00, 0x00, 0x88,
	0x41, 0x00, 0x02, 0x89, 0x2A, 0x00, 0x01, 0x89, 0x28, 0x00, 0x0F, 0x9B,
	0x44, 0x40, 0x00, 0x9A, 0x48, 0x40, 0x00, 0x98, 0x41, 0x40, 0x1C, 0x99,
	0x2A, 0x47, 0x07, 0x87, 0x1D, 0x00, 0x02, 0x89, 0x2A, 0x00, 0x13, 0x99,
	0x2A, 0x4A, 0x00, 0x99, 0x24, 0x5C, 0x00, 0x97, 0x1D, 0x50, 0x08, 0x8B,
	0x44, 0x00, 0x00, 0x8A, 0x48, 0x00, 0x01, 0x89, 0x24, 0x00, 0x01, 0x89,
	0x2A, 0x00, 0x01, 0x88, 0x41, 0x00, 0x03, 0x87, 0x1D, 0x00, 0x0E, 0x9B,
	0x43, 0x40, 0x00, 0x9A, 0x46, 0x40, 0x00, 0x99, 0x2A, 0x41, 0x00, 0x99,
	0x24, 0x74, 0x00, 0x98, 0x3F, 0x40, 0x00, 0x97, 0x1B, 0x5F, 0x0A, 0x89,
	0x2A, 0x00, 0x01, 0x89, 0x24, 0x00, 0x11, 0x99, 0x2A, 0x35, 0x09, 0x89,
	0x2A, 0x00, 0x13, 0x99, 0x2A, 0x4D, 0x00, 0x99, 0x24, 0x5C, 0x05, 0x8B,
	0x43, 0x00, 0x00, 0x8A, 0x46, 0x00, 0x02, 0x88, 0x3F, 0x00, 0x05, 0x89,
	0x24, 0x00, 0x01, 0x89, 0x2A, 0x00, 0x0F, 0x9B, 0x44, 0x40, 0x00, 0x9A,
	0x47, 0x40, 0x00, 0x98, 0x3F, 0x40, 0x09, 0x8B, 0x44, 0x00, 0x00, 0x8A,
	0x47, 0x00, 0x02, 0x88, 0x3F, 0x00, 0x11, 0x9B, 0x44, 0x40, 0x00, 0x9A,
	0x47, 0x40, 0x00, 0x99, 0x2A, 0x59, 0x00, 0x99, 0x28, 0x6E, 0x00, 0x98,
	0x3F, 0x40, 0x0A, 0x8B, 0x44, 0x00, 0x01, 0x8A, 0x47, 0x00, 0x01, 0x89,
	0x2A, 0x00, 0x00, 0x89, 0x28, 0x00, 0x01, 0x88, 0x3F, 0x00, 0x0F, 0x9B,
	0x43, 0x40, 0x00, 0x9A, 0x46, 0x40, 0x00, 0x98, 0x3F, 0x40, 0x1B, 0x87,
	0x1B, 0x00, 0x01, 0x99, 0x2A, 0x53, 0x08, 0x89, 0x2A, 0x00, 0x14, 0x99,
	0x2A, 0x41, 0x00, 0x99, 0x24, 0x53, 0x00, 0x97, 0x1B, 0x6E, 0x09, 0x89,
	0x2A, 0x00, 0x00, 0x89, 0x24, 0x00, 0x05, 0x87, 0x1B, 0x00, 0x05, 0x8B,
	0x43, 0x00, 0x00, 0x8A, 0x46, 0x00, 0x00, 0x88, 0x3F, 0x00, 0x09, 0x9B,
	0x44, 0x40, 0x00, 0x9A, 0x48, 0x40, 0x00, 0x99, 0x2A, 0x4A, 0x00, 0x99,
	0x24, 0x5C, 0x00, 0x98, 0x41, 0x40, 0x00, 0x97, 0x1D, 0x59, 0x09, 0x8A,
	0x48, 0x00, 0x01, 0x8B, 0x44, 0x00, 0x01, 0x89, 0x24, 0x00, 0x01, 0x89,
	0x2A, 0x00, 0x00, 0x88, 0x41, 0x00, 0x10, 0x9B, 0x44, 0x40, 0x00, 0x9A,
	0x48, 0x40, 0x00, 0x98, 0x41, 0x40, 0x07, 0x8B, 0x44, 0x00, 0x00, 0x88,
	0x41, 0x00, 0x01, 0x8A, 0x48, 0x00, 0x14, 0x9B, 0x44, 0x40, 0x00, 0x9A,
	0x48, 0x40, 0x00, 0x99, 0x2A, 0x53, 0x00, 0x99, 0x24, 0x68, 0x00, 0x98,
	0x41, 0x40, 0x07, 0x88, 0x41, 0x00, 0x01, 0x8B, 0x44, 0x00, 0x00, 0x8A,
	0x48, 0x00, 0x03, 0x89, 0x2A, 0x00, 0x01, 0x89, 0x24, 0x00, 0x10, 0x9B,
	0x46, 0x40, 0x00, 0x9A, 0x49, 0x40, 0x00, 0x98, 0x41, 0x40, 0x08, 0x8B,
	0x46, 0x00, 0x00, 0x8A, 0x49, 0x00, 0x01, 0x88, 0x41, 0x00, 0x13, 0x9B,
	0x46, 0x40, 0x00, 0x9A, 0x49, 0x40, 0x00, 0x99, 0x2A, 0x68, 0x00, 0x99,
	0x28, 0x68, 0x00, 0x98, 0x41, 0x40, 0x08, 0x8B, 0x46, 0x00, 0x02, 0x8A,
	0x49, 0x00, 0x00, 0x89, 0x2A, 0x00, 0x00, 0x88, 0x41, 0x00, 0x03, 0x89,
	0x28, 0x00, 0x0F, 0x9B, 0x44, 0x40, 0x00, 0x9A, 0x48, 0x40, 0x00, 0x98,
	0x41, 0x40, 0x1C, 0x99, 0x2A, 0x59, 0x06, 0x87, 0x1D, 0x00, 0x04, 0x89,
	0x2A, 0x00, 0x12, 0x99, 0x2E, 0x3B, 0x00, 0x99, 0x24, 0x44, 0x00, 0x97,
	0x1D, 0x56, 0x08, 0x8B, 0x44, 0x00, 0x01, 0x88, 0x41, 0x00, 0x01, 0x89,
	0x24, 0x00, 0x01, 0x8A, 0x48, 0x00, 0x03, 0x89, 0x2E, 0x00, 0x01, 0x87,
	0x1D, 0x00, 0x0D, 0x9B, 0x3F, 0x40, 0x00, 0x9A, 0x43, 0x40, 0x00, 0x99,
	0x2A, 0x5F, 0x00, 0x99, 0x24, 0x4A, 0x00, 0x98, 0x46, 0x40, 0x00, 0x97,
	0x1B, 0x56, 0x0A, 0x89, 0x24, 0x00, 0x02, 0x89, 0x2A, 0x00, 0x10, 0x99,
	0x24, 0x53, 0x0A, 0x89, 0x24, 0x00, 0x12, 0x99, 0x2A, 0x62, 0x00, 0x99,
	0x24, 0x65, 0x05, 0x8A, 0x43, 0x00, 0x00, 0x88, 0x46, 0x00, 0x02, 0x8B,
	0x3F, 0x00, 0x04, 0x89, 0x2A, 0x00, 0x00, 0x89, 0x24, 0x00, 0x11, 0x9B,
	0x3F, 0x40, 0x00, 0x9A, 0x44, 0x40, 0x00, 0x98, 0x47, 0x40, 0x09, 0x8A,
	0x44, 0x00, 0x00, 0x88, 0x47, 0x00, 0x02, 0x8B, 0x3F, 0x00, 0x11, 0x9B,
	0x3F, 0x40, 0x00, 0x9A, 0x44, 0x40, 0x00, 0x99, 0x2A, 0x59, 0x00, 0x99,
	0x28, 0x78, 0x00, 0x98, 0x47, 0x40, 0x0A, 0x8A, 0x44, 0x00, 0x00, 0x89,
	0x2A, 0x00, 0x01, 0x88, 0x47, 0x00, 0x02, 0x8B, 0x3F, 0x00, 0x00, 0x89,
	0x28, 0x00, 0x0F, 0x9B, 0x3F, 0x40, 0x00, 0x9A, 0x43, 0x40, 0x00, 0x98,
	0x46, 0x40, 0x1C, 0x99, 0x2A, 0x65, 0x05, 0x87, 0x1B, 0x00, 0x06, 0x89,
	0x2A, 0x00, 0x11, 0x99, 0x2E, 0x26, 0x00, 0x99, 0x24, 0x4D, 0x00, 0x97,
	0x1B, 0x68, 0x09, 0x89, 0x24, 0x00, 0x03, 0x87, 0x1B, 0x00, 0x02, 0x89,
	0x2E, 0x00, 0x05, 0x8B, 0x3F, 0x00, 0x00, 0x8A, 0x43, 0x00, 0x00, 0x88,
	0x46, 0x00, 0x09, 0x9B, 0x3C, 0x40, 0x00, 0x9A, 0x40, 0x40, 0x00, 0x99,
	0x2A, 0x5F, 0x00, 0x99, 0x24, 0x70, 0x00, 0x98, 0x43, 0x40, 0x00, 0x97,
	0x24, 0x68, 0x0B, 0x8A, 0x40, 0x00, 0x01, 0x89, 0x2A, 0x00, 0x00, 0x89,
	0x24, 0x00, 0x01, 0x8B, 0x3C, 0x00, 0x00, 0x88, 0x43, 0x00, 0x0F, 0x9B,
	0x3C, 0x40, 0x00, 0x9A, 0x40, 0x40, 0x00, 0x98, 0x43, 0x40, 0x0A, 0x8B,
	0x3C, 0x00, 0x00, 0x8A, 0x40, 0x00, 0x00, 0x88, 0x43, 0x00, 0x12, 0x9B,
	0x3C, 0x40, 0x00, 0x9A, 0x40, 0x40, 0x00, 0x99, 0x2A, 0x6E, 0x00, 0x99,
	0x24, 0x78, 0x00, 0x98, 0x43, 0x40, 0x0B, 0x89, 0x2A, 0x00, 0x01, 0x89,
	0x24, 0x00, 0x02, 0x8A, 0x40, 0x00, 0x01, 0x8B, 0x3C, 0x00, 0x00, 0x88,
	0x43, 0x00, 0x0D, 0x9B, 0x3C, 0x40, 0x00, 0x9A, 0x41, 0x40, 0x00, 0x98,
	0x44, 0x40, 0x0B, 0x88, 0x44, 0x00, 0x01, 0x8A, 0x41, 0x00, 0x01, 0x8B,
	0x3C, 0x00, 0x0F, 0x9B, 0x3C, 0x40, 0x00, 0x9A, 0x41, 0x40, 0x00, 0x99,
	0x2A, 0x62, 0x00, 0x99, 0x28, 0x68, 0x00, 0x98, 0x44, 0x40, 0x0A, 0x89,
	0x2A, 0x00, 0x01, 0x88, 0x44, 0x00, 0x01, 0x8A, 0x41, 0x00, 0x02, 0x89,
	0x28, 0x00, 0x01, 0x8B, 0x3C, 0x00, 0x0D, 0x9B, 0x3C, 0x40, 0x00, 0x9A,
	0x40, 0x40, 0x00, 0x99, 0x2A, 0x59, 0x00, 0x98, 0x43, 0x40, 0x0A, 0x89,
	0x2A, 0x00, 0x12, 0x99, 0x2A, 0x56, 0x00, 0x99, 0x24, 0x68, 0x09, 0x89,
	0x2A, 0x00, 0x03, 0x89, 0x24, 0x00, 0x10, 0x99, 0x2A, 0x59, 0x09, 0x89,
	0x2A, 0x00, 0x01, 0x8B, 0x3C, 0x00, 0x01, 0x8A, 0x40, 0x00, 0x00, 0x88,
	0x43, 0x00, 0x10, 0x87, 0x24, 0x00, 0x01, 0x9B, 0x44, 0x40, 0x00, 0x9A,
	0x48, 0x40, 0x00, 0x99, 0x2A, 0x70, 0x00, 0x99, 0x24, 0x78, 0x00, 0x98,
	0x41, 0x40, 0x00, 0x97, 0x1D, 0x53, 0x0A, 0x89, 0x2A, 0x00, 0x02, 0x89,
	0x24, 0x00, 0x1E, 0x8B, 0x44, 0x00, 0x00, 0x8A, 0x48, 0x00, 0x00, 0x88,
	0x41, 0x00, 0x0E, 0x9B, 0x44, 0x40, 0x00, 0x9A, 0x48, 0x40, 0x00, 0x99,
	0x2A, 0x53, 0x00, 0x99, 0x24, 0x68, 0x00, 0x98, 0x41, 0x40, 0x0A, 0x89,
	0x2A, 0x00, 0x01, 0x8A, 0x48, 0x00, 0x01, 0x8B, 0x44, 0x00, 0x00, 0x89,
	0x24, 0x00, 0x02, 0x88, 0x41, 0x00, 0x0E, 0x9B, 0x46, 0x40, 0x00, 0x9A,
	0x49, 0x40, 0x00, 0x99, 0x2A, 0x3B, 0x00, 0x98, 0x41, 0x40, 0x08, 0x89,
	0x2A, 0x00, 0x03, 0x8B, 0x46, 0x00, 0x00, 0x8A, 0x49, 0x00, 0x02, 0x88,
	0x41, 0x00, 0x0F, 0x9B, 0x46, 0x40, 0x00, 0x9A, 0x49, 0x40, 0x00, 0x99,
	0x2A, 0x5F, 0x00, 0x99, 0x28, 0x62, 0x00, 0x98, 0x41, 0x40, 0x0A, 0x8A,
	0x49, 0x00, 0x01, 0x89, 0x2A, 0x00, 0x00, 0x89, 0x28, 0x00, 0x01, 0x8B,
	0x46, 0x00, 0x00, 0x88, 0x41, 0x00, 0x10, 0x9B, 0x44, 0x40, 0x00, 0x9A,
	0x48, 0x40, 0x00, 0x98, 0x41, 0x40, 0x14, 0x87, 0x1D, 0x00, 0x08, 0x99,
	0x2A, 0x47, 0x08, 0x89, 0x2A, 0x00, 0x14, 0x99, 0x2A, 0x53, 0x00, 0x99,
	0x24, 0x3B, 0x00, 0x97, 0x1D, 0x5C, 0x08, 0x89, 0x24, 0x00, 0x01, 0x89,
	0x2A, 0x00, 0x01, 0x8B, 0x44, 0x00, 0x01, 0x8A, 0x48, 0x00, 0x00, 0x87,
	0x1D, 0x00, 0x01, 0x88, 0x41, 0x00, 0x10, 0x9B, 0x43, 0x40, 0x00, 0x9A,
	0x47, 0x40, 0x00, 0x99, 0x2A, 0x59, 0x00, 0x99, 0x24, 0x59, 0x00, 0x98,
	0x41, 0x40, 0x00, 0x97, 0x1D, 0x68, 0x0A, 0x89, 0x2A, 0x00, 0x00, 0x89,
	0x24, 0x00, 0x12, 0x99, 0x24, 0x4A, 0x08, 0x89, 0x24, 0x00, 0x14, 0x99,
	0x2A, 0x59, 0x00, 0x99, 0x24, 0x68, 0x09, 0x89, 0x2A, 0x00, 0x01, 0x8B,
	0x43, 0x00, 0x01, 0x8A, 0x47, 0x00, 0x00, 0x89, 0x24, 0x00, 0x02, 0x88,
	0x41, 0x00, 0x0F, 0x9B, 0x44, 0x40, 0x00, 0x9A, 0x48, 0x40, 0x00, 0x99,
	0x2A, 0x4A, 0x00, 0x98, 0x41, 0x40, 0x09, 0x89, 0x2A, 0x00, 0x00, 0x88,
	0x41, 0x00, 0x01, 0x8B, 0x44, 0x00, 0x01, 0x8A, 0x48, 0x00, 0x11, 0x9B,
	0x44, 0x40, 0x00, 0x9A, 0x48, 0x40, 0x00, 0x99, 0x2A, 0x62, 0x00, 0x99,
	0x28, 0x5C, 0x00, 0x98, 0x41, 0x40, 0x0C, 0x89, 0x2A, 0x00, 0x01, 0x89,
	0x28, 0x00, 0x2B, 0x99, 0x2A, 0x59, 0x09, 0x89, 0x2A, 0x00, 0x07, 0x87,
	0x1D, 0x00, 0x0C, 0x99, 0x2A, 0x59, 0x00, 0x99, 0x24, 0x4D, 0x00, 0x97,
	0x1D, 0x56, 0x08, 0x89, 0x2A, 0x00, 0x01, 0x89, 0x24, 0x00, 0x02, 0x8B,
	0x44, 0x00, 0x00, 0x88, 0x41, 0x00, 0x01, 0x8A, 0x48, 0x00, 0x00, 0x87,
	0x1D, 0x00, 0x10, 0x9B, 0x44, 0x40, 0x00, 0x9A, 0x48, 0x40, 0x00, 0x99,
	0x2A, 0x53, 0x00, 0x99, 0x24, 0x6E, 0x00, 0x98, 0x41, 0x40, 0x00, 0x97,
	0x1D, 0x56, 0x0A, 0x89, 0x2A, 0x00, 0x01, 0x89, 0x24, 0x00, 0x1E, 0x8B,
	0x44, 0x00, 0x00, 0x88, 0x41, 0x00, 0x01, 0x8A, 0x48, 0x00, 0x0E, 0x9B,
	0x44, 0x40, 0x00, 0x9A, 0x48, 0x40, 0x00, 0x99, 0x2A, 0x56, 0x00, 0x99,
	0x24, 0x70, 0x00, 0x98, 0x41, 0x40, 0x09, 0x89, 0x2A, 0x00, 0x01, 0x89,
	0x24, 0x00, 0x02, 0x8B, 0x44, 0x00, 0x01, 0x8A, 0x48, 0x00, 0x02, 0x88,
	0x41, 0x00, 0x0D, 0x9B, 0x46, 0x40, 0x00, 0x9A, 0x49, 0x40, 0x00, 0x99,
	0x2A, 0x4D, 0x00, 0x98, 0x41, 0x40, 0x08, 0x8B, 0x46, 0x00, 0x00, 0x8A,
	0x49, 0x00, 0x00, 0x89, 0x2A, 0x00, 0x01, 0x88, 0x41, 0x00, 0x13, 0x9B,
	0x46, 0x40, 0x00, 0x9A, 0x49, 0x40, 0x00, 0x99, 0x2A, 0x68, 0x00, 0x99,
	0x28, 0x74, 0x00, 0x98, 0x41, 0x40, 0x0A, 0x8A, 0x49, 0x00, 0x00, 0x88,
	0x41, 0x00, 0x01, 0x8B, 0x46, 0x00, 0x00, 0x89, 0x2A, 0x00, 0x03, 0x89,
	0x28, 0x00, 0x0E, 0x9B, 0x44, 0x40, 0x00, 0x9A, 0x48, 0x40, 0x00, 0x98,
	0x41, 0x40, 0x1B, 0x87, 0x1D, 0x00, 0x01, 0x99, 0x2A, 0x53, 0x08, 0x89,
	0x2A, 0x00, 0x14, 0x99, 0x2A, 0x4A, 0x00, 0x99, 0x24, 0x59, 0x00, 0x97,
	0x1D, 0x70, 0x07, 0x8A, 0x48, 0x00, 0x01, 0x8B, 0x44, 0x00, 0x00, 0x88,
	0x41, 0x00, 0x01, 0x89, 0x2A, 0x00, 0x01, 0x89, 0x24, 0x00, 0x05, 0x87,
	0x1D, 0x00, 0x0D, 0x9B, 0x43, 0x40, 0x00, 0x9A, 0x47, 0x40, 0x00, 0x99,
	0x2A, 0x44, 0x00, 0x99, 0x24, 0x59, 0x00, 0x98, 0x41, 0x40, 0x00, 0x97,
	0x29, 0x70, 0x09, 0x89, 0x2A, 0x00, 0x01, 0x89, 0x24, 0x00, 0x12, 0x99,
	0x2A, 0x47, 0x09, 0x89, 0x2A, 0x00, 0x13, 0x99, 0x2A, 0x44, 0x0A, 0x8B,
	0x43, 0x00, 0x00, 0x8A, 0x47, 0x00, 0x00, 0x89, 0x2A, 0x00, 0x02, 0x88,
	0x41, 0x00, 0x10, 0x9B, 0x44, 0x40, 0x00, 0x9A, 0x48, 0x40, 0x00, 0x99,
	0x2A, 0x44, 0x00, 0x98, 0x41, 0x40, 0x05, 0x8A, 0x48, 0x00, 0x00, 0x88,
	0x41, 0x00, 0x01, 0x8B, 0x44, 0x00, 0x03, 0x89, 0x2A, 0x00, 0x13, 0x9B,
	0x44, 0x40, 0x00, 0x9A, 0x48, 0x40, 0x00, 0x99, 0x2A, 0x59, 0x00, 0x99,
	0x24, 0x6E, 0x00, 0x98, 0x41, 0x40, 0x0B, 0x89, 0x2A, 0x00, 0x01, 0x89,
	0x24, 0x00, 0x2C, 0x99, 0x2A, 0x62, 0x00, 0x99, 0x28, 0x68, 0x08, 0x89,
	0x2A, 0x00, 0x05, 0x89, 0x28, 0x00, 0x0E, 0x87, 0x29, 0x00, 0x01, 0x99,
	0x2A, 0x4D, 0x00, 0x97, 0x1D, 0x7A, 0x08, 0x89, 0x2A, 0x00, 0x02, 0x8B,
	0x44, 0x00, 0x00, 0x88, 0x41, 0x00, 0x01, 0x8A, 0x48, 0x00, 0x01, 0x87,
	0x1D, 0x00, 0x10, 0x9B, 0x44, 0x40, 0x00, 0x9A, 0x48, 0x40, 0x00, 0x99,
	0x2A, 0x70, 0x00, 0x99, 0x24, 0x62, 0x00, 0x98, 0x41, 0x40, 0x00, 0x97,
	0x1D, 0x68, 0x0B, 0x89, 0x2A, 0x00, 0x01, 0x89, 0x24, 0x00, 0x1E, 0x8B,
	0x44, 0x00, 0x00, 0x8A, 0x48, 0x00, 0x00, 0x88, 0x41, 0x00, 0x0E, 0x9B,
	0x44, 0x40, 0x00, 0x9A, 0x48, 0x40, 0x00, 0x99, 0x2A, 0x62, 0x00, 0x99,
	0x24, 0x6E, 0x00, 0x98, 0x41, 0x40, 0x0A, 0x89, 0x2A, 0x00, 0x01, 0x8A,
	0x48, 0x00, 0x01, 0x8B, 0x44, 0x00, 0x00, 0x89, 0x24, 0x00, 0x02, 0x88,
	0x41, 0x00, 0x0E, 0x9B, 0x46, 0x40, 0x00, 0x9A, 0x49, 0x40, 0x00, 0x99,
	0x2A, 0x3E, 0x00, 0x98, 0x41, 0x40, 0x09, 0x89, 0x2A, 0x00, 0x02, 0x8B,
	0x46, 0x00, 0x00, 0x8A, 0x49, 0x00, 0x02, 0x88, 0x41, 0x00, 0x0F, 0x9B,
	0x46, 0x40, 0x00, 0x9A, 0x49, 0x40, 0x00, 0x99, 0x2A, 0x68, 0x00, 0x99,
	0x28, 0x70, 0x00, 0x98, 0x41, 0x40, 0x0A, 0x8A, 0x49, 0x00, 0x01, 0x89,
	0x2A, 0x00, 0x01, 0x8B, 0x46, 0x00, 0x00, 0x88, 0x41, 0x00, 0x02, 0x89,
	0x28, 0x00, 0x0E, 0x9B, 0x44, 0x40, 0x00, 0x9A, 0x48, 0x40, 0x00, 0x98,
	0x41, 0x40, 0x1C, 0x99, 0x2A, 0x4D, 0x00, 0x87, 0x1D, 0x00, 0x09, 0x89,
	0x2A, 0x00, 0x13, 0x99, 0x2A, 0x4A, 0x00, 0x99, 0x24, 0x59, 0x00, 0x97,
	0x1D, 0x5C, 0x0A, 0x8B, 0x44, 0x00, 0x00, 0x89, 0x2A, 0x00, 0x00, 0x89,
	0x24, 0x00, 0x01, 0x8A, 0x48, 0x00, 0x01, 0x88, 0x41, 0x00, 0x08, 0x87,
	0x1D, 0x00, 0x08, 0x9B, 0x43, 0x40, 0x00, 0x9A, 0x47, 0x40, 0x00, 0x99,
	0x2A, 0x44, 0x00, 0x99, 0x24, 0x50, 0x00, 0x98, 0x41, 0x40, 0x00, 0x97,
	0x29, 0x70, 0x0B, 0x89, 0x2A, 0x00, 0x00, 0x89, 0x24, 0x00, 0x11, 0x99,
	0x2A, 0x44, 0x0B, 0x89, 0x2A, 0x00, 0x11, 0x99, 0x2A, 0x4D, 0x00, 0x99,
	0x24, 0x6E, 0x09, 0x89, 0x2A, 0x00, 0x01, 0x8B, 0x43, 0x00, 0x01, 0x8A,
	0x47, 0x00, 0x02, 0x89, 0x24, 0x00, 0x00, 0x88, 0x41, 0x00, 0x0F, 0x9B,
	0x44, 0x40, 0x00, 0x9A, 0x48, 0x40, 0x00, 0x99, 0x2A, 0x41, 0x00, 0x98,
	0x41, 0x40, 0x09, 0x89, 0x2A, 0x00, 0x00, 0x88, 0x41, 0x00, 0x00, 0x87,
	0x29, 0x00, 0x01, 0x8B, 0x44, 0x00, 0x01, 0x8A, 0x48, 0x00, 0x11, 0x9B,
	0x44, 0x40, 0x00, 0x9A, 0x48, 0x40, 0x00, 0x99, 0x2A, 0x44, 0x00, 0x99,
	0x28, 0x70, 0x00, 0x98, 0x41, 0x40, 0x00, 0x97, 0x29, 0x72, 0x0A, 0x89,
	0x2A, 0x00, 0x03, 0x89, 0x28, 0x00, 0x0F, 0x99, 0x2A, 0x53, 0x09, 0x89,
	0x2A, 0x00, 0x13, 0x99, 0x2A, 0x53, 0x0C, 0x89, 0x2A, 0x00, 0x10, 0x99,
	0x2E, 0x47, 0x00, 0x99, 0x24, 0x3B, 0x0A, 0x89, 0x24, 0x00, 0x01, 0x8B,
	0x44, 0x00, 0x00, 0x88, 0x41, 0x00, 0x01, 0x8A, 0x48, 0x00, 0x00, 0x89,
	0x2E, 0x00, 0x0B, 0x87, 0x29, 0x00, 0x05, 0x9B, 0x44, 0x40, 0x00, 0x9A,
	0x48, 0x40, 0x00, 0x99, 0x2A, 0x59, 0x00, 0x99, 0x24, 0x68, 0x00, 0x98,
	0x41, 0x40, 0x00, 0x97, 0x1D, 0x7A, 0x0B, 0x89, 0x24, 0x00, 0x01, 0x89,
	0x2A, 0x00, 0x1D, 0x8B, 0x44, 0x00, 0x00, 0x88, 0x41, 0x00, 0x01, 0x8A,
	0x48, 0x00, 0x0E, 0x9B, 0x44, 0x40, 0x00, 0x9A, 0x48, 0x40, 0x00, 0x99,
	0x2A, 0x4A, 0x00, 0x99, 0x24, 0x62, 0x00, 0x98, 0x41, 0x40, 0x09, 0x89,
	0x2A, 0x00, 0x03, 0x8B, 0x44, 0x00, 0x00, 0x89, 0x24, 0x00, 0x01, 0x8A,
	0x48, 0x00, 0x02, 0x88, 0x41, 0x00, 0x0D, 0x9B, 0x46, 0x40, 0x00, 0x9A,
	0x49, 0x40, 0x00, 0x99, 0x2A, 0x4A, 0x00, 0x98, 0x41, 0x40, 0x08, 0x8B,
	0x46, 0x00, 0x00, 0x8A, 0x49, 0x00, 0x01, 0x88, 0x41, 0x00, 0x02, 0x89,
	0x2A, 0x00, 0x11, 0x9B, 0x46, 0x40, 0x00, 0x9A, 0x49, 0x40, 0x00, 0x99,
	0x2A, 0x70, 0x00, 0x99, 0x28, 0x68, 0x00, 0x98, 0x41, 0x40, 0x0A, 0x8A,
	0x49, 0x00, 0x00, 0x88, 0x41, 0x00, 0x01, 0x8B, 0x46, 0x00, 0x01, 0x89,
	0x2A, 0x00, 0x02, 0x89, 0x28, 0x00, 0x0E, 0x9B, 0x44, 0x40, 0x00, 0x9A,
	0x48, 0x40, 0x00, 0x98, 0x41, 0x40, 0x1C, 0x99, 0x2A, 0x56, 0x05, 0x87,
	0x1D, 0x00, 0x04, 0x89, 0x2A, 0x00, 0x13, 0x99, 0x2A, 0x4A, 0x00, 0x99,
	0x24, 0x4A, 0x00, 0x97, 0x1D, 0x5C, 0x07, 0x8A, 0x48, 0x00, 0x01, 0x8B,
	0x44, 0x00, 0x00, 0x88, 0x41, 0x00, 0x02, 0x89, 0x2A, 0x00, 0x00, 0x89,
	0x24, 0x00, 0x08, 0x87, 0x1D, 0x00, 0x0A, 0x9B, 0x43, 0x40, 0x00, 0x9A,
	0x47, 0x40, 0x00, 0x99, 0x2A, 0x59, 0x00, 0x99, 0x24, 0x5C, 0x00, 0x98,
	0x41, 0x40, 0x00, 0x97, 0x29, 0x68, 0x0B, 0x89, 0x2A, 0x00, 0x01, 0x89,
	0x24, 0x00, 0x2C, 0x99, 0x2A, 0x59, 0x00, 0x99, 0x24, 0x5C, 0x09, 0x89,
	0x2A, 0x00, 0x01, 0x8B, 0x43, 0x00, 0x00, 0x8A, 0x47, 0x00, 0x02, 0x88,
	0x41, 0x00, 0x01, 0x89, 0x24, 0x00, 0x0F, 0x9B, 0x44, 0x40, 0x00, 0x9A,
	0x48, 0x40, 0x00, 0x99, 0x2A, 0x4D, 0x00, 0x98, 0x41, 0x40, 0x05, 0x8A,
	0x48, 0x00, 0x00, 0x88, 0x41, 0x00, 0x01, 0x8B, 0x44, 0x00, 0x03, 0x89,
	0x2A, 0x00, 0x13, 0x9B, 0x44, 0x40, 0x00, 0x9A, 0x48, 0x40, 0x00, 0x99,
	0x2A, 0x53, 0x00, 0x99, 0x28, 0x78, 0x00, 0x98, 0x41, 0x40, 0x09, 0x89,
	0x2A, 0x00, 0x05, 0x89, 0x28, 0x00, 0x0E, 0x99, 0x2A, 0x4A, 0x09, 0x89,
	0x2A, 0x00, 0x13, 0x99, 0x2A, 0x4D, 0x00, 0x99, 0x24, 0x72, 0x0B, 0x89,
	0x2A, 0x00, 0x02, 0x89, 0x24, 0x00, 0x0E, 0x87, 0x29, 0x00, 0x01, 0x99,
	0x2E, 0x62, 0x00, 0x97, 0x1D, 0x68, 0x0A, 0x8B, 0x44, 0x00, 0x00, 0x88,
	0x41, 0x00, 0x00, 0x87, 0x1D, 0x00, 0x01, 0x8A, 0x48, 0x00, 0x01, 0x89,
	0x2E, 0x00, 0x10, 0x9B, 0x44, 0x40, 0x00, 0x9A, 0x48, 0x40, 0x00, 0x99,
	0x2A, 0x76, 0x00, 0x99, 0x24, 0x68, 0x00, 0x98, 0x41, 0x40, 0x0A, 0x89,
	0x2A, 0x00, 0x02, 0x89, 0x24, 0x00, 0x0F, 0x88, 0x41, 0x00, 0x01, 0x8B,
	0x44, 0x00, 0x00, 0x8A, 0x48, 0x00, 0x81, 0xD4, 0x7D, 0xFF, 0x2F, 0x00
};

byte Music_Levelup[558] = {
	0x4D, 0x54, 0x68, 0x64, 0x00, 0x00, 0x00, 0x06, 0x00, 0x00, 0x00, 0x01,
	0x00, 0x30, 0x4D, 0x54, 0x72, 0x6B, 0x00, 0x00, 0x02, 0x18, 0x00, 0xC9,
	0x00, 0x00, 0xC5, 0x44, 0x00, 0xC4, 0x28, 0x00, 0xC3, 0x12, 0x00, 0xC2,
	0x2A, 0x00, 0xC1, 0x5B, 0x00, 0xFF, 0x51, 0x03, 0x07, 0xA1, 0x20, 0x00,
	0xFF, 0x51, 0x03, 0x08, 0x52, 0xAE, 0x00, 0x91, 0x37, 0x7F, 0x00, 0xB1,
	0x07, 0x58, 0x00, 0xB1, 0x0A, 0x40, 0x00, 0x92, 0x2B, 0x7F, 0x00, 0xB2,
	0x07, 0x71, 0x00, 0xB2, 0x0A, 0x40, 0x00, 0x93, 0x43, 0x7F, 0x00, 0xB3,
	0x07, 0x56, 0x00, 0xB3, 0x0A, 0x54, 0x00, 0x94, 0x4F, 0x7F, 0x00, 0xB4,
	0x07, 0x2D, 0x00, 0xB4, 0x0A, 0x53, 0x00, 0x95, 0x37, 0x7F, 0x00, 0xB5,
	0x07, 0x5C, 0x00, 0xB5, 0x0A, 0x40, 0x00, 0x95, 0x2B, 0x7F, 0x00, 0xB5,
	0x07, 0x61, 0x00, 0x99, 0x29, 0x7F, 0x00, 0xB9, 0x07, 0x55, 0x00, 0xB9,
	0x0A, 0x40, 0x0C, 0x89, 0x29, 0x00, 0x0C, 0x99, 0x3B, 0x7F, 0x00, 0x99,
	0x29, 0x7F, 0x0C, 0x89, 0x29, 0x00, 0x00, 0x89, 0x3B, 0x00, 0x0C, 0x85,
	0x2B, 0x00, 0x00, 0x99, 0x2A, 0x7F, 0x0C, 0x89, 0x2A, 0x00, 0x0C, 0x95,
	0x2B, 0x7F, 0x00, 0x99, 0x29, 0x7F, 0x0C, 0x89, 0x29, 0x00, 0x0B, 0x85,
	0x2B, 0x00, 0x01, 0x84, 0x4F, 0x00, 0x00, 0x82, 0x2B, 0x00, 0x00, 0x81,
	0x37, 0x00, 0x00, 0x91, 0x37, 0x7F, 0x00, 0x92, 0x2B, 0x7F, 0x00, 0x93,
	0x4F, 0x7F, 0x00, 0x94, 0x4F, 0x7F, 0x00, 0x95, 0x43, 0x7F, 0x00, 0x95,
	0x2D, 0x7F, 0x00, 0x99, 0x29, 0x7F, 0x0C, 0x89, 0x29, 0x00, 0x00, 0x85,
	0x37, 0x00, 0x00, 0x83, 0x43, 0x00, 0x0B, 0x85, 0x2D, 0x00, 0x01, 0x95,
	0x2B, 0x7F, 0x00, 0x99, 0x3B, 0x7F, 0x00, 0x99, 0x29, 0x7F, 0x05, 0x89,
	0x29, 0x00, 0x06, 0x85, 0x2B, 0x00, 0x01, 0x89, 0x3B, 0x00, 0x00, 0x95,
	0x2E, 0x7F, 0x00, 0x99, 0x29, 0x7F, 0x05, 0x89, 0x29, 0x00, 0x06, 0x85,
	0x2E, 0x00, 0x01, 0x95, 0x2B, 0x7F, 0x00, 0x99, 0x2A, 0x7F, 0x0B, 0x85,
	0x2B, 0x00, 0x01, 0x89, 0x2A, 0x00, 0x00, 0x95, 0x2E, 0x7F, 0x00, 0x99,
	0x29, 0x7F, 0x05, 0x89, 0x29, 0x00, 0x06, 0x85, 0x2E, 0x00, 0x01, 0x95,
	0x2B, 0x7F, 0x00, 0x99, 0x29, 0x7F, 0x0B, 0x85, 0x2B, 0x00, 0x01, 0x89,
	0x29, 0x00, 0x00, 0x95, 0x30, 0x7F, 0x0B, 0x85, 0x30, 0x00, 0x01, 0x85,
	0x43, 0x00, 0x00, 0x84, 0x4F, 0x00, 0x00, 0x83, 0x4F, 0x00, 0x00, 0x82,
	0x2B, 0x00, 0x00, 0x81, 0x37, 0x00, 0x00, 0x91, 0x31, 0x7F, 0x00, 0x92,
	0x25, 0x7F, 0x00, 0x93, 0x4F, 0x7F, 0x00, 0x94, 0x4F, 0x7F, 0x00, 0x95,
	0x43, 0x7F, 0x00, 0x95, 0x26, 0x7F, 0x00, 0x99, 0x29, 0x7F, 0x0B, 0x85,
	0x26, 0x00, 0x01, 0x89, 0x29, 0x00, 0x00, 0x95, 0x25, 0x7F, 0x0B, 0x85,
	0x25, 0x00, 0x01, 0x95, 0x25, 0x7F, 0x00, 0x99, 0x3B, 0x7F, 0x00, 0x99,
	0x29, 0x7F, 0x0B, 0x89, 0x3B, 0x00, 0x00, 0x85, 0x25, 0x00, 0x01, 0x89,
	0x29, 0x00, 0x0C, 0x99, 0x2A, 0x7F, 0x0C, 0x89, 0x2A, 0x00, 0x0C, 0x95,
	0x25, 0x7F, 0x00, 0x99, 0x29, 0x7F, 0x0B, 0x85, 0x25, 0x00, 0x01, 0x89,
	0x29, 0x00, 0x0B, 0x82, 0x25, 0x00, 0x00, 0x81, 0x31, 0x00, 0x01, 0x85,
	0x43, 0x00, 0x00, 0x84, 0x4F, 0x00, 0x00, 0x83, 0x4F, 0x00, 0x00, 0x91,
	0x31, 0x7F, 0x00, 0x92, 0x25, 0x7F, 0x00, 0x93, 0x4D, 0x7F, 0x00, 0x94,
	0x4D, 0x7F, 0x00, 0x95, 0x41, 0x7F, 0x00, 0x95, 0x25, 0x7F, 0x00, 0x99,
	0x29, 0x7F, 0x0B, 0x85, 0x25, 0x00, 0x01, 0x89, 0x29, 0x00, 0x0C, 0x95,
	0x25, 0x7F, 0x00, 0x99, 0x3B, 0x7F, 0x00, 0x99, 0x29, 0x7F, 0x0C, 0x89,
	0x29, 0x00, 0x00, 0x89, 0x3B, 0x00, 0x0B, 0x85, 0x25, 0x00, 0x01, 0x99,
	0x2A, 0x7F, 0x0C, 0x89, 0x2A, 0x00, 0x23, 0x82, 0x25, 0x00, 0x00, 0x81,
	0x31, 0x00, 0x01, 0x85, 0x41, 0x00, 0x00, 0x84, 0x4D, 0x00, 0x00, 0x83,
	0x4D, 0x00, 0x00, 0xFF, 0x2F, 0x00
};

byte Music_Level_End[7824] = {
	0x4D, 0x54, 0x68, 0x64, 0x00, 0x00, 0x00, 0x06, 0x00, 0x00, 0x00, 0x01,
	0x00, 0x46, 0x4D, 0x54, 0x72, 0x6B, 0x00, 0x00, 0x1E, 0x7A, 0x00, 0xC0,
	0x1E, 0x00, 0xB0, 0x07, 0x64, 0x00, 0xB0, 0x0A, 0x22, 0x00, 0x90, 0x28,
	0x77, 0x00, 0xC1, 0x1E, 0x00, 0xB1, 0x07, 0x64, 0x00, 0xB1, 0x0A, 0x5E,
	0x00, 0xC2, 0x21, 0x00, 0xB2, 0x07, 0x64, 0x00, 0xB2, 0x0A, 0x40, 0x00,
	0x92, 0x1C, 0x77, 0x00, 0xB2, 0x0A, 0x40, 0x00, 0xC3, 0x51, 0x00, 0xB3,
	0x07, 0x5A, 0x00, 0xB3, 0x0A, 0x72, 0x00, 0xC4, 0x52, 0x00, 0xB4, 0x07,
	0x5A, 0x00, 0xB4, 0x0A, 0x0E, 0x00, 0xC9, 0x00, 0x00, 0xB9, 0x07, 0x64,
	0x00, 0xB9, 0x0A, 0x40, 0x00, 0x99, 0x24, 0x68, 0x00, 0x99, 0x28, 0x44,
	0x00, 0x99, 0x29, 0x59, 0x00, 0x99, 0x2A, 0x62, 0x01, 0x91, 0x2F, 0x77,
	0x08, 0x80, 0x28, 0x00, 0x00, 0x82, 0x1C, 0x00, 0x00, 0x89, 0x29, 0x00,
	0x00, 0x89, 0x2A, 0x00, 0x00, 0x89, 0x28, 0x00, 0x01, 0x81, 0x2F, 0x00,
	0x00, 0x89, 0x24, 0x00, 0x10, 0x99, 0x2A, 0x70, 0x01, 0x90, 0x28, 0x71,
	0x00, 0x92, 0x1C, 0x71, 0x00, 0x99, 0x24, 0x70, 0x00, 0x99, 0x28, 0x53,
	0x00, 0x99, 0x29, 0x56, 0x01, 0x91, 0x2F, 0x71, 0x07, 0x89, 0x29, 0x00,
	0x01, 0x80, 0x28, 0x00, 0x00, 0x82, 0x1C, 0x00, 0x00, 0x89, 0x2A, 0x00,
	0x00, 0x89, 0x28, 0x00, 0x01, 0x81, 0x2F, 0x00, 0x00, 0x89, 0x24, 0x00,
	0x11, 0x90, 0x28, 0x7F, 0x00, 0x92, 0x1C, 0x7F, 0x00, 0x99, 0x2A, 0x70,
	0x00, 0x99, 0x24, 0x5C, 0x00, 0x99, 0x28, 0x44, 0x00, 0x99, 0x29, 0x53,
	0x02, 0x91, 0x2F, 0x7F, 0x07, 0x80, 0x28, 0x00, 0x00, 0x82, 0x1C, 0x00,
	0x00, 0x89, 0x29, 0x00, 0x01, 0x81, 0x2F, 0x00, 0x00, 0x89, 0x2A, 0x00,
	0x00, 0x89, 0x28, 0x00, 0x00, 0x89, 0x24, 0x00, 0x11, 0x90, 0x28, 0x6E,
	0x00, 0x92, 0x1C, 0x6E, 0x00, 0x99, 0x2A, 0x70, 0x00, 0x99, 0x24, 0x68,
	0x00, 0x99, 0x28, 0x4A, 0x00, 0x99, 0x29, 0x62, 0x02, 0x91, 0x2F, 0x6E,
	0x06, 0x80, 0x28, 0x00, 0x00, 0x82, 0x1C, 0x00, 0x01, 0x89, 0x2A, 0x00,
	0x01, 0x81, 0x2F, 0x00, 0x00, 0x89, 0x29, 0x00, 0x01, 0x89, 0x24, 0x00,
	0x00, 0x89, 0x28, 0x00, 0x10, 0x99, 0x2A, 0x7D, 0x01, 0x90, 0x28, 0x7F,
	0x00, 0x92, 0x1C, 0x7F, 0x00, 0x99, 0x24, 0x62, 0x00, 0x99, 0x28, 0x4D,
	0x00, 0x99, 0x29, 0x50, 0x01, 0x91, 0x2F, 0x7F, 0x08, 0x80, 0x28, 0x00,
	0x00, 0x82, 0x1C, 0x00, 0x00, 0x89, 0x29, 0x00, 0x00, 0x89, 0x2A, 0x00,
	0x01, 0x81, 0x2F, 0x00, 0x00, 0x89, 0x28, 0x00, 0x00, 0x89, 0x24, 0x00,
	0x11, 0x90, 0x28, 0x7F, 0x00, 0x92, 0x1C, 0x7F, 0x00, 0x99, 0x2A, 0x76,
	0x00, 0x99, 0x24, 0x70, 0x00, 0x99, 0x28, 0x4A, 0x00, 0x99, 0x29, 0x4D,
	0x02, 0x91, 0x2F, 0x7F, 0x07, 0x80, 0x28, 0x00, 0x00, 0x82, 0x1C, 0x00,
	0x00, 0x89, 0x29, 0x00, 0x00, 0x89, 0x2A, 0x00, 0x01, 0x81, 0x2F, 0x00,
	0x00, 0x89, 0x28, 0x00, 0x00, 0x89, 0x24, 0x00, 0x11, 0x90, 0x28, 0x7A,
	0x00, 0x92, 0x1C, 0x7A, 0x00, 0x99, 0x2A, 0x74, 0x00, 0x99, 0x24, 0x74,
	0x00, 0x99, 0x28, 0x4A, 0x00, 0x99, 0x29, 0x59, 0x02, 0x91, 0x2F, 0x7A,
	0x07, 0x80, 0x28, 0x00, 0x00, 0x82, 0x1C, 0x00, 0x01, 0x89, 0x2A, 0x00,
	0x00, 0x89, 0x29, 0x00, 0x01, 0x81, 0x2F, 0x00, 0x00, 0x89, 0x28, 0x00,
	0x00, 0x89, 0x24, 0x00, 0x10, 0x99, 0x2A, 0x68, 0x01, 0x90, 0x28, 0x7A,
	0x00, 0x92, 0x1C, 0x7A, 0x00, 0x99, 0x24, 0x62, 0x00, 0x99, 0x28, 0x53,
	0x00, 0x99, 0x29, 0x59, 0x01, 0x91, 0x2F, 0x7A, 0x07, 0x89, 0x2A, 0x00,
	0x01, 0x80, 0x28, 0x00, 0x00, 0x82, 0x1C, 0x00, 0x00, 0x89, 0x29, 0x00,
	0x00, 0x89, 0x24, 0x00, 0x01, 0x81, 0x2F, 0x00, 0x00, 0x89, 0x28, 0x00,
	0x11, 0x90, 0x28, 0x7F, 0x00, 0x92, 0x1C, 0x7F, 0x00, 0x99, 0x24, 0x74,
	0x00, 0x99, 0x28, 0x50, 0x00, 0x99, 0x29, 0x62, 0x00, 0x99, 0x2A, 0x6B,
	0x01, 0x91, 0x2F, 0x7F, 0x08, 0x80, 0x28, 0x00, 0x00, 0x82, 0x1C, 0x00,
	0x00, 0x89, 0x29, 0x00, 0x00, 0x89, 0x2A, 0x00, 0x00, 0x89, 0x24, 0x00,
	0x01, 0x81, 0x2F, 0x00, 0x00, 0x89, 0x28, 0x00, 0x11, 0x90, 0x28, 0x7F,
	0x00, 0x92, 0x1C, 0x7F, 0x00, 0x99, 0x2A, 0x74, 0x00, 0x99, 0x24, 0x68,
	0x00, 0x99, 0x28, 0x62, 0x00, 0x99, 0x29, 0x62, 0x02, 0x91, 0x2F, 0x7F,
	0x07, 0x80, 0x28, 0x00, 0x00, 0x82, 0x1C, 0x00, 0x00, 0x89, 0x2A, 0x00,
	0x00, 0x89, 0x29, 0x00, 0x01, 0x81, 0x2F, 0x00, 0x00, 0x89, 0x28, 0x00,
	0x00, 0x89, 0x24, 0x00, 0x12, 0x90, 0x28, 0x7F, 0x00, 0x92, 0x1C, 0x7F,
	0x00, 0x99, 0x24, 0x74, 0x00, 0x99, 0x28, 0x68, 0x00, 0x99, 0x29, 0x62,
	0x00, 0x99, 0x2A, 0x7D, 0x01, 0x91, 0x2F, 0x7F, 0x07, 0x80, 0x28, 0x00,
	0x00, 0x82, 0x1C, 0x00, 0x00, 0x89, 0x29, 0x00, 0x01, 0x89, 0x2A, 0x00,
	0x01, 0x81, 0x2F, 0x00, 0x00, 0x89, 0x24, 0x00, 0x00, 0x89, 0x28, 0x00,
	0x11, 0x90, 0x28, 0x7F, 0x00, 0x92, 0x1C, 0x7F, 0x00, 0x99, 0x24, 0x78,
	0x00, 0x99, 0x28, 0x62, 0x00, 0x99, 0x29, 0x68, 0x00, 0x99, 0x2A, 0x7E,
	0x01, 0x91, 0x2F, 0x7F, 0x06, 0x80, 0x28, 0x00, 0x00, 0x82, 0x1C, 0x00,
	0x02, 0x81, 0x2F, 0x00, 0x00, 0x89, 0x29, 0x00, 0x00, 0x89, 0x2A, 0x00,
	0x00, 0x89, 0x28, 0x00, 0x01, 0x89, 0x24, 0x00, 0x11, 0x90, 0x28, 0x7F,
	0x00, 0x92, 0x1C, 0x7F, 0x00, 0x99, 0x24, 0x7F, 0x00, 0x99, 0x28, 0x7F,
	0x00, 0x99, 0x29, 0x7E, 0x00, 0x99, 0x39, 0x76, 0x02, 0x91, 0x2F, 0x7F,
	0x00, 0x99, 0x2A, 0x7F, 0x07, 0x80, 0x28, 0x00, 0x00, 0x82, 0x1C, 0x00,
	0x00, 0x89, 0x39, 0x00, 0x01, 0x81, 0x2F, 0x00, 0x01, 0x89, 0x2A, 0x00,
	0x01, 0x89, 0x24, 0x00, 0x00, 0x89, 0x28, 0x00, 0x00, 0x89, 0x29, 0x00,
	0x07, 0x99, 0x39, 0x01, 0x09, 0x89, 0x39, 0x00, 0x1B, 0x90, 0x28, 0x7F,
	0x00, 0x92, 0x1C, 0x7F, 0x01, 0x91, 0x2F, 0x7F, 0x06, 0x80, 0x28, 0x00,
	0x00, 0x82, 0x1C, 0x00, 0x02, 0x81, 0x2F, 0x00, 0x12, 0x90, 0x28, 0x7F,
	0x00, 0x92, 0x1C, 0x7F, 0x02, 0x91, 0x2F, 0x7F, 0x19, 0x80, 0x28, 0x00,
	0x00, 0x82, 0x1C, 0x00, 0x01, 0x90, 0x2B, 0x7A, 0x00, 0x81, 0x2F, 0x00,
	0x00, 0x92, 0x1F, 0x7A, 0x00, 0x99, 0x24, 0x7A, 0x00, 0x99, 0x31, 0x68,
	0x01, 0x91, 0x32, 0x7A, 0x02, 0x99, 0x3B, 0x74, 0x07, 0x89, 0x24, 0x00,
	0x02, 0x89, 0x31, 0x00, 0x01, 0x89, 0x3B, 0x00, 0x0E, 0x80, 0x2B, 0x00,
	0x00, 0x90, 0x28, 0x7F, 0x00, 0x82, 0x1F, 0x00, 0x00, 0x92, 0x1C, 0x7F,
	0x00, 0x99, 0x24, 0x7D, 0x01, 0x81, 0x32, 0x00, 0x00, 0x91, 0x2F, 0x7F,
	0x08, 0x80, 0x28, 0x00, 0x00, 0x82, 0x1C, 0x00, 0x02, 0x81, 0x2F, 0x00,
	0x03, 0x89, 0x24, 0x00, 0x0D, 0x90, 0x28, 0x6B, 0x00, 0x92, 0x1C, 0x6B,
	0x00, 0x99, 0x28, 0x7F, 0x00, 0x99, 0x3B, 0x70, 0x02, 0x91, 0x2F, 0x6B,
	0x07, 0x80, 0x28, 0x00, 0x00, 0x82, 0x1C, 0x00, 0x01, 0x89, 0x3B, 0x00,
	0x01, 0x81, 0x2F, 0x00, 0x04, 0x89, 0x28, 0x00, 0x0D, 0x90, 0x28, 0x6E,
	0x00, 0x92, 0x1C, 0x6E, 0x00, 0x99, 0x24, 0x6E, 0x01, 0x91, 0x2F, 0x6E,
	0x08, 0x89, 0x24, 0x00, 0x11, 0x99, 0x3B, 0x7C, 0x01, 0x90, 0x2A, 0x7F,
	0x00, 0x92, 0x1E, 0x7F, 0x00, 0x99, 0x24, 0x72, 0x01, 0x80, 0x28, 0x00,
	0x00, 0x91, 0x31, 0x7F, 0x00, 0x82, 0x1C, 0x00, 0x01, 0x81, 0x2F, 0x00,
	0x08, 0x89, 0x3B, 0x00, 0x00, 0x89, 0x24, 0x00, 0x0F, 0x80, 0x2A, 0x00,
	0x00, 0x82, 0x1E, 0x00, 0x01, 0x81, 0x31, 0x00, 0x01, 0x90, 0x28, 0x77,
	0x00, 0x92, 0x1C, 0x77, 0x00, 0x99, 0x24, 0x7E, 0x02, 0x91, 0x2F, 0x77,
	0x09, 0x80, 0x28, 0x00, 0x00, 0x82, 0x1C, 0x00, 0x01, 0x81, 0x2F, 0x00,
	0x01, 0x89, 0x24, 0x00, 0x0E, 0x90, 0x28, 0x6E, 0x00, 0x92, 0x1C, 0x6E,
	0x00, 0x99, 0x28, 0x7F, 0x01, 0x99, 0x3B, 0x74, 0x01, 0x91, 0x2F, 0x6E,
	0x08, 0x80, 0x28, 0x00, 0x00, 0x82, 0x1C, 0x00, 0x01, 0x81, 0x2F, 0x00,
	0x00, 0x89, 0x3B, 0x00, 0x05, 0x89, 0x28, 0x00, 0x0C, 0x90, 0x28, 0x5F,
	0x00, 0x92, 0x1C, 0x5F, 0x00, 0x99, 0x24, 0x72, 0x01, 0x91, 0x2F, 0x5F,
	0x08, 0x89, 0x24, 0x00, 0x12, 0x90, 0x2E, 0x7F, 0x00, 0x92, 0x22, 0x7F,
	0x00, 0x99, 0x24, 0x7E, 0x00, 0x99, 0x3B, 0x70, 0x02, 0x91, 0x35, 0x7F,
	0x01, 0x80, 0x28, 0x00, 0x00, 0x82, 0x1C, 0x00, 0x01, 0x81, 0x2F, 0x00,
	0x06, 0x89, 0x3B, 0x00, 0x00, 0x89, 0x24, 0x00, 0x11, 0x80, 0x2E, 0x00,
	0x00, 0x90, 0x28, 0x68, 0x00, 0x82, 0x22, 0x00, 0x00, 0x92, 0x1C, 0x68,
	0x00, 0x99, 0x24, 0x7F, 0x02, 0x81, 0x35, 0x00, 0x00, 0x91, 0x2F, 0x68,
	0x11, 0x89, 0x24, 0x00, 0x04, 0x80, 0x28, 0x00, 0x00, 0x82, 0x1C, 0x00,
	0x01, 0x81, 0x2F, 0x00, 0x04, 0x90, 0x2D, 0x7F, 0x00, 0x92, 0x21, 0x7F,
	0x00, 0x99, 0x28, 0x7F, 0x01, 0x91, 0x34, 0x7F, 0x00, 0x99, 0x3B, 0x7A,
	0x0A, 0x89, 0x3B, 0x00, 0x04, 0x89, 0x28, 0x00, 0x0B, 0x80, 0x2D, 0x00,
	0x00, 0x82, 0x21, 0x00, 0x01, 0x90, 0x28, 0x59, 0x00, 0x81, 0x34, 0x00,
	0x00, 0x92, 0x1C, 0x59, 0x00, 0x99, 0x24, 0x76, 0x01, 0x91, 0x2F, 0x59,
	0x08, 0x89, 0x24, 0x00, 0x12, 0x90, 0x2B, 0x77, 0x00, 0x92, 0x1F, 0x77,
	0x00, 0x99, 0x24, 0x74, 0x00, 0x99, 0x3B, 0x7A, 0x01, 0x80, 0x28, 0x00,
	0x00, 0x82, 0x1C, 0x00, 0x01, 0x91, 0x32, 0x77, 0x00, 0x81, 0x2F, 0x00,
	0x09, 0x89, 0x3B, 0x00, 0x01, 0x89, 0x24, 0x00, 0x0D, 0x80, 0x2B, 0x00,
	0x00, 0x82, 0x1F, 0x00, 0x01, 0x81, 0x32, 0x00, 0x02, 0x90, 0x28, 0x5F,
	0x00, 0x92, 0x1C, 0x5F, 0x01, 0x91, 0x2F, 0x5F, 0x0A, 0x80, 0x28, 0x00,
	0x00, 0x82, 0x1C, 0x00, 0x01, 0x81, 0x2F, 0x00, 0x0F, 0x90, 0x28, 0x62,
	0x00, 0x92, 0x1C, 0x62, 0x00, 0x99, 0x28, 0x7F, 0x00, 0x99, 0x3B, 0x7E,
	0x01, 0x91, 0x2F, 0x62, 0x08, 0x80, 0x28, 0x00, 0x00, 0x82, 0x1C, 0x00,
	0x01, 0x81, 0x2F, 0x00, 0x00, 0x89, 0x3B, 0x00, 0x05, 0x89, 0x28, 0x00,
	0x0C, 0x90, 0x28, 0x68, 0x00, 0x92, 0x1C, 0x68, 0x00, 0x99, 0x24, 0x78,
	0x02, 0x91, 0x2F, 0x68, 0x07, 0x89, 0x24, 0x00, 0x10, 0x80, 0x28, 0x00,
	0x00, 0x82, 0x1C, 0x00, 0x02, 0x81, 0x2F, 0x00, 0x01, 0x90, 0x2B, 0x74,
	0x00, 0x92, 0x1F, 0x74, 0x00, 0x99, 0x24, 0x7E, 0x00, 0x99, 0x39, 0x62,
	0x01, 0x91, 0x32, 0x74, 0x08, 0x89, 0x24, 0x00, 0x03, 0x89, 0x39, 0x00,
	0x0C, 0x80, 0x2B, 0x00, 0x00, 0x82, 0x1F, 0x00, 0x02, 0x81, 0x32, 0x00,
	0x01, 0x90, 0x28, 0x6E, 0x00, 0x92, 0x1C, 0x6E, 0x00, 0x99, 0x24, 0x74,
	0x01, 0x91, 0x2F, 0x6E, 0x09, 0x80, 0x28, 0x00, 0x00, 0x82, 0x1C, 0x00,
	0x02, 0x81, 0x2F, 0x00, 0x02, 0x89, 0x24, 0x00, 0x0B, 0x99, 0x3B, 0x7F,
	0x02, 0x90, 0x28, 0x59, 0x00, 0x92, 0x1C, 0x59, 0x00, 0x99, 0x28, 0x7F,
	0x02, 0x91, 0x2F, 0x59, 0x07, 0x89, 0x3B, 0x00, 0x01, 0x80, 0x28, 0x00,
	0x00, 0x82, 0x1C, 0x00, 0x01, 0x81, 0x2F, 0x00, 0x04, 0x89, 0x28, 0x00,
	0x0D, 0x90, 0x28, 0x62, 0x00, 0x92, 0x1C, 0x62, 0x00, 0x99, 0x24, 0x7C,
	0x01, 0x91, 0x2F, 0x62, 0x08, 0x89, 0x24, 0x00, 0x10, 0x99, 0x3B, 0x7A,
	0x02, 0x90, 0x2A, 0x7F, 0x00, 0x92, 0x1E, 0x7F, 0x00, 0x99, 0x24, 0x78,
	0x01, 0x80, 0x28, 0x00, 0x00, 0x91, 0x31, 0x7F, 0x00, 0x82, 0x1C, 0x00,
	0x02, 0x81, 0x2F, 0x00, 0x05, 0x89, 0x3B, 0x00, 0x02, 0x89, 0x24, 0x00,
	0x10, 0x80, 0x2A, 0x00, 0x00, 0x82, 0x1E, 0x00, 0x01, 0x90, 0x28, 0x6B,
	0x00, 0x81, 0x31, 0x00, 0x00, 0x92, 0x1C, 0x6B, 0x00, 0x99, 0x24, 0x78,
	0x02, 0x91, 0x2F, 0x6B, 0x08, 0x80, 0x28, 0x00, 0x00, 0x82, 0x1C, 0x00,
	0x02, 0x81, 0x2F, 0x00, 0x04, 0x89, 0x24, 0x00, 0x0C, 0x90, 0x28, 0x65,
	0x00, 0x92, 0x1C, 0x65, 0x00, 0x99, 0x28, 0x7F, 0x01, 0x91, 0x2F, 0x65,
	0x00, 0x99, 0x3B, 0x6E, 0x07, 0x80, 0x28, 0x00, 0x00, 0x82, 0x1C, 0x00,
	0x02, 0x81, 0x2F, 0x00, 0x00, 0x89, 0x3B, 0x00, 0x06, 0x89, 0x28, 0x00,
	0x0B, 0x90, 0x28, 0x62, 0x00, 0x92, 0x1C, 0x62, 0x00, 0x99, 0x24, 0x68,
	0x01, 0x91, 0x2F, 0x62, 0x08, 0x89, 0x24, 0x00, 0x12, 0x90, 0x2E, 0x7F,
	0x00, 0x92, 0x22, 0x7F, 0x00, 0x99, 0x24, 0x7F, 0x01, 0x99, 0x3B, 0x7A,
	0x01, 0x80, 0x28, 0x00, 0x00, 0x91, 0x35, 0x7F, 0x00, 0x82, 0x1C, 0x00,
	0x02, 0x81, 0x2F, 0x00, 0x07, 0x89, 0x3B, 0x00, 0x01, 0x89, 0x24, 0x00,
	0x0C, 0x80, 0x2E, 0x00, 0x00, 0x82, 0x22, 0x00, 0x02, 0x81, 0x35, 0x00,
	0x02, 0x90, 0x28, 0x68, 0x00, 0x92, 0x1C, 0x68, 0x00, 0x99, 0x24, 0x72,
	0x01, 0x91, 0x2F, 0x68, 0x0A, 0x89, 0x24, 0x00, 0x0E, 0x80, 0x28, 0x00,
	0x00, 0x82, 0x1C, 0x00, 0x02, 0x90, 0x2D, 0x7F, 0x00, 0x81, 0x2F, 0x00,
	0x00, 0x92, 0x21, 0x7F, 0x00, 0x99, 0x28, 0x7F, 0x00, 0x99, 0x3B, 0x7D,
	0x01, 0x91, 0x34, 0x7F, 0x0A, 0x89, 0x3B, 0x00, 0x04, 0x89, 0x28, 0x00,
	0x0C, 0x80, 0x2D, 0x00, 0x00, 0x90, 0x28, 0x71, 0x00, 0x82, 0x21, 0x00,
	0x00, 0x92, 0x1C, 0x71, 0x00, 0x99, 0x24, 0x7D, 0x01, 0x81, 0x34, 0x00,
	0x01, 0x91, 0x2F, 0x71, 0x07, 0x89, 0x24, 0x00, 0x12, 0x80, 0x28, 0x00,
	0x00, 0x90, 0x2B, 0x71, 0x00, 0x82, 0x1C, 0x00, 0x00, 0x92, 0x1F, 0x71,
	0x00, 0x99, 0x3B, 0x72, 0x00, 0x99, 0x24, 0x7F, 0x01, 0x81, 0x2F, 0x00,
	0x01, 0x91, 0x32, 0x71, 0x07, 0x89, 0x3B, 0x00, 0x02, 0x89, 0x24, 0x00,
	0x2C, 0x80, 0x2B, 0x00, 0x00, 0x90, 0x28, 0x62, 0x00, 0x82, 0x1F, 0x00,
	0x00, 0x92, 0x1C, 0x62, 0x00, 0x99, 0x28, 0x7F, 0x00, 0x99, 0x3B, 0x7F,
	0x02, 0x81, 0x32, 0x00, 0x00, 0x91, 0x2F, 0x62, 0x07, 0x80, 0x28, 0x00,
	0x00, 0x82, 0x1C, 0x00, 0x01, 0x89, 0x3B, 0x00, 0x01, 0x81, 0x2F, 0x00,
	0x00, 0x89, 0x28, 0x00, 0x10, 0x90, 0x28, 0x77, 0x00, 0x92, 0x1C, 0x77,
	0x00, 0x99, 0x28, 0x78, 0x02, 0x91, 0x2F, 0x77, 0x0E, 0x89, 0x28, 0x00,
	0x09, 0x80, 0x28, 0x00, 0x00, 0x82, 0x1C, 0x00, 0x01, 0x81, 0x2F, 0x00,
	0x02, 0x90, 0x2B, 0x7F, 0x00, 0x92, 0x1F, 0x7F, 0x00, 0x99, 0x24, 0x7D,
	0x00, 0x99, 0x31, 0x6E, 0x01, 0x91, 0x32, 0x7F, 0x08, 0x89, 0x24, 0x00,
	0x04, 0x89, 0x31, 0x00, 0x0D, 0x80, 0x2B, 0x00, 0x00, 0x82, 0x1F, 0x00,
	0x01, 0x90, 0x28, 0x71, 0x00, 0x81, 0x32, 0x00, 0x00, 0x92, 0x1C, 0x71,
	0x00, 0x99, 0x24, 0x76, 0x01, 0x91, 0x2F, 0x71, 0x08, 0x80, 0x28, 0x00,
	0x00, 0x82, 0x1C, 0x00, 0x02, 0x81, 0x2F, 0x00, 0x02, 0x89, 0x24, 0x00,
	0x0D, 0x99, 0x3B, 0x7E, 0x01, 0x90, 0x28, 0x62, 0x00, 0x92, 0x1C, 0x62,
	0x00, 0x99, 0x28, 0x7F, 0x02, 0x91, 0x2F, 0x62, 0x07, 0x80, 0x28, 0x00,
	0x00, 0x82, 0x1C, 0x00, 0x00, 0x89, 0x3B, 0x00, 0x02, 0x81, 0x2F, 0x00,
	0x02, 0x89, 0x28, 0x00, 0x0F, 0x90, 0x28, 0x62, 0x00, 0x92, 0x1C, 0x62,
	0x00, 0x99, 0x24, 0x70, 0x01, 0x91, 0x2F, 0x62, 0x07, 0x89, 0x24, 0x00,
	0x12, 0x99, 0x3B, 0x74, 0x01, 0x80, 0x28, 0x00, 0x00, 0x90, 0x2A, 0x7F,
	0x00, 0x82, 0x1C, 0x00, 0x00, 0x92, 0x1E, 0x7F, 0x00, 0x99, 0x24, 0x7D,
	0x01, 0x81, 0x2F, 0x00, 0x00, 0x91, 0x31, 0x7F, 0x08, 0x89, 0x3B, 0x00,
	0x02, 0x89, 0x24, 0x00, 0x10, 0x80, 0x2A, 0x00, 0x00, 0x90, 0x28, 0x6E,
	0x00, 0x82, 0x1E, 0x00, 0x00, 0x92, 0x1C, 0x6E, 0x00, 0x99, 0x24, 0x7F,
	0x01, 0x81, 0x31, 0x00, 0x01, 0x91, 0x2F, 0x6E, 0x09, 0x80, 0x28, 0x00,
	0x00, 0x82, 0x1C, 0x00, 0x01, 0x81, 0x2F, 0x00, 0x01, 0x89, 0x24, 0x00,
	0x0E, 0x99, 0x3B, 0x7A, 0x01, 0x90, 0x28, 0x59, 0x00, 0x92, 0x1C, 0x59,
	0x00, 0x99, 0x28, 0x7F, 0x01, 0x91, 0x2F, 0x59, 0x08, 0x80, 0x28, 0x00,
	0x00, 0x82, 0x1C, 0x00, 0x01, 0x89, 0x3B, 0x00, 0x01, 0x81, 0x2F, 0x00,
	0x00, 0x89, 0x28, 0x00, 0x10, 0x90, 0x28, 0x71, 0x00, 0x92, 0x1C, 0x71,
	0x00, 0x99, 0x28, 0x74, 0x01, 0x91, 0x2F, 0x71, 0x0F, 0x89, 0x28, 0x00,
	0x0B, 0x90, 0x2E, 0x7F, 0x00, 0x92, 0x22, 0x7F, 0x00, 0x99, 0x24, 0x7F,
	0x01, 0x80, 0x28, 0x00, 0x00, 0x82, 0x1C, 0x00, 0x00, 0x99, 0x3B, 0x7F,
	0x01, 0x91, 0x35, 0x7F, 0x00, 0x81, 0x2F, 0x00, 0x08, 0x89, 0x24, 0x00,
	0x01, 0x89, 0x3B, 0x00, 0x0E, 0x80, 0x2E, 0x00, 0x00, 0x82, 0x22, 0x00,
	0x02, 0x81, 0x35, 0x00, 0x01, 0x90, 0x28, 0x6E, 0x00, 0x92, 0x1C, 0x6E,
	0x00, 0x99, 0x24, 0x7F, 0x01, 0x91, 0x2F, 0x6E, 0x0D, 0x89, 0x24, 0x00,
	0x09, 0x80, 0x28, 0x00, 0x00, 0x82, 0x1C, 0x00, 0x02, 0x81, 0x2F, 0x00,
	0x01, 0x99, 0x3B, 0x7F, 0x01, 0x90, 0x2D, 0x7F, 0x00, 0x92, 0x21, 0x7F,
	0x00, 0x99, 0x28, 0x7F, 0x01, 0x91, 0x34, 0x7F, 0x09, 0x89, 0x3B, 0x00,
	0x06, 0x89, 0x28, 0x00, 0x0B, 0x90, 0x28, 0x77, 0x00, 0x80, 0x2D, 0x00,
	0x00, 0x92, 0x1C, 0x77, 0x00, 0x82, 0x21, 0x00, 0x00, 0x99, 0x24, 0x7F,
	0x02, 0x91, 0x2F, 0x77, 0x00, 0x81, 0x34, 0x00, 0x08, 0x89, 0x24, 0x00,
	0x10, 0x80, 0x28, 0x00, 0x00, 0x82, 0x1C, 0x00, 0x01, 0x81, 0x2F, 0x00,
	0x01, 0x90, 0x2B, 0x7A, 0x00, 0x92, 0x1F, 0x7A, 0x00, 0x99, 0x24, 0x7E,
	0x00, 0x99, 0x3B, 0x7F, 0x01, 0x91, 0x32, 0x7A, 0x08, 0x89, 0x24, 0x00,
	0x01, 0x89, 0x3B, 0x00, 0x0D, 0x80, 0x2B, 0x00, 0x00, 0x82, 0x1F, 0x00,
	0x01, 0x81, 0x32, 0x00, 0x03, 0x90, 0x28, 0x62, 0x00, 0x92, 0x1C, 0x62,
	0x00, 0x99, 0x24, 0x7F, 0x01, 0x91, 0x2F, 0x62, 0x0A, 0x80, 0x28, 0x00,
	0x00, 0x82, 0x1C, 0x00, 0x01, 0x81, 0x2F, 0x00, 0x01, 0x89, 0x24, 0x00,
	0x0E, 0x90, 0x28, 0x62, 0x00, 0x92, 0x1C, 0x62, 0x00, 0x99, 0x28, 0x7F,
	0x00, 0x99, 0x3B, 0x7F, 0x02, 0x91, 0x2F, 0x62, 0x06, 0x80, 0x28, 0x00,
	0x00, 0x82, 0x1C, 0x00, 0x02, 0x81, 0x2F, 0x00, 0x01, 0x89, 0x3B, 0x00,
	0x00, 0x89, 0x28, 0x00, 0x10, 0x90, 0x28, 0x6B, 0x00, 0x92, 0x1C, 0x6B,
	0x00, 0x99, 0x28, 0x7F, 0x02, 0x91, 0x2F, 0x6B, 0x0E, 0x89, 0x28, 0x00,
	0x09, 0x80, 0x28, 0x00, 0x00, 0x82, 0x1C, 0x00, 0x01, 0x81, 0x2F, 0x00,
	0x02, 0x90, 0x2B, 0x7F, 0x00, 0x92, 0x1F, 0x7F, 0x00, 0x99, 0x24, 0x7F,
	0x00, 0x99, 0x31, 0x56, 0x01, 0x91, 0x32, 0x7F, 0x08, 0x89, 0x24, 0x00,
	0x05, 0x89, 0x31, 0x00, 0x0C, 0x80, 0x2B, 0x00, 0x00, 0x82, 0x1F, 0x00,
	0x01, 0x90, 0x28, 0x62, 0x00, 0x81, 0x32, 0x00, 0x00, 0x92, 0x1C, 0x62,
	0x00, 0x99, 0x24, 0x74, 0x02, 0x91, 0x2F, 0x62, 0x08, 0x80, 0x28, 0x00,
	0x00, 0x82, 0x1C, 0x00, 0x01, 0x81, 0x2F, 0x00, 0x02, 0x89, 0x24, 0x00,
	0x0E, 0x90, 0x28, 0x68, 0x00, 0x92, 0x1C, 0x68, 0x00, 0x99, 0x3B, 0x74,
	0x00, 0x99, 0x28, 0x7F, 0x02, 0x91, 0x2F, 0x68, 0x07, 0x80, 0x28, 0x00,
	0x00, 0x82, 0x1C, 0x00, 0x01, 0x81, 0x2F, 0x00, 0x00, 0x89, 0x3B, 0x00,
	0x04, 0x89, 0x28, 0x00, 0x0E, 0x90, 0x28, 0x77, 0x00, 0x92, 0x1C, 0x77,
	0x00, 0x99, 0x24, 0x7F, 0x01, 0x91, 0x2F, 0x77, 0x08, 0x89, 0x24, 0x00,
	0x12, 0x80, 0x28, 0x00, 0x00, 0x90, 0x2A, 0x7F, 0x00, 0x82, 0x1C, 0x00,
	0x00, 0x92, 0x1E, 0x7F, 0x00, 0x99, 0x24, 0x7A, 0x00, 0x99, 0x3B, 0x78,
	0x01, 0x81, 0x2F, 0x00, 0x00, 0x91, 0x31, 0x7F, 0x08, 0x89, 0x24, 0x00,
	0x01, 0x89, 0x3B, 0x00, 0x11, 0x80, 0x2A, 0x00, 0x00, 0x90, 0x28, 0x6B,
	0x00, 0x82, 0x1E, 0x00, 0x00, 0x92, 0x1C, 0x6B, 0x00, 0x99, 0x24, 0x7F,
	0x02, 0x81, 0x31, 0x00, 0x00, 0x91, 0x2F, 0x6B, 0x08, 0x80, 0x28, 0x00,
	0x00, 0x82, 0x1C, 0x00, 0x02, 0x81, 0x2F, 0x00, 0x01, 0x89, 0x24, 0x00,
	0x0F, 0x90, 0x28, 0x71, 0x00, 0x92, 0x1C, 0x71, 0x00, 0x99, 0x28, 0x7F,
	0x01, 0x91, 0x2F, 0x71, 0x00, 0x99, 0x3B, 0x7F, 0x07, 0x80, 0x28, 0x00,
	0x00, 0x82, 0x1C, 0x00, 0x02, 0x81, 0x2F, 0x00, 0x01, 0x89, 0x3B, 0x00,
	0x02, 0x89, 0x28, 0x00, 0x0E, 0x90, 0x28, 0x6B, 0x00, 0x92, 0x1C, 0x6B,
	0x00, 0x99, 0x24, 0x7A, 0x01, 0x91, 0x2F, 0x6B, 0x08, 0x89, 0x24, 0x00,
	0x12, 0x80, 0x28, 0x00, 0x00, 0x90, 0x2E, 0x7F, 0x00, 0x82, 0x1C, 0x00,
	0x00, 0x92, 0x22, 0x7F, 0x00, 0x99, 0x24, 0x7F, 0x01, 0x81, 0x2F, 0x00,
	0x00, 0x99, 0x3B, 0x7F, 0x01, 0x91, 0x35, 0x7F, 0x08, 0x89, 0x3B, 0x00,
	0x01, 0x89, 0x24, 0x00, 0x10, 0x80, 0x2E, 0x00, 0x00, 0x82, 0x22, 0x00,
	0x01, 0x90, 0x28, 0x6B, 0x00, 0x92, 0x1C, 0x6B, 0x00, 0x99, 0x24, 0x7F,
	0x01, 0x81, 0x35, 0x00, 0x00, 0x91, 0x2F, 0x6B, 0x0A, 0x89, 0x24, 0x00,
	0x0E, 0x80, 0x28, 0x00, 0x00, 0x82, 0x1C, 0x00, 0x01, 0x81, 0x2F, 0x00,
	0x00, 0x99, 0x3B, 0x78, 0x01, 0x90, 0x2D, 0x7F, 0x00, 0x92, 0x21, 0x7F,
	0x00, 0x99, 0x28, 0x7F, 0x01, 0x91, 0x34, 0x7F, 0x09, 0x89, 0x3B, 0x00,
	0x03, 0x89, 0x28, 0x00, 0x0D, 0x80, 0x2D, 0x00, 0x00, 0x82, 0x21, 0x00,
	0x01, 0x90, 0x28, 0x77, 0x00, 0x81, 0x34, 0x00, 0x00, 0x92, 0x1C, 0x77,
	0x00, 0x99, 0x24, 0x7A, 0x02, 0x91, 0x2F, 0x77, 0x08, 0x89, 0x24, 0x00,
	0x10, 0x80, 0x28, 0x00, 0x00, 0x82, 0x1C, 0x00, 0x01, 0x99, 0x3B, 0x7F,
	0x01, 0x90, 0x2B, 0x7F, 0x00, 0x81, 0x2F, 0x00, 0x00, 0x92, 0x1F, 0x7F,
	0x00, 0x99, 0x24, 0x74, 0x01, 0x91, 0x32, 0x7F, 0x08, 0x89, 0x3B, 0x00,
	0x01, 0x89, 0x24, 0x00, 0x0F, 0x80, 0x2B, 0x00, 0x00, 0x82, 0x1F, 0x00,
	0x02, 0x90, 0x28, 0x7A, 0x00, 0x81, 0x32, 0x00, 0x00, 0x92, 0x1C, 0x7A,
	0x00, 0x99, 0x24, 0x7F, 0x01, 0x91, 0x2F, 0x7A, 0x07, 0x80, 0x28, 0x00,
	0x00, 0x82, 0x1C, 0x00, 0x02, 0x81, 0x2F, 0x00, 0x02, 0x89, 0x24, 0x00,
	0x0F, 0x90, 0x2A, 0x5E, 0x00, 0x92, 0x1E, 0x5E, 0x00, 0x99, 0x28, 0x7F,
	0x00, 0x99, 0x3B, 0x7D, 0x02, 0x91, 0x31, 0x5E, 0x07, 0x80, 0x2A, 0x00,
	0x00, 0x82, 0x1E, 0x00, 0x01, 0x89, 0x3B, 0x00, 0x01, 0x81, 0x31, 0x00,
	0x03, 0x89, 0x28, 0x00, 0x0E, 0x90, 0x2B, 0x5E, 0x00, 0x92, 0x1F, 0x5E,
	0x00, 0x99, 0x24, 0x7A, 0x01, 0x91, 0x32, 0x5E, 0x08, 0x89, 0x24, 0x00,
	0x03, 0x80, 0x2B, 0x00, 0x00, 0x82, 0x1F, 0x00, 0x01, 0x81, 0x32, 0x00,
	0x0E, 0x90, 0x2E, 0x71, 0x00, 0x92, 0x22, 0x71, 0x00, 0x99, 0x24, 0x7A,
	0x00, 0x99, 0x37, 0x26, 0x00, 0x99, 0x39, 0x4D, 0x01, 0x91, 0x35, 0x71,
	0x03, 0x89, 0x37, 0x00, 0x06, 0x89, 0x24, 0x00, 0x00, 0x89, 0x39, 0x00,
	0x11, 0x80, 0x2E, 0x00, 0x00, 0x90, 0x2B, 0x6E, 0x00, 0x82, 0x22, 0x00,
	0x00, 0x92, 0x1F, 0x6E, 0x00, 0x99, 0x24, 0x7E, 0x01, 0x81, 0x35, 0x00,
	0x01, 0x91, 0x32, 0x6E, 0x0A, 0x80, 0x2B, 0x00, 0x00, 0x82, 0x1F, 0x00,
	0x00, 0x89, 0x24, 0x00, 0x01, 0x81, 0x32, 0x00, 0x0F, 0x90, 0x2B, 0x68,
	0x00, 0x92, 0x1F, 0x68, 0x00, 0x99, 0x28, 0x7F, 0x00, 0x99, 0x33, 0x68,
	0x01, 0x91, 0x32, 0x68, 0x08, 0x89, 0x33, 0x00, 0x01, 0x80, 0x2B, 0x00,
	0x00, 0x82, 0x1F, 0x00, 0x00, 0x89, 0x28, 0x00, 0x01, 0x81, 0x32, 0x00,
	0x10, 0x90, 0x2B, 0x62, 0x00, 0x92, 0x1F, 0x62, 0x00, 0x99, 0x28, 0x7F,
	0x01, 0x91, 0x32, 0x62, 0x0E, 0x89, 0x28, 0x00, 0x0A, 0x80, 0x2B, 0x00,
	0x00, 0x82, 0x1F, 0x00, 0x01, 0x99, 0x33, 0x7D, 0x01, 0x90, 0x30, 0x77,
	0x00, 0x81, 0x32, 0x00, 0x00, 0x92, 0x24, 0x77, 0x00, 0x99, 0x24, 0x7A,
	0x02, 0x91, 0x37, 0x77, 0x07, 0x89, 0x33, 0x00, 0x01, 0x89, 0x24, 0x00,
	0x0F, 0x80, 0x30, 0x00, 0x00, 0x82, 0x24, 0x00, 0x02, 0x90, 0x2B, 0x68,
	0x00, 0x81, 0x37, 0x00, 0x00, 0x92, 0x1F, 0x68, 0x00, 0x99, 0x24, 0x72,
	0x02, 0x91, 0x32, 0x68, 0x09, 0x80, 0x2B, 0x00, 0x00, 0x82, 0x1F, 0x00,
	0x01, 0x81, 0x32, 0x00, 0x01, 0x89, 0x24, 0x00, 0x0F, 0x90, 0x2B, 0x68,
	0x00, 0x92, 0x1F, 0x68, 0x00, 0x99, 0x28, 0x7F, 0x00, 0x99, 0x33, 0x76,
	0x01, 0x91, 0x32, 0x68, 0x09, 0x80, 0x2B, 0x00, 0x00, 0x82, 0x1F, 0x00,
	0x00, 0x89, 0x33, 0x00, 0x01, 0x81, 0x32, 0x00, 0x02, 0x89, 0x28, 0x00,
	0x0E, 0x90, 0x2B, 0x56, 0x00, 0x92, 0x1F, 0x56, 0x00, 0x99, 0x24, 0x7D,
	0x02, 0x91, 0x32, 0x56, 0x08, 0x89, 0x24, 0x00, 0x11, 0x90, 0x31, 0x7F,
	0x00, 0x92, 0x25, 0x7F, 0x00, 0x99, 0x33, 0x7D, 0x00, 0x99, 0x24, 0x7C,
	0x02, 0x80, 0x2B, 0x00, 0x00, 0x91, 0x38, 0x7F, 0x00, 0x82, 0x1F, 0x00,
	0x01, 0x81, 0x32, 0x00, 0x07, 0x89, 0x33, 0x00, 0x01, 0x89, 0x24, 0x00,
	0x0E, 0x80, 0x31, 0x00, 0x00, 0x82, 0x25, 0x00, 0x02, 0x81, 0x38, 0x00,
	0x01, 0x90, 0x2B, 0x62, 0x00, 0x92, 0x1F, 0x62, 0x00, 0x99, 0x24, 0x7E,
	0x01, 0x91, 0x32, 0x62, 0x0B, 0x89, 0x24, 0x00, 0x0D, 0x80, 0x2B, 0x00,
	0x00, 0x82, 0x1F, 0x00, 0x01, 0x81, 0x32, 0x00, 0x00, 0x99, 0x33, 0x6E,
	0x01, 0x90, 0x30, 0x77, 0x00, 0x92, 0x24, 0x77, 0x00, 0x99, 0x28, 0x7F,
	0x01, 0x91, 0x37, 0x77, 0x08, 0x89, 0x33, 0x00, 0x04, 0x89, 0x28, 0x00,
	0x0C, 0x80, 0x30, 0x00, 0x00, 0x82, 0x24, 0x00, 0x02, 0x90, 0x2B, 0x65,
	0x00, 0x81, 0x37, 0x00, 0x00, 0x92, 0x1F, 0x65, 0x00, 0x99, 0x24, 0x68,
	0x02, 0x91, 0x32, 0x65, 0x08, 0x89, 0x24, 0x00, 0x0F, 0x80, 0x2B, 0x00,
	0x00, 0x82, 0x1F, 0x00, 0x02, 0x81, 0x32, 0x00, 0x01, 0x90, 0x2E, 0x77,
	0x00, 0x92, 0x22, 0x77, 0x00, 0x99, 0x24, 0x7D, 0x01, 0x91, 0x35, 0x77,
	0x00, 0x99, 0x33, 0x7C, 0x08, 0x89, 0x24, 0x00, 0x01, 0x89, 0x33, 0x00,
	0x10, 0x80, 0x2E, 0x00, 0x00, 0x82, 0x22, 0x00, 0x01, 0x90, 0x2B, 0x6B,
	0x00, 0x81, 0x35, 0x00, 0x00, 0x92, 0x1F, 0x6B, 0x00, 0x99, 0x24, 0x74,
	0x01, 0x91, 0x32, 0x6B, 0x0A, 0x80, 0x2B, 0x00, 0x00, 0x82, 0x1F, 0x00,
	0x02, 0x81, 0x32, 0x00, 0x00, 0x89, 0x24, 0x00, 0x0E, 0x90, 0x2B, 0x59,
	0x00, 0x92, 0x1F, 0x59, 0x00, 0x99, 0x28, 0x7F, 0x01, 0x99, 0x33, 0x7F,
	0x01, 0x91, 0x32, 0x59, 0x07, 0x80, 0x2B, 0x00, 0x00, 0x82, 0x1F, 0x00,
	0x02, 0x81, 0x32, 0x00, 0x00, 0x89, 0x33, 0x00, 0x03, 0x89, 0x28, 0x00,
	0x0E, 0x90, 0x2B, 0x65, 0x00, 0x92, 0x1F, 0x65, 0x00, 0x99, 0x24, 0x7C,
	0x01, 0x91, 0x32, 0x65, 0x08, 0x89, 0x24, 0x00, 0x12, 0x90, 0x2E, 0x7F,
	0x00, 0x92, 0x22, 0x7F, 0x00, 0x99, 0x24, 0x7E, 0x00, 0x99, 0x39, 0x5C,
	0x01, 0x80, 0x2B, 0x00, 0x00, 0x91, 0x35, 0x7F, 0x00, 0x82, 0x1F, 0x00,
	0x02, 0x81, 0x32, 0x00, 0x08, 0x89, 0x24, 0x00, 0x00, 0x89, 0x39, 0x00,
	0x0E, 0x80, 0x2E, 0x00, 0x00, 0x82, 0x22, 0x00, 0x02, 0x90, 0x2B, 0x68,
	0x00, 0x81, 0x35, 0x00, 0x00, 0x92, 0x1F, 0x68, 0x00, 0x99, 0x24, 0x78,
	0x02, 0x91, 0x32, 0x68, 0x0A, 0x80, 0x2B, 0x00, 0x00, 0x82, 0x1F, 0x00,
	0x01, 0x81, 0x32, 0x00, 0x00, 0x89, 0x24, 0x00, 0x0F, 0x90, 0x2B, 0x5F,
	0x00, 0x92, 0x1F, 0x5F, 0x00, 0x99, 0x28, 0x7F, 0x00, 0x99, 0x33, 0x7F,
	0x01, 0x91, 0x32, 0x5F, 0x08, 0x89, 0x33, 0x00, 0x01, 0x80, 0x2B, 0x00,
	0x00, 0x82, 0x1F, 0x00, 0x01, 0x81, 0x32, 0x00, 0x03, 0x89, 0x28, 0x00,
	0x0D, 0x90, 0x2B, 0x6B, 0x00, 0x92, 0x1F, 0x6B, 0x00, 0x99, 0x24, 0x74,
	0x01, 0x91, 0x32, 0x6B, 0x09, 0x89, 0x24, 0x00, 0x10, 0x80, 0x2B, 0x00,
	0x00, 0x82, 0x1F, 0x00, 0x01, 0x90, 0x30, 0x7F, 0x00, 0x81, 0x32, 0x00,
	0x00, 0x92, 0x24, 0x7F, 0x00, 0x99, 0x33, 0x7A, 0x00, 0x99, 0x24, 0x7C,
	0x02, 0x91, 0x37, 0x7F, 0x08, 0x89, 0x33, 0x00, 0x00, 0x89, 0x24, 0x00,
	0x0F, 0x80, 0x30, 0x00, 0x00, 0x82, 0x24, 0x00, 0x02, 0x81, 0x37, 0x00,
	0x01, 0x90, 0x2B, 0x6B, 0x00, 0x92, 0x1F, 0x6B, 0x00, 0x99, 0x24, 0x7F,
	0x01, 0x91, 0x32, 0x6B, 0x0A, 0x80, 0x2B, 0x00, 0x00, 0x82, 0x1F, 0x00,
	0x01, 0x81, 0x32, 0x00, 0x00, 0x89, 0x24, 0x00, 0x0F, 0x90, 0x2B, 0x5F,
	0x00, 0x92, 0x1F, 0x5F, 0x00, 0x99, 0x28, 0x7F, 0x01, 0x91, 0x32, 0x5F,
	0x01, 0x99, 0x33, 0x7F, 0x08, 0x80, 0x2B, 0x00, 0x00, 0x82, 0x1F, 0x00,
	0x01, 0x81, 0x32, 0x00, 0x00, 0x89, 0x33, 0x00, 0x01, 0x89, 0x28, 0x00,
	0x0F, 0x90, 0x2B, 0x6E, 0x00, 0x92, 0x1F, 0x6E, 0x00, 0x99, 0x24, 0x74,
	0x02, 0x91, 0x32, 0x6E, 0x08, 0x89, 0x24, 0x00, 0x11, 0x80, 0x2B, 0x00,
	0x00, 0x90, 0x31, 0x7F, 0x00, 0x82, 0x1F, 0x00, 0x00, 0x92, 0x25, 0x7F,
	0x00, 0x99, 0x24, 0x7F, 0x01, 0x99, 0x33, 0x7F, 0x01, 0x81, 0x32, 0x00,
	0x00, 0x91, 0x38, 0x7F, 0x09, 0x89, 0x24, 0x00, 0x00, 0x89, 0x33, 0x00,
	0x0E, 0x80, 0x31, 0x00, 0x00, 0x82, 0x25, 0x00, 0x01, 0x81, 0x38, 0x00,
	0x02, 0x90, 0x2B, 0x77, 0x00, 0x90, 0x2C, 0x31, 0x00, 0x92, 0x1F, 0x77,
	0x00, 0x92, 0x20, 0x31, 0x00, 0x99, 0x24, 0x7C, 0x01, 0x91, 0x32, 0x77,
	0x00, 0x91, 0x33, 0x31, 0x05, 0x80, 0x2C, 0x00, 0x00, 0x82, 0x20, 0x00,
	0x02, 0x81, 0x33, 0x00, 0x06, 0x89, 0x24, 0x00, 0x09, 0x80, 0x2B, 0x00,
	0x00, 0x82, 0x1F, 0x00, 0x02, 0x81, 0x32, 0x00, 0x02, 0x90, 0x30, 0x77,
	0x00, 0x92, 0x24, 0x77, 0x00, 0x99, 0x28, 0x7F, 0x01, 0x99, 0x33, 0x7D,
	0x01, 0x91, 0x37, 0x77, 0x09, 0x89, 0x33, 0x00, 0x02, 0x89, 0x28, 0x00,
	0x0B, 0x80, 0x30, 0x00, 0x00, 0x82, 0x24, 0x00, 0x01, 0x81, 0x37, 0x00,
	0x02, 0x90, 0x2B, 0x71, 0x00, 0x92, 0x1F, 0x71, 0x00, 0x99, 0x24, 0x72,
	0x02, 0x91, 0x32, 0x71, 0x08, 0x89, 0x24, 0x00, 0x11, 0x80, 0x2B, 0x00,
	0x00, 0x82, 0x1F, 0x00, 0x01, 0x90, 0x2E, 0x7F, 0x00, 0x81, 0x32, 0x00,
	0x00, 0x92, 0x22, 0x7F, 0x00, 0x99, 0x24, 0x7F, 0x00, 0x99, 0x33, 0x7F,
	0x01, 0x91, 0x35, 0x7F, 0x09, 0x89, 0x33, 0x00, 0x02, 0x89, 0x24, 0x00,
	0x0F, 0x99, 0x28, 0x7F, 0x0B, 0x89, 0x28, 0x00, 0x0F, 0x99, 0x33, 0x7F,
	0x01, 0x90, 0x2B, 0x7A, 0x00, 0x92, 0x1F, 0x7A, 0x00, 0x99, 0x28, 0x7F,
	0x02, 0x91, 0x32, 0x7A, 0x02, 0x80, 0x2E, 0x00, 0x00, 0x82, 0x22, 0x00,
	0x02, 0x81, 0x35, 0x00, 0x01, 0x89, 0x33, 0x00, 0x04, 0x80, 0x2B, 0x00,
	0x00, 0x82, 0x1F, 0x00, 0x01, 0x81, 0x32, 0x00, 0x02, 0x89, 0x28, 0x00,
	0x0E, 0x90, 0x2B, 0x6E, 0x00, 0x92, 0x1F, 0x6E, 0x00, 0x99, 0x24, 0x62,
	0x01, 0x91, 0x32, 0x6E, 0x08, 0x89, 0x24, 0x00, 0x12, 0x90, 0x2E, 0x7F,
	0x00, 0x92, 0x22, 0x7F, 0x00, 0x99, 0x24, 0x7F, 0x00, 0x99, 0x39, 0x62,
	0x01, 0x80, 0x2B, 0x00, 0x00, 0x91, 0x35, 0x7F, 0x00, 0x82, 0x1F, 0x00,
	0x02, 0x81, 0x32, 0x00, 0x08, 0x89, 0x24, 0x00, 0x00, 0x89, 0x39, 0x00,
	0x0F, 0x80, 0x2E, 0x00, 0x00, 0x82, 0x22, 0x00, 0x01, 0x90, 0x2B, 0x6B,
	0x00, 0x81, 0x35, 0x00, 0x00, 0x92, 0x1F, 0x6B, 0x00, 0x99, 0x24, 0x7F,
	0x02, 0x91, 0x32, 0x6B, 0x0B, 0x80, 0x2B, 0x00, 0x00, 0x82, 0x1F, 0x00,
	0x00, 0x89, 0x24, 0x00, 0x01, 0x81, 0x32, 0x00, 0x0E, 0x90, 0x2B, 0x68,
	0x00, 0x92, 0x1F, 0x68, 0x00, 0x99, 0x28, 0x7F, 0x01, 0x91, 0x32, 0x68,
	0x00, 0x99, 0x33, 0x7D, 0x08, 0x80, 0x2B, 0x00, 0x00, 0x82, 0x1F, 0x00,
	0x01, 0x89, 0x33, 0x00, 0x01, 0x81, 0x32, 0x00, 0x02, 0x89, 0x28, 0x00,
	0x0E, 0x90, 0x2B, 0x6E, 0x00, 0x92, 0x1F, 0x6E, 0x00, 0x99, 0x24, 0x74,
	0x01, 0x91, 0x32, 0x6E, 0x08, 0x89, 0x24, 0x00, 0x0F, 0x80, 0x2B, 0x00,
	0x00, 0x82, 0x1F, 0x00, 0x02, 0x81, 0x32, 0x00, 0x01, 0x90, 0x30, 0x7F,
	0x00, 0x92, 0x24, 0x7F, 0x00, 0x99, 0x24, 0x7F, 0x01, 0x99, 0x33, 0x7D,
	0x01, 0x91, 0x37, 0x7F, 0x08, 0x89, 0x33, 0x00, 0x00, 0x89, 0x24, 0x00,
	0x11, 0x80, 0x30, 0x00, 0x00, 0x82, 0x24, 0x00, 0x01, 0x90, 0x2B, 0x7A,
	0x00, 0x92, 0x1F, 0x7A, 0x00, 0x99, 0x24, 0x7F, 0x01, 0x81, 0x37, 0x00,
	0x00, 0x91, 0x32, 0x7A, 0x0A, 0x80, 0x2B, 0x00, 0x00, 0x82, 0x1F, 0x00,
	0x00, 0x89, 0x24, 0x00, 0x01, 0x81, 0x32, 0x00, 0x0F, 0x90, 0x2B, 0x77,
	0x00, 0x92, 0x1F, 0x77, 0x00, 0x99, 0x28, 0x7F, 0x00, 0x99, 0x33, 0x72,
	0x01, 0x91, 0x32, 0x77, 0x08, 0x89, 0x33, 0x00, 0x01, 0x80, 0x2B, 0x00,
	0x00, 0x82, 0x1F, 0x00, 0x01, 0x81, 0x32, 0x00, 0x02, 0x89, 0x28, 0x00,
	0x0E, 0x90, 0x2B, 0x6B, 0x00, 0x92, 0x1F, 0x6B, 0x00, 0x99, 0x24, 0x7A,
	0x02, 0x91, 0x32, 0x6B, 0x07, 0x89, 0x24, 0x00, 0x12, 0x80, 0x2B, 0x00,
	0x00, 0x82, 0x1F, 0x00, 0x00, 0x99, 0x33, 0x7F, 0x01, 0x90, 0x31, 0x7F,
	0x00, 0x81, 0x32, 0x00, 0x00, 0x92, 0x25, 0x7F, 0x00, 0x99, 0x24, 0x7F,
	0x01, 0x91, 0x38, 0x7F, 0x08, 0x89, 0x33, 0x00, 0x01, 0x89, 0x24, 0x00,
	0x11, 0x80, 0x31, 0x00, 0x00, 0x90, 0x2B, 0x6B, 0x00, 0x82, 0x25, 0x00,
	0x00, 0x92, 0x1F, 0x6B, 0x00, 0x99, 0x24, 0x72, 0x01, 0x81, 0x38, 0x00,
	0x00, 0x91, 0x32, 0x6B, 0x0A, 0x89, 0x24, 0x00, 0x0C, 0x80, 0x2B, 0x00,
	0x00, 0x82, 0x1F, 0x00, 0x01, 0x81, 0x32, 0x00, 0x03, 0x90, 0x30, 0x7A,
	0x00, 0x92, 0x24, 0x7A, 0x00, 0x99, 0x28, 0x7F, 0x01, 0x99, 0x33, 0x7D,
	0x01, 0x91, 0x37, 0x7A, 0x08, 0x89, 0x33, 0x00, 0x03, 0x89, 0x28, 0x00,
	0x0C, 0x80, 0x30, 0x00, 0x00, 0x82, 0x24, 0x00, 0x01, 0x81, 0x37, 0x00,
	0x02, 0x90, 0x2B, 0x6E, 0x00, 0x92, 0x1F, 0x6E, 0x00, 0x99, 0x24, 0x7D,
	0x01, 0x91, 0x32, 0x6E, 0x08, 0x89, 0x24, 0x00, 0x10, 0x80, 0x2B, 0x00,
	0x00, 0x82, 0x1F, 0x00, 0x02, 0x90, 0x2E, 0x7D, 0x00, 0x81, 0x32, 0x00,
	0x00, 0x92, 0x22, 0x7D, 0x00, 0x99, 0x24, 0x74, 0x00, 0x99, 0x33, 0x7D,
	0x01, 0x91, 0x35, 0x7D, 0x09, 0x89, 0x33, 0x00, 0x02, 0x89, 0x24, 0x00,
	0x0F, 0x80, 0x2E, 0x00, 0x00, 0x90, 0x2B, 0x65, 0x00, 0x82, 0x22, 0x00,
	0x00, 0x92, 0x1F, 0x65, 0x00, 0x99, 0x28, 0x7F, 0x01, 0x81, 0x35, 0x00,
	0x01, 0x91, 0x32, 0x65, 0x09, 0x80, 0x2B, 0x00, 0x00, 0x82, 0x1F, 0x00,
	0x00, 0x89, 0x28, 0x00, 0x01, 0x81, 0x32, 0x00, 0x0F, 0x90, 0x2B, 0x62,
	0x00, 0x92, 0x1F, 0x62, 0x00, 0x99, 0x28, 0x7F, 0x01, 0x99, 0x33, 0x7A,
	0x01, 0x91, 0x32, 0x62, 0x08, 0x89, 0x33, 0x00, 0x01, 0x80, 0x2B, 0x00,
	0x00, 0x82, 0x1F, 0x00, 0x01, 0x81, 0x32, 0x00, 0x03, 0x89, 0x28, 0x00,
	0x0D, 0x90, 0x2B, 0x6E, 0x00, 0x92, 0x1F, 0x6E, 0x00, 0x99, 0x24, 0x62,
	0x01, 0x91, 0x32, 0x6E, 0x07, 0x89, 0x24, 0x00, 0x13, 0x80, 0x2B, 0x00,
	0x00, 0x90, 0x2E, 0x7F, 0x00, 0x82, 0x1F, 0x00, 0x00, 0x92, 0x22, 0x7F,
	0x00, 0x99, 0x24, 0x7F, 0x00, 0x99, 0x39, 0x62, 0x01, 0x81, 0x32, 0x00,
	0x01, 0x91, 0x35, 0x7F, 0x09, 0x89, 0x24, 0x00, 0x01, 0x89, 0x39, 0x00,
	0x0D, 0x80, 0x2E, 0x00, 0x00, 0x82, 0x22, 0x00, 0x01, 0x81, 0x35, 0x00,
	0x01, 0x90, 0x2B, 0x77, 0x00, 0x92, 0x1F, 0x77, 0x00, 0x99, 0x24, 0x7D,
	0x02, 0x91, 0x32, 0x77, 0x0A, 0x80, 0x2B, 0x00, 0x00, 0x82, 0x1F, 0x00,
	0x01, 0x81, 0x32, 0x00, 0x00, 0x89, 0x24, 0x00, 0x0F, 0x90, 0x2B, 0x5F,
	0x00, 0x92, 0x1F, 0x5F, 0x00, 0x99, 0x28, 0x7F, 0x00, 0x99, 0x33, 0x7A,
	0x01, 0x91, 0x32, 0x5F, 0x09, 0x89, 0x33, 0x00, 0x01, 0x80, 0x2B, 0x00,
	0x00, 0x82, 0x1F, 0x00, 0x01, 0x81, 0x32, 0x00, 0x02, 0x89, 0x28, 0x00,
	0x0D, 0x90, 0x2B, 0x6B, 0x00, 0x92, 0x1F, 0x6B, 0x00, 0x99, 0x24, 0x7D,
	0x01, 0x91, 0x32, 0x6B, 0x08, 0x89, 0x24, 0x00, 0x11, 0x80, 0x2B, 0x00,
	0x00, 0x82, 0x1F, 0x00, 0x01, 0x90, 0x30, 0x7F, 0x00, 0x81, 0x32, 0x00,
	0x00, 0x92, 0x24, 0x7F, 0x00, 0x99, 0x33, 0x7F, 0x00, 0x99, 0x24, 0x7D,
	0x02, 0x91, 0x37, 0x7F, 0x07, 0x89, 0x33, 0x00, 0x01, 0x89, 0x24, 0x00,
	0x11, 0x80, 0x30, 0x00, 0x00, 0x82, 0x24, 0x00, 0x01, 0x90, 0x2B, 0x6B,
	0x00, 0x92, 0x1F, 0x6B, 0x00, 0x99, 0x24, 0x7E, 0x01, 0x81, 0x37, 0x00,
	0x00, 0x91, 0x32, 0x6B, 0x08, 0x80, 0x2B, 0x00, 0x00, 0x82, 0x1F, 0x00,
	0x01, 0x81, 0x32, 0x00, 0x02, 0x89, 0x24, 0x00, 0x0F, 0x90, 0x2B, 0x7A,
	0x00, 0x92, 0x1F, 0x7A, 0x00, 0x99, 0x28, 0x7F, 0x01, 0x91, 0x32, 0x7A,
	0x00, 0x99, 0x33, 0x78, 0x09, 0x80, 0x2B, 0x00, 0x00, 0x82, 0x1F, 0x00,
	0x01, 0x81, 0x32, 0x00, 0x00, 0x89, 0x33, 0x00, 0x02, 0x89, 0x28, 0x00,
	0x0E, 0x90, 0x2B, 0x77, 0x00, 0x92, 0x1F, 0x77, 0x00, 0x99, 0x24, 0x74,
	0x02, 0x91, 0x32, 0x77, 0x07, 0x89, 0x24, 0x00, 0x12, 0x80, 0x2B, 0x00,
	0x00, 0x82, 0x1F, 0x00, 0x00, 0x99, 0x33, 0x7F, 0x01, 0x90, 0x31, 0x7F,
	0x00, 0x81, 0x32, 0x00, 0x00, 0x92, 0x25, 0x7F, 0x00, 0x99, 0x24, 0x7E,
	0x01, 0x91, 0x38, 0x7F, 0x08, 0x89, 0x33, 0x00, 0x01, 0x89, 0x24, 0x00,
	0x0D, 0x80, 0x31, 0x00, 0x00, 0x82, 0x25, 0x00, 0x01, 0x81, 0x38, 0x00,
	0x03, 0x90, 0x2B, 0x65, 0x00, 0x92, 0x1F, 0x65, 0x00, 0x99, 0x24, 0x7A,
	0x01, 0x91, 0x32, 0x65, 0x0C, 0x89, 0x24, 0x00, 0x0D, 0x80, 0x2B, 0x00,
	0x00, 0x82, 0x1F, 0x00, 0x01, 0x90, 0x30, 0x7A, 0x00, 0x92, 0x24, 0x7A,
	0x00, 0x99, 0x28, 0x7F, 0x01, 0x81, 0x32, 0x00, 0x00, 0x99, 0x33, 0x7A,
	0x01, 0x91, 0x37, 0x7A, 0x09, 0x89, 0x33, 0x00, 0x06, 0x89, 0x28, 0x00,
	0x07, 0x80, 0x30, 0x00, 0x00, 0x82, 0x24, 0x00, 0x01, 0x81, 0x37, 0x00,
	0x03, 0x90, 0x2B, 0x65, 0x00, 0x92, 0x1F, 0x65, 0x00, 0x99, 0x24, 0x78,
	0x01, 0x91, 0x32, 0x65, 0x08, 0x89, 0x24, 0x00, 0x12, 0x80, 0x2B, 0x00,
	0x00, 0x90, 0x2E, 0x77, 0x00, 0x82, 0x1F, 0x00, 0x00, 0x92, 0x22, 0x77,
	0x00, 0x99, 0x33, 0x7F, 0x00, 0x99, 0x24, 0x7F, 0x01, 0x81, 0x32, 0x00,
	0x00, 0x91, 0x35, 0x77, 0x08, 0x89, 0x33, 0x00, 0x02, 0x89, 0x24, 0x00,
	0x10, 0x90, 0x29, 0x77, 0x00, 0x92, 0x1D, 0x77, 0x00, 0x99, 0x24, 0x7D,
	0x02, 0x80, 0x2E, 0x00, 0x00, 0x91, 0x30, 0x77, 0x00, 0x82, 0x22, 0x00,
	0x01, 0x81, 0x35, 0x00, 0x09, 0x80, 0x29, 0x00, 0x00, 0x82, 0x1D, 0x00,
	0x00, 0x89, 0x24, 0x00, 0x01, 0x81, 0x30, 0x00, 0x0F, 0x90, 0x29, 0x5F,
	0x00, 0x92, 0x1D, 0x5F, 0x00, 0x99, 0x28, 0x7F, 0x01, 0x91, 0x30, 0x5F,
	0x00, 0x99, 0x33, 0x7F, 0x09, 0x89, 0x33, 0x00, 0x03, 0x89, 0x28, 0x00,
	0x0E, 0x90, 0x2A, 0x71, 0x00, 0x80, 0x29, 0x00, 0x00, 0x92, 0x1E, 0x71,
	0x00, 0x82, 0x1D, 0x00, 0x00, 0x99, 0x24, 0x7A, 0x01, 0x91, 0x31, 0x71,
	0x01, 0x81, 0x30, 0x00, 0x07, 0x89, 0x24, 0x00, 0x12, 0x80, 0x2A, 0x00,
	0x00, 0x90, 0x2B, 0x77, 0x00, 0x82, 0x1E, 0x00, 0x00, 0x92, 0x1F, 0x77,
	0x00, 0x99, 0x24, 0x7F, 0x00, 0x99, 0x31, 0x59, 0x02, 0x81, 0x31, 0x00,
	0x00, 0x91, 0x32, 0x77, 0x08, 0x89, 0x24, 0x00, 0x03, 0x89, 0x31, 0x00,
	0x0E, 0x80, 0x2B, 0x00, 0x00, 0x90, 0x28, 0x68, 0x00, 0x82, 0x1F, 0x00,
	0x00, 0x92, 0x1C, 0x68, 0x00, 0x99, 0x24, 0x7A, 0x02, 0x81, 0x32, 0x00,
	0x00, 0x91, 0x2F, 0x68, 0x0A, 0x80, 0x28, 0x00, 0x00, 0x82, 0x1C, 0x00,
	0x00, 0x89, 0x24, 0x00, 0x02, 0x81, 0x2F, 0x00, 0x0E, 0x90, 0x28, 0x59,
	0x00, 0x92, 0x1C, 0x59, 0x00, 0x99, 0x28, 0x7F, 0x00, 0x99, 0x3B, 0x7A,
	0x01, 0x91, 0x2F, 0x59, 0x08, 0x89, 0x3B, 0x00, 0x02, 0x80, 0x28, 0x00,
	0x00, 0x82, 0x1C, 0x00, 0x01, 0x81, 0x2F, 0x00, 0x01, 0x89, 0x28, 0x00,
	0x0E, 0x90, 0x28, 0x6B, 0x00, 0x92, 0x1C, 0x6B, 0x00, 0x99, 0x24, 0x5C,
	0x02, 0x91, 0x2F, 0x6B, 0x07, 0x89, 0x24, 0x00, 0x11, 0x80, 0x28, 0x00,
	0x00, 0x82, 0x1C, 0x00, 0x01, 0x90, 0x2A, 0x71, 0x00, 0x81, 0x2F, 0x00,
	0x00, 0x92, 0x1E, 0x71, 0x00, 0x99, 0x24, 0x68, 0x02, 0x91, 0x31, 0x71,
	0x00, 0x99, 0x3B, 0x74, 0x08, 0x89, 0x3B, 0x00, 0x00, 0x89, 0x24, 0x00,
	0x11, 0x80, 0x2A, 0x00, 0x00, 0x82, 0x1E, 0x00, 0x01, 0x90, 0x28, 0x59,
	0x00, 0x92, 0x1C, 0x59, 0x00, 0x99, 0x24, 0x68, 0x01, 0x81, 0x31, 0x00,
	0x00, 0x91, 0x2F, 0x59, 0x0A, 0x89, 0x24, 0x00, 0x01, 0x80, 0x28, 0x00,
	0x00, 0x82, 0x1C, 0x00, 0x01, 0x81, 0x2F, 0x00, 0x0D, 0x99, 0x3B, 0x7D,
	0x01, 0x90, 0x28, 0x5F, 0x00, 0x92, 0x1C, 0x5F, 0x00, 0x99, 0x28, 0x7F,
	0x01, 0x91, 0x2F, 0x5F, 0x08, 0x89, 0x3B, 0x00, 0x01, 0x80, 0x28, 0x00,
	0x00, 0x82, 0x1C, 0x00, 0x02, 0x81, 0x2F, 0x00, 0x02, 0x89, 0x28, 0x00,
	0x0D, 0x90, 0x28, 0x5F, 0x00, 0x92, 0x1C, 0x5F, 0x00, 0x99, 0x24, 0x74,
	0x02, 0x91, 0x2F, 0x5F, 0x07, 0x89, 0x24, 0x00, 0x13, 0x90, 0x2E, 0x7F,
	0x00, 0x92, 0x22, 0x7F, 0x00, 0x99, 0x24, 0x7A, 0x00, 0x99, 0x3B, 0x70,
	0x01, 0x80, 0x28, 0x00, 0x00, 0x91, 0x35, 0x7F, 0x00, 0x82, 0x1C, 0x00,
	0x01, 0x81, 0x2F, 0x00, 0x07, 0x89, 0x3B, 0x00, 0x01, 0x89, 0x24, 0x00,
	0x10, 0x80, 0x2E, 0x00, 0x00, 0x82, 0x22, 0x00, 0x01, 0x90, 0x28, 0x68,
	0x00, 0x81, 0x35, 0x00, 0x00, 0x92, 0x1C, 0x68, 0x00, 0x99, 0x24, 0x74,
	0x01, 0x91, 0x2F, 0x68, 0x0B, 0x89, 0x24, 0x00, 0x0D, 0x80, 0x28, 0x00,
	0x00, 0x82, 0x1C, 0x00, 0x01, 0x81, 0x2F, 0x00, 0x01, 0x90, 0x2D, 0x7F,
	0x00, 0x92, 0x21, 0x7F, 0x00, 0x99, 0x28, 0x7F, 0x01, 0x99, 0x3B, 0x78,
	0x01, 0x91, 0x34, 0x7F, 0x08, 0x89, 0x3B, 0x00, 0x04, 0x89, 0x28, 0x00,
	0x0C, 0x80, 0x2D, 0x00, 0x00, 0x82, 0x21, 0x00, 0x01, 0x81, 0x34, 0x00,
	0x01, 0x90, 0x28, 0x6B, 0x00, 0x92, 0x1C, 0x6B, 0x00, 0x99, 0x24, 0x74,
	0x01, 0x91, 0x2F, 0x6B, 0x08, 0x89, 0x24, 0x00, 0x11, 0x99, 0x3B, 0x7A,
	0x01, 0x80, 0x28, 0x00, 0x00, 0x90, 0x2B, 0x7F, 0x00, 0x82, 0x1C, 0x00,
	0x00, 0x92, 0x1F, 0x7F, 0x00, 0x99, 0x24, 0x70, 0x01, 0x81, 0x2F, 0x00,
	0x00, 0x91, 0x32, 0x7F, 0x08, 0x89, 0x3B, 0x00, 0x01, 0x89, 0x24, 0x00,
	0x0F, 0x80, 0x2B, 0x00, 0x00, 0x82, 0x1F, 0x00, 0x01, 0x81, 0x32, 0x00,
	0x01, 0x90, 0x28, 0x62, 0x00, 0x92, 0x1C, 0x62, 0x00, 0x99, 0x24, 0x7A,
	0x02, 0x91, 0x2F, 0x62, 0x09, 0x80, 0x28, 0x00, 0x00, 0x82, 0x1C, 0x00,
	0x01, 0x81, 0x2F, 0x00, 0x00, 0x89, 0x24, 0x00, 0x0F, 0x99, 0x3B, 0x74,
	0x01, 0x90, 0x28, 0x68, 0x00, 0x92, 0x1C, 0x68, 0x00, 0x99, 0x28, 0x7F,
	0x01, 0x91, 0x2F, 0x68, 0x08, 0x80, 0x28, 0x00, 0x00, 0x82, 0x1C, 0x00,
	0x00, 0x89, 0x3B, 0x00, 0x01, 0x89, 0x28, 0x00, 0x01, 0x81, 0x2F, 0x00,
	0x10, 0x90, 0x28, 0x62, 0x00, 0x92, 0x1C, 0x62, 0x00, 0x99, 0x28, 0x7F,
	0x01, 0x91, 0x2F, 0x62, 0x0C, 0x89, 0x28, 0x00, 0x0C, 0x80, 0x28, 0x00,
	0x00, 0x82, 0x1C, 0x00, 0x01, 0x81, 0x2F, 0x00, 0x01, 0x90, 0x2B, 0x71,
	0x00, 0x92, 0x1F, 0x71, 0x00, 0x99, 0x24, 0x7A, 0x00, 0x99, 0x31, 0x59,
	0x02, 0x91, 0x32, 0x71, 0x07, 0x89, 0x24, 0x00, 0x03, 0x89, 0x31, 0x00,
	0x10, 0x90, 0x28, 0x6E, 0x00, 0x80, 0x2B, 0x00, 0x00, 0x92, 0x1C, 0x6E,
	0x00, 0x82, 0x1F, 0x00, 0x00, 0x99, 0x24, 0x7D, 0x01, 0x91, 0x2F, 0x6E,
	0x00, 0x81, 0x32, 0x00, 0x09, 0x80, 0x28, 0x00, 0x00, 0x82, 0x1C, 0x00,
	0x01, 0x81, 0x2F, 0x00, 0x01, 0x89, 0x24, 0x00, 0x0D, 0x99, 0x3B, 0x74,
	0x02, 0x90, 0x28, 0x5F, 0x00, 0x92, 0x1C, 0x5F, 0x00, 0x99, 0x28, 0x7F,
	0x01, 0x91, 0x2F, 0x5F, 0x07, 0x89, 0x3B, 0x00, 0x02, 0x80, 0x28, 0x00,
	0x00, 0x82, 0x1C, 0x00, 0x01, 0x81, 0x2F, 0x00, 0x01, 0x89, 0x28, 0x00,
	0x0F, 0x90, 0x28, 0x62, 0x00, 0x92, 0x1C, 0x62, 0x00, 0x99, 0x24, 0x7A,
	0x02, 0x91, 0x2F, 0x62, 0x08, 0x89, 0x24, 0x00, 0x0F, 0x99, 0x3B, 0x70,
	0x03, 0x80, 0x28, 0x00, 0x00, 0x90, 0x2A, 0x7F, 0x00, 0x82, 0x1C, 0x00,
	0x00, 0x92, 0x1E, 0x7F, 0x00, 0x99, 0x24, 0x74, 0x01, 0x81, 0x2F, 0x00,
	0x00, 0x91, 0x31, 0x7F, 0x07, 0x89, 0x3B, 0x00, 0x02, 0x89, 0x24, 0x00,
	0x0F, 0x80, 0x2A, 0x00, 0x00, 0x82, 0x1E, 0x00, 0x01, 0x81, 0x31, 0x00,
	0x01, 0x90, 0x28, 0x6E, 0x00, 0x92, 0x1C, 0x6E, 0x00, 0x99, 0x24, 0x7D,
	0x01, 0x91, 0x2F, 0x6E, 0x09, 0x80, 0x28, 0x00, 0x00, 0x82, 0x1C, 0x00,
	0x02, 0x81, 0x2F, 0x00, 0x01, 0x89, 0x24, 0x00, 0x0E, 0x90, 0x28, 0x5F,
	0x00, 0x92, 0x1C, 0x5F, 0x00, 0x99, 0x3B, 0x74, 0x00, 0x99, 0x28, 0x7D,
	0x02, 0x91, 0x2F, 0x5F, 0x08, 0x80, 0x28, 0x00, 0x00, 0x82, 0x1C, 0x00,
	0x00, 0x89, 0x3B, 0x00, 0x00, 0x89, 0x28, 0x00, 0x01, 0x81, 0x2F, 0x00,
	0x10, 0x90, 0x28, 0x6E, 0x00, 0x92, 0x1C, 0x6E, 0x00, 0x99, 0x28, 0x7F,
	0x02, 0x91, 0x2F, 0x6E, 0x0D, 0x89, 0x28, 0x00, 0x0C, 0x99, 0x3B, 0x6E,
	0x01, 0x80, 0x28, 0x00, 0x00, 0x90, 0x2E, 0x7F, 0x00, 0x82, 0x1C, 0x00,
	0x00, 0x92, 0x22, 0x7F, 0x00, 0x99, 0x24, 0x68, 0x01, 0x81, 0x2F, 0x00,
	0x00, 0x91, 0x35, 0x7F, 0x08, 0x89, 0x24, 0x00, 0x00, 0x89, 0x3B, 0x00,
	0x10, 0x80, 0x2E, 0x00, 0x00, 0x82, 0x22, 0x00, 0x02, 0x90, 0x28, 0x71,
	0x00, 0x81, 0x35, 0x00, 0x00, 0x92, 0x1C, 0x71, 0x00, 0x99, 0x24, 0x7D,
	0x02, 0x91, 0x2F, 0x71, 0x0B, 0x89, 0x24, 0x00, 0x0C, 0x80, 0x28, 0x00,
	0x00, 0x82, 0x1C, 0x00, 0x01, 0x81, 0x2F, 0x00, 0x01, 0x90, 0x2D, 0x74,
	0x00, 0x92, 0x21, 0x74, 0x00, 0x99, 0x3B, 0x7D, 0x00, 0x99, 0x28, 0x7F,
	0x02, 0x91, 0x34, 0x74, 0x08, 0x89, 0x3B, 0x00, 0x04, 0x89, 0x28, 0x00,
	0x0A, 0x80, 0x2D, 0x00, 0x00, 0x82, 0x21, 0x00, 0x02, 0x81, 0x34, 0x00,
	0x02, 0x90, 0x28, 0x77, 0x00, 0x92, 0x1C, 0x77, 0x00, 0x99, 0x24, 0x7D,
	0x01, 0x91, 0x2F, 0x77, 0x08, 0x89, 0x24, 0x00, 0x10, 0x80, 0x28, 0x00,
	0x00, 0x82, 0x1C, 0x00, 0x02, 0x90, 0x2B, 0x7A, 0x00, 0x81, 0x2F, 0x00,
	0x00, 0x92, 0x1F, 0x7A, 0x00, 0x99, 0x24, 0x72, 0x01, 0x91, 0x32, 0x7A,
	0x00, 0x99, 0x3B, 0x7A, 0x09, 0x89, 0x24, 0x00, 0x01, 0x89, 0x3B, 0x00,
	0x10, 0x99, 0x24, 0x7C, 0x0C, 0x89, 0x24, 0x00, 0x10, 0x80, 0x2B, 0x00,
	0x00, 0x90, 0x28, 0x68, 0x00, 0x82, 0x1F, 0x00, 0x00, 0x92, 0x1C, 0x68,
	0x00, 0x99, 0x28, 0x7F, 0x00, 0x99, 0x3B, 0x7D, 0x01, 0x81, 0x32, 0x00,
	0x00, 0x91, 0x2F, 0x68, 0x08, 0x80, 0x28, 0x00, 0x00, 0x82, 0x1C, 0x00,
	0x01, 0x81, 0x2F, 0x00, 0x00, 0x89, 0x3B, 0x00, 0x03, 0x89, 0x28, 0x00,
	0x0E, 0x90, 0x28, 0x7F, 0x00, 0x92, 0x1C, 0x7F, 0x00, 0x99, 0x24, 0x74,
	0x01, 0x91, 0x2F, 0x7F, 0x08, 0x89, 0x24, 0x00, 0x0F, 0x80, 0x28, 0x00,
	0x00, 0x82, 0x1C, 0x00, 0x02, 0x81, 0x2F, 0x00, 0x01, 0x90, 0x2B, 0x7F,
	0x00, 0x92, 0x1F, 0x7F, 0x00, 0x99, 0x24, 0x78, 0x00, 0x99, 0x31, 0x53,
	0x02, 0x91, 0x32, 0x7F, 0x09, 0x89, 0x24, 0x00, 0x02, 0x89, 0x31, 0x00,
	0x0D, 0x80, 0x2B, 0x00, 0x00, 0x82, 0x1F, 0x00, 0x02, 0x90, 0x28, 0x62,
	0x00, 0x81, 0x32, 0x00, 0x00, 0x92, 0x1C, 0x62, 0x00, 0x99, 0x24, 0x78,
	0x01, 0x91, 0x2F, 0x62, 0x09, 0x80, 0x28, 0x00, 0x00, 0x82, 0x1C, 0x00,
	0x01, 0x81, 0x2F, 0x00, 0x01, 0x89, 0x24, 0x00, 0x0E, 0x99, 0x3B, 0x70,
	0x01, 0x90, 0x28, 0x71, 0x00, 0x92, 0x1C, 0x71, 0x00, 0x99, 0x28, 0x7F,
	0x01, 0x91, 0x2F, 0x71, 0x07, 0x89, 0x3B, 0x00, 0x02, 0x80, 0x28, 0x00,
	0x00, 0x82, 0x1C, 0x00, 0x01, 0x81, 0x2F, 0x00, 0x02, 0x89, 0x28, 0x00,
	0x0E, 0x90, 0x28, 0x6B, 0x00, 0x92, 0x1C, 0x6B, 0x00, 0x99, 0x24, 0x74,
	0x02, 0x91, 0x2F, 0x6B, 0x07, 0x89, 0x24, 0x00, 0x11, 0x99, 0x3B, 0x74,
	0x01, 0x80, 0x28, 0x00, 0x00, 0x82, 0x1C, 0x00, 0x01, 0x90, 0x2A, 0x7D,
	0x00, 0x81, 0x2F, 0x00, 0x00, 0x92, 0x1E, 0x7D, 0x00, 0x99, 0x24, 0x6E,
	0x01, 0x91, 0x31, 0x7D, 0x07, 0x89, 0x3B, 0x00, 0x01, 0x89, 0x24, 0x00,
	0x10, 0x80, 0x2A, 0x00, 0x00, 0x82, 0x1E, 0x00, 0x02, 0x90, 0x28, 0x6B,
	0x00, 0x81, 0x31, 0x00, 0x00, 0x92, 0x1C, 0x6B, 0x00, 0x99, 0x24, 0x78,
	0x01, 0x91, 0x2F, 0x6B, 0x09, 0x80, 0x28, 0x00, 0x00, 0x82, 0x1C, 0x00,
	0x02, 0x81, 0x2F, 0x00, 0x00, 0x89, 0x24, 0x00, 0x0D, 0x99, 0x3B, 0x7A,
	0x02, 0x90, 0x28, 0x65, 0x00, 0x92, 0x1C, 0x65, 0x00, 0x99, 0x28, 0x7F,
	0x02, 0x91, 0x2F, 0x65, 0x06, 0x89, 0x3B, 0x00, 0x02, 0x80, 0x28, 0x00,
	0x00, 0x82, 0x1C, 0x00, 0x02, 0x81, 0x2F, 0x00, 0x00, 0x89, 0x28, 0x00,
	0x10, 0x90, 0x28, 0x6E, 0x00, 0x92, 0x1C, 0x6E, 0x00, 0x99, 0x24, 0x68,
	0x01, 0x91, 0x2F, 0x6E, 0x08, 0x89, 0x24, 0x00, 0x10, 0x99, 0x3B, 0x6E,
	0x02, 0x90, 0x2E, 0x7F, 0x00, 0x92, 0x22, 0x7F, 0x00, 0x99, 0x24, 0x72,
	0x01, 0x91, 0x35, 0x7F, 0x01, 0x80, 0x28, 0x00, 0x00, 0x82, 0x1C, 0x00,
	0x01, 0x81, 0x2F, 0x00, 0x05, 0x89, 0x3B, 0x00, 0x02, 0x89, 0x24, 0x00,
	0x11, 0x80, 0x2E, 0x00, 0x00, 0x90, 0x28, 0x71, 0x00, 0x82, 0x22, 0x00,
	0x00, 0x92, 0x1C, 0x71, 0x00, 0x99, 0x24, 0x74, 0x01, 0x81, 0x35, 0x00,
	0x01, 0x91, 0x2F, 0x71, 0x0A, 0x89, 0x24, 0x00, 0x0D, 0x80, 0x28, 0x00,
	0x00, 0x82, 0x1C, 0x00, 0x01, 0x99, 0x3B, 0x68, 0x01, 0x90, 0x2D, 0x7F,
	0x00, 0x81, 0x2F, 0x00, 0x00, 0x92, 0x21, 0x7F, 0x00, 0x99, 0x28, 0x7F,
	0x02, 0x91, 0x34, 0x7F, 0x08, 0x89, 0x3B, 0x00, 0x03, 0x89, 0x28, 0x00,
	0x0B, 0x80, 0x2D, 0x00, 0x00, 0x82, 0x21, 0x00, 0x02, 0x81, 0x34, 0x00,
	0x02, 0x90, 0x28, 0x6E, 0x00, 0x92, 0x1C, 0x6E, 0x00, 0x99, 0x24, 0x7D,
	0x01, 0x91, 0x2F, 0x6E, 0x09, 0x89, 0x24, 0x00, 0x10, 0x80, 0x28, 0x00,
	0x00, 0x82, 0x1C, 0x00, 0x00, 0x99, 0x3B, 0x6E, 0x01, 0x90, 0x2B, 0x7A,
	0x00, 0x81, 0x2F, 0x00, 0x00, 0x92, 0x1F, 0x7A, 0x00, 0x99, 0x24, 0x78,
	0x02, 0x91, 0x32, 0x7A, 0x07, 0x89, 0x3B, 0x00, 0x01, 0x89, 0x24, 0x00,
	0x11, 0x80, 0x2B, 0x00, 0x00, 0x90, 0x28, 0x6E, 0x00, 0x82, 0x1F, 0x00,
	0x00, 0x92, 0x1C, 0x6E, 0x00, 0x99, 0x24, 0x7C, 0x02, 0x81, 0x32, 0x00,
	0x00, 0x91, 0x2F, 0x6E, 0x09, 0x80, 0x28, 0x00, 0x00, 0x82, 0x1C, 0x00,
	0x01, 0x81, 0x2F, 0x00, 0x01, 0x89, 0x24, 0x00, 0x0F, 0x90, 0x28, 0x6B,
	0x00, 0x92, 0x1C, 0x6B, 0x00, 0x99, 0x28, 0x7F, 0x00, 0x99, 0x3B, 0x7F,
	0x01, 0x91, 0x2F, 0x6B, 0x08, 0x80, 0x28, 0x00, 0x00, 0x82, 0x1C, 0x00,
	0x01, 0x81, 0x2F, 0x00, 0x01, 0x89, 0x3B, 0x00, 0x00, 0x89, 0x28, 0x00,
	0x10, 0x90, 0x28, 0x6B, 0x00, 0x92, 0x1C, 0x6B, 0x00, 0x99, 0x24, 0x7D,
	0x01, 0x91, 0x2F, 0x6B, 0x09, 0x89, 0x24, 0x00, 0x0F, 0x80, 0x28, 0x00,
	0x00, 0x82, 0x1C, 0x00, 0x01, 0x81, 0x2F, 0x00, 0x01, 0x90, 0x2B, 0x7A,
	0x00, 0x92, 0x1F, 0x7A, 0x00, 0x99, 0x24, 0x74, 0x00, 0x99, 0x31, 0x4D,
	0x02, 0x91, 0x32, 0x7A, 0x08, 0x89, 0x24, 0x00, 0x05, 0x89, 0x31, 0x00,
	0x0C, 0x80, 0x2B, 0x00, 0x00, 0x82, 0x1F, 0x00, 0x01, 0x90, 0x28, 0x71,
	0x00, 0x81, 0x32, 0x00, 0x00, 0x92, 0x1C, 0x71, 0x00, 0x99, 0x24, 0x70,
	0x01, 0x91, 0x2F, 0x71, 0x08, 0x80, 0x28, 0x00, 0x00, 0x82, 0x1C, 0x00,
	0x02, 0x81, 0x2F, 0x00, 0x01, 0x89, 0x24, 0x00, 0x0F, 0x90, 0x28, 0x68,
	0x00, 0x92, 0x1C, 0x68, 0x00, 0x99, 0x28, 0x7F, 0x01, 0x91, 0x2F, 0x68,
	0x00, 0x99, 0x3B, 0x74, 0x09, 0x80, 0x28, 0x00, 0x00, 0x82, 0x1C, 0x00,
	0x01, 0x89, 0x3B, 0x00, 0x01, 0x81, 0x2F, 0x00, 0x01, 0x89, 0x28, 0x00,
	0x0E, 0x90, 0x28, 0x77, 0x00, 0x92, 0x1C, 0x77, 0x00, 0x99, 0x24, 0x78,
	0x02, 0x91, 0x2F, 0x77, 0x08, 0x89, 0x24, 0x00, 0x11, 0x99, 0x3B, 0x72,
	0x01, 0x90, 0x2A, 0x7F, 0x00, 0x80, 0x28, 0x00, 0x00, 0x92, 0x1E, 0x7F,
	0x00, 0x82, 0x1C, 0x00, 0x00, 0x99, 0x24, 0x7A, 0x01, 0x91, 0x31, 0x7F,
	0x00, 0x81, 0x2F, 0x00, 0x08, 0x89, 0x3B, 0x00, 0x01, 0x89, 0x24, 0x00,
	0x11, 0x90, 0x28, 0x6E, 0x00, 0x92, 0x1C, 0x6E, 0x00, 0x99, 0x24, 0x74,
	0x01, 0x80, 0x2A, 0x00, 0x00, 0x91, 0x2F, 0x6E, 0x00, 0x82, 0x1E, 0x00,
	0x02, 0x81, 0x31, 0x00, 0x08, 0x80, 0x28, 0x00, 0x00, 0x82, 0x1C, 0x00,
	0x01, 0x81, 0x2F, 0x00, 0x01, 0x89, 0x24, 0x00, 0x0B, 0x99, 0x3B, 0x7C,
	0x03, 0x90, 0x28, 0x6E, 0x00, 0x92, 0x1C, 0x6E, 0x00, 0x99, 0x28, 0x7F,
	0x02, 0x91, 0x2F, 0x6E, 0x05, 0x89, 0x3B, 0x00, 0x04, 0x80, 0x28, 0x00,
	0x00, 0x82, 0x1C, 0x00, 0x01, 0x81, 0x2F, 0x00, 0x02, 0x89, 0x28, 0x00,
	0x0E, 0x90, 0x28, 0x77, 0x00, 0x92, 0x1C, 0x77, 0x00, 0x99, 0x24, 0x74,
	0x01, 0x91, 0x2F, 0x77, 0x09, 0x89, 0x24, 0x00, 0x0F, 0x99, 0x3B, 0x78,
	0x01, 0x80, 0x28, 0x00, 0x00, 0x82, 0x1C, 0x00, 0x01, 0x90, 0x2E, 0x7F,
	0x00, 0x81, 0x2F, 0x00, 0x00, 0x92, 0x22, 0x7F, 0x00, 0x99, 0x24, 0x70,
	0x01, 0x91, 0x35, 0x7F, 0x07, 0x89, 0x3B, 0x00, 0x03, 0x89, 0x24, 0x00,
	0x0F, 0x80, 0x2E, 0x00, 0x00, 0x82, 0x22, 0x00, 0x01, 0x90, 0x28, 0x68,
	0x00, 0x81, 0x35, 0x00, 0x00, 0x92, 0x1C, 0x68, 0x00, 0x99, 0x24, 0x7A,
	0x02, 0x91, 0x2F, 0x68, 0x0B, 0x89, 0x24, 0x00, 0x0E, 0x80, 0x28, 0x00,
	0x00, 0x82, 0x1C, 0x00, 0x00, 0x99, 0x3B, 0x7A, 0x01, 0x90, 0x2D, 0x7F,
	0x00, 0x81, 0x2F, 0x00, 0x00, 0x92, 0x21, 0x7F, 0x00, 0x99, 0x28, 0x7F,
	0x01, 0x91, 0x34, 0x7F, 0x08, 0x89, 0x3B, 0x00, 0x03, 0x89, 0x28, 0x00,
	0x0D, 0x80, 0x2D, 0x00, 0x00, 0x82, 0x21, 0x00, 0x02, 0x90, 0x28, 0x77,
	0x00, 0x81, 0x34, 0x00, 0x00, 0x92, 0x1C, 0x77, 0x00, 0x99, 0x24, 0x74,
	0x01, 0x91, 0x2F, 0x77, 0x08, 0x89, 0x24, 0x00, 0x10, 0x80, 0x28, 0x00,
	0x00, 0x82, 0x1C, 0x00, 0x01, 0x99, 0x3B, 0x74, 0x01, 0x90, 0x2B, 0x7F,
	0x00, 0x81, 0x2F, 0x00, 0x00, 0x92, 0x1F, 0x7F, 0x00, 0x99, 0x24, 0x7C,
	0x02, 0x91, 0x32, 0x7F, 0x07, 0x89, 0x3B, 0x00, 0x02, 0x89, 0x24, 0x00,
	0x11, 0x80, 0x2B, 0x00, 0x00, 0x90, 0x28, 0x71, 0x00, 0x82, 0x1F, 0x00,
	0x00, 0x92, 0x1C, 0x71, 0x00, 0x99, 0x24, 0x74, 0x01, 0x81, 0x32, 0x00,
	0x00, 0x91, 0x2F, 0x71, 0x09, 0x80, 0x28, 0x00, 0x00, 0x82, 0x1C, 0x00,
	0x00, 0x89, 0x24, 0x00, 0x01, 0x81, 0x2F, 0x00, 0x0F, 0x99, 0x3B, 0x74,
	0x01, 0x90, 0x28, 0x6B, 0x00, 0x92, 0x1C, 0x6B, 0x00, 0x99, 0x28, 0x7F,
	0x01, 0x91, 0x2F, 0x6B, 0x07, 0x89, 0x3B, 0x00, 0x04, 0x80, 0x28, 0x00,
	0x00, 0x82, 0x1C, 0x00, 0x00, 0x89, 0x28, 0x00, 0x01, 0x81, 0x2F, 0x00,
	0x0E, 0x90, 0x28, 0x6B, 0x00, 0x92, 0x1C, 0x6B, 0x00, 0x99, 0x24, 0x7F,
	0x02, 0x91, 0x2F, 0x6B, 0x08, 0x89, 0x24, 0x00, 0x02, 0x80, 0x28, 0x00,
	0x00, 0x82, 0x1C, 0x00, 0x02, 0x81, 0x2F, 0x00, 0x0D, 0x90, 0x28, 0x7F,
	0x00, 0x92, 0x1C, 0x7F, 0x00, 0x92, 0x1C, 0x72, 0x00, 0x99, 0x24, 0x7D,
	0x00, 0x99, 0x29, 0x7F, 0x00, 0x99, 0x2B, 0x7F, 0x00, 0x99, 0x39, 0x50,
	0x01, 0x99, 0x3B, 0x7E, 0x01, 0x91, 0x2F, 0x7F, 0x06, 0x89, 0x3B, 0x00,
	0x01, 0x80, 0x28, 0x00, 0x00, 0x82, 0x1C, 0x00, 0x00, 0x82, 0x1C, 0x00,
	0x02, 0x81, 0x2F, 0x00, 0x00, 0x89, 0x39, 0x00, 0x02, 0x89, 0x24, 0x00,
	0x02, 0x89, 0x2B, 0x00, 0x00, 0x89, 0x29, 0x00, 0x00, 0xFF, 0x2F, 0x00
};

byte Music_Title[8677] = {
	0x4D, 0x54, 0x68, 0x64, 0x00, 0x00, 0x00, 0x06, 0x00, 0x00, 0x00, 0x01,
	0x00, 0x46, 0x4D, 0x54, 0x72, 0x6B, 0x00, 0x00, 0x21, 0xCF, 0x00, 0xC0,
	0x22, 0x00, 0xB0, 0x07, 0x64, 0x00, 0xB0, 0x0A, 0x22, 0x00, 0x90, 0x1C,
	0x7C, 0x00, 0xC1, 0x25, 0x00, 0xB1, 0x07, 0x64, 0x00, 0xB1, 0x0A, 0x5E,
	0x00, 0xC2, 0x12, 0x00, 0xB2, 0x07, 0x64, 0x00, 0xB2, 0x0A, 0x57, 0x00,
	0xC3, 0x12, 0x00, 0xB3, 0x07, 0x64, 0x00, 0xB3, 0x0A, 0x27, 0x00, 0xC4,
	0x12, 0x00, 0xB4, 0x07, 0x64, 0x00, 0xB4, 0x0A, 0x40, 0x00, 0xC5, 0x76,
	0x00, 0xB5, 0x07, 0x64, 0x00, 0xB5, 0x0A, 0x40, 0x00, 0xC6, 0x75, 0x00,
	0xB6, 0x07, 0x64, 0x00, 0xB6, 0x0A, 0x40, 0x00, 0xC7, 0x1D, 0x00, 0xB7,
	0x07, 0x78, 0x00, 0xB7, 0x0A, 0x40, 0x00, 0xC9, 0x00, 0x00, 0xB9, 0x07,
	0x64, 0x00, 0xB9, 0x0A, 0x40, 0x00, 0x99, 0x23, 0x70, 0x09, 0x80, 0x1C,
	0x00, 0x01, 0x89, 0x23, 0x00, 0x0B, 0x90, 0x1C, 0x7C, 0x00, 0x99, 0x23,
	0x68, 0x0B, 0x89, 0x23, 0x00, 0x0A, 0x99, 0x2C, 0x72, 0x07, 0x80, 0x1C,
	0x00, 0x0D, 0x90, 0x1C, 0x70, 0x00, 0x99, 0x23, 0x68, 0x05, 0x89, 0x2C,
	0x00, 0x02, 0x80, 0x1C, 0x00, 0x03, 0x89, 0x23, 0x00, 0x0C, 0x90, 0x1C,
	0x78, 0x00, 0x99, 0x23, 0x68, 0x0C, 0x89, 0x23, 0x00, 0x0D, 0x80, 0x1C,
	0x00, 0x10, 0x90, 0x1C, 0x5C, 0x00, 0x99, 0x23, 0x70, 0x00, 0x99, 0x2C,
	0x7D, 0x07, 0x80, 0x1C, 0x00, 0x03, 0x89, 0x23, 0x00, 0x0A, 0x89, 0x2C,
	0x00, 0x01, 0x90, 0x1C, 0x70, 0x01, 0x99, 0x23, 0x6E, 0x0D, 0x89, 0x23,
	0x00, 0x0D, 0x80, 0x1C, 0x00, 0x0D, 0x90, 0x1C, 0x6E, 0x03, 0x99, 0x23,
	0x74, 0x04, 0x80, 0x1C, 0x00, 0x05, 0x89, 0x23, 0x00, 0x0A, 0x90, 0x1C,
	0x72, 0x02, 0x99, 0x23, 0x7A, 0x00, 0x99, 0x2C, 0x7A, 0x0E, 0x89, 0x23,
	0x00, 0x00, 0x89, 0x2C, 0x00, 0x0B, 0x80, 0x1C, 0x00, 0x0E, 0x90, 0x1C,
	0x74, 0x02, 0x99, 0x23, 0x7F, 0x0F, 0x89, 0x23, 0x00, 0x16, 0x80, 0x1C,
	0x00, 0x06, 0x95, 0x28, 0x7F, 0x00, 0x95, 0x26, 0x7F, 0x00, 0x96, 0x28,
	0x7A, 0x00, 0x96, 0x29, 0x76, 0x00, 0x99, 0x2C, 0x7A, 0x00, 0x99, 0x2F,
	0x75, 0x00, 0x99, 0x30, 0x75, 0x00, 0x99, 0x32, 0x66, 0x00, 0x99, 0x28,
	0x7F, 0x00, 0x99, 0x29, 0x5E, 0x01, 0x91, 0x22, 0x7F, 0x0C, 0x89, 0x28,
	0x00, 0x00, 0x89, 0x2F, 0x00, 0x00, 0x89, 0x32, 0x00, 0x01, 0x86, 0x29,
	0x00, 0x00, 0x86, 0x28, 0x00, 0x00, 0x89, 0x30, 0x00, 0x01, 0x89, 0x2C,
	0x00, 0x01, 0x89, 0x29, 0x00, 0x09, 0x85, 0x26, 0x00, 0x00, 0x85, 0x28,
	0x00, 0x0B, 0x81, 0x22, 0x00, 0x06, 0x90, 0x1C, 0x6E, 0x00, 0x99, 0x23,
	0x70, 0x07, 0x80, 0x1C, 0x00, 0x03, 0x89, 0x23, 0x00, 0x09, 0x90, 0x1C,
	0x68, 0x02, 0x99, 0x23, 0x72, 0x0C, 0x89, 0x23, 0x00, 0x09, 0x99, 0x2C,
	0x7F, 0x07, 0x80, 0x1C, 0x00, 0x07, 0x89, 0x2C, 0x00, 0x07, 0x90, 0x1C,
	0x65, 0x00, 0x99, 0x23, 0x6E, 0x06, 0x80, 0x1C, 0x00, 0x03, 0x89, 0x23,
	0x00, 0x0C, 0x99, 0x23, 0x74, 0x01, 0x90, 0x1C, 0x74, 0x0C, 0x89, 0x23,
	0x00, 0x0F, 0x80, 0x1C, 0x00, 0x0D, 0x90, 0x1C, 0x62, 0x00, 0x99, 0x23,
	0x72, 0x00, 0x99, 0x2C, 0x7C, 0x07, 0x80, 0x1C, 0x00, 0x03, 0x89, 0x23,
	0x00, 0x04, 0x89, 0x2C, 0x00, 0x07, 0x99, 0x23, 0x68, 0x02, 0x90, 0x1C,
	0x7C, 0x0C, 0x89, 0x23, 0x00, 0x0C, 0x80, 0x1C, 0x00, 0x0E, 0x90, 0x1C,
	0x62, 0x03, 0x99, 0x23, 0x74, 0x03, 0x80, 0x1C, 0x00, 0x06, 0x89, 0x23,
	0x00, 0x09, 0x90, 0x1C, 0x68, 0x03, 0x99, 0x23, 0x74, 0x00, 0x99, 0x2C,
	0x7F, 0x0D, 0x89, 0x23, 0x00, 0x01, 0x89, 0x2C, 0x00, 0x09, 0x80, 0x1C,
	0x00, 0x10, 0x90, 0x1C, 0x74, 0x03, 0x99, 0x23, 0x7D, 0x0B, 0x89, 0x23,
	0x00, 0x18, 0x80, 0x1C, 0x00, 0x07, 0x95, 0x28, 0x7F, 0x00, 0x95, 0x26,
	0x7F, 0x00, 0x96, 0x29, 0x78, 0x00, 0x96, 0x28, 0x7F, 0x00, 0x99, 0x2C,
	0x7C, 0x00, 0x99, 0x2F, 0x75, 0x00, 0x99, 0x30, 0x75, 0x00, 0x99, 0x28,
	0x7F, 0x00, 0x99, 0x29, 0x66, 0x00, 0x99, 0x32, 0x6A, 0x02, 0x91, 0x23,
	0x7F, 0x09, 0x89, 0x30, 0x00, 0x01, 0x89, 0x2F, 0x00, 0x01, 0x89, 0x32,
	0x00, 0x01, 0x86, 0x29, 0x00, 0x00, 0x86, 0x28, 0x00, 0x00, 0x89, 0x2C,
	0x00, 0x00, 0x89, 0x28, 0x00, 0x02, 0x89, 0x29, 0x00, 0x02, 0x85, 0x28,
	0x00, 0x02, 0x85, 0x26, 0x00, 0x09, 0x81, 0x23, 0x00, 0x0D, 0x99, 0x23,
	0x68, 0x01, 0x90, 0x1C, 0x6E, 0x06, 0x80, 0x1C, 0x00, 0x02, 0x89, 0x23,
	0x00, 0x0C, 0x90, 0x1C, 0x6E, 0x00, 0x99, 0x23, 0x6E, 0x0D, 0x89, 0x23,
	0x00, 0x08, 0x99, 0x2C, 0x7F, 0x06, 0x80, 0x1C, 0x00, 0x06, 0x89, 0x2C,
	0x00, 0x08, 0x90, 0x1C, 0x53, 0x01, 0x99, 0x23, 0x68, 0x05, 0x80, 0x1C,
	0x00, 0x03, 0x89, 0x23, 0x00, 0x0D, 0x90, 0x1C, 0x7C, 0x00, 0x99, 0x23,
	0x6E, 0x0D, 0x89, 0x23, 0x00, 0x0E, 0x80, 0x1C, 0x00, 0x0E, 0x90, 0x1C,
	0x62, 0x01, 0x99, 0x23, 0x56, 0x00, 0x99, 0x2C, 0x7F, 0x06, 0x80, 0x1C,
	0x00, 0x02, 0x89, 0x23, 0x00, 0x05, 0x89, 0x2C, 0x00, 0x07, 0x90, 0x1C,
	0x74, 0x01, 0x99, 0x23, 0x74, 0x0D, 0x89, 0x23, 0x00, 0x0E, 0x80, 0x1C,
	0x00, 0x0C, 0x90, 0x1C, 0x68, 0x03, 0x99, 0x23, 0x68, 0x04, 0x80, 0x1C,
	0x00, 0x05, 0x89, 0x23, 0x00, 0x0A, 0x90, 0x1C, 0x6E, 0x02, 0x99, 0x23,
	0x74, 0x00, 0x99, 0x2C, 0x7F, 0x0C, 0x89, 0x23, 0x00, 0x00, 0x89, 0x2C,
	0x00, 0x0B, 0x80, 0x1C, 0x00, 0x11, 0x90, 0x1C, 0x70, 0x01, 0x99, 0x23,
	0x7F, 0x0E, 0x89, 0x23, 0x00, 0x15, 0x80, 0x1C, 0x00, 0x07, 0x95, 0x28,
	0x7D, 0x00, 0x95, 0x26, 0x7F, 0x00, 0x96, 0x29, 0x7C, 0x00, 0x96, 0x28,
	0x7F, 0x00, 0x99, 0x2C, 0x7F, 0x00, 0x99, 0x2F, 0x75, 0x00, 0x99, 0x30,
	0x73, 0x01, 0x99, 0x28, 0x7D, 0x00, 0x99, 0x29, 0x4F, 0x00, 0x99, 0x2B,
	0x0E, 0x00, 0x99, 0x32, 0x72, 0x02, 0x91, 0x24, 0x7D, 0x02, 0x89, 0x2B,
	0x00, 0x07, 0x89, 0x30, 0x00, 0x02, 0x89, 0x2C, 0x00, 0x00, 0x89, 0x2F,
	0x00, 0x00, 0x89, 0x28, 0x00, 0x00, 0x89, 0x32, 0x00, 0x01, 0x86, 0x29,
	0x00, 0x01, 0x86, 0x28, 0x00, 0x01, 0x89, 0x29, 0x00, 0x01, 0x85, 0x28,
	0x00, 0x01, 0x85, 0x26, 0x00, 0x0F, 0x81, 0x24, 0x00, 0x08, 0x99, 0x23,
	0x74, 0x01, 0x90, 0x1C, 0x7C, 0x07, 0x80, 0x1C, 0x00, 0x02, 0x89, 0x23,
	0x00, 0x0C, 0x90, 0x1C, 0x68, 0x00, 0x99, 0x23, 0x6E, 0x0D, 0x89, 0x23,
	0x00, 0x08, 0x99, 0x2C, 0x7F, 0x06, 0x80, 0x1C, 0x00, 0x06, 0x89, 0x2C,
	0x00, 0x07, 0x90, 0x1C, 0x6E, 0x02, 0x99, 0x23, 0x74, 0x05, 0x80, 0x1C,
	0x00, 0x04, 0x89, 0x23, 0x00, 0x09, 0x90, 0x1C, 0x68, 0x03, 0x99, 0x23,
	0x7D, 0x0C, 0x89, 0x23, 0x00, 0x0E, 0x80, 0x1C, 0x00, 0x0D, 0x90, 0x1C,
	0x68, 0x03, 0x99, 0x23, 0x74, 0x00, 0x99, 0x2C, 0x7F, 0x04, 0x80, 0x1C,
	0x00, 0x05, 0x89, 0x23, 0x00, 0x02, 0x89, 0x2C, 0x00, 0x08, 0x90, 0x1C,
	0x6E, 0x02, 0x99, 0x23, 0x7E, 0x0D, 0x89, 0x23, 0x00, 0x0D, 0x80, 0x1C,
	0x00, 0x0E, 0x90, 0x1C, 0x68, 0x02, 0x99, 0x23, 0x70, 0x05, 0x80, 0x1C,
	0x00, 0x03, 0x89, 0x23, 0x00, 0x0A, 0x90, 0x1C, 0x70, 0x03, 0x99, 0x23,
	0x7E, 0x00, 0x99, 0x2C, 0x7F, 0x0C, 0x89, 0x2C, 0x00, 0x01, 0x89, 0x23,
	0x00, 0x16, 0x80, 0x1C, 0x00, 0x06, 0x99, 0x28, 0x7A, 0x00, 0x99, 0x29,
	0x52, 0x01, 0x91, 0x25, 0x7A, 0x00, 0x95, 0x28, 0x7F, 0x00, 0x95, 0x26,
	0x7F, 0x00, 0x96, 0x29, 0x7D, 0x00, 0x96, 0x28, 0x7F, 0x00, 0x99, 0x23,
	0x7F, 0x00, 0x99, 0x2F, 0x72, 0x00, 0x99, 0x30, 0x64, 0x00, 0x99, 0x32,
	0x52, 0x0A, 0x89, 0x32, 0x00, 0x01, 0x85, 0x26, 0x00, 0x00, 0x85, 0x28,
	0x00, 0x00, 0x86, 0x29, 0x00, 0x00, 0x89, 0x28, 0x00, 0x00, 0x89, 0x29,
	0x00, 0x00, 0x89, 0x30, 0x00, 0x01, 0x89, 0x2F, 0x00, 0x01, 0x86, 0x28,
	0x00, 0x00, 0x89, 0x23, 0x00, 0x0F, 0x81, 0x25, 0x00, 0x0D, 0x99, 0x28,
	0x7E, 0x00, 0x99, 0x29, 0x5E, 0x00, 0x99, 0x32, 0x5E, 0x01, 0x95, 0x28,
	0x7F, 0x00, 0x95, 0x26, 0x76, 0x00, 0x96, 0x29, 0x7A, 0x00, 0x96, 0x28,
	0x76, 0x00, 0x99, 0x2C, 0x7F, 0x00, 0x99, 0x2F, 0x72, 0x00, 0x99, 0x30,
	0x6C, 0x01, 0x91, 0x23, 0x74, 0x08, 0x89, 0x32, 0x00, 0x02, 0x85, 0x26,
	0x00, 0x00, 0x86, 0x29, 0x00, 0x00, 0x89, 0x30, 0x00, 0x00, 0x89, 0x28,
	0x00, 0x00, 0x89, 0x29, 0x00, 0x00, 0x89, 0x2C, 0x00, 0x01, 0x86, 0x28,
	0x00, 0x00, 0x89, 0x2F, 0x00, 0x02, 0x85, 0x28, 0x00, 0x03, 0x81, 0x23,
	0x00, 0x17, 0x90, 0x1C, 0x74, 0x02, 0x99, 0x23, 0x70, 0x00, 0x99, 0x2A,
	0x7A, 0x04, 0x89, 0x2A, 0x00, 0x01, 0x80, 0x1C, 0x00, 0x05, 0x89, 0x23,
	0x00, 0x0A, 0x90, 0x1C, 0x7C, 0x01, 0x99, 0x23, 0x68, 0x00, 0x99, 0x2A,
	0x65, 0x04, 0x89, 0x2A, 0x00, 0x07, 0x89, 0x23, 0x00, 0x0A, 0x99, 0x2A,
	0x4D, 0x04, 0x89, 0x2A, 0x00, 0x03, 0x80, 0x1C, 0x00, 0x0E, 0x90, 0x1C,
	0x70, 0x00, 0x99, 0x23, 0x68, 0x00, 0x99, 0x2A, 0x78, 0x04, 0x89, 0x2A,
	0x00, 0x02, 0x80, 0x1C, 0x00, 0x03, 0x89, 0x23, 0x00, 0x0C, 0x90, 0x1C,
	0x78, 0x00, 0x99, 0x23, 0x68, 0x00, 0x99, 0x2A, 0x7D, 0x05, 0x89, 0x2A,
	0x00, 0x07, 0x89, 0x23, 0x00, 0x09, 0x99, 0x2A, 0x59, 0x04, 0x80, 0x1C,
	0x00, 0x00, 0x89, 0x2A, 0x00, 0x10, 0x90, 0x1C, 0x5C, 0x01, 0x99, 0x23,
	0x70, 0x00, 0x99, 0x2A, 0x59, 0x04, 0x89, 0x2A, 0x00, 0x02, 0x80, 0x1C,
	0x00, 0x03, 0x89, 0x23, 0x00, 0x0B, 0x90, 0x1C, 0x70, 0x01, 0x99, 0x23,
	0x6E, 0x00, 0x99, 0x2A, 0x7A, 0x05, 0x89, 0x2A, 0x00, 0x08, 0x89, 0x23,
	0x00, 0x08, 0x99, 0x2A, 0x4A, 0x05, 0x80, 0x1C, 0x00, 0x00, 0x89, 0x2A,
	0x00, 0x0D, 0x90, 0x1C, 0x6E, 0x03, 0x99, 0x23, 0x74, 0x00, 0x99, 0x2A,
	0x59, 0x04, 0x80, 0x1C, 0x00, 0x00, 0x89, 0x2A, 0x00, 0x05, 0x89, 0x23,
	0x00, 0x0A, 0x90, 0x1C, 0x72, 0x02, 0x99, 0x23, 0x7A, 0x00, 0x99, 0x2A,
	0x70, 0x06, 0x89, 0x2A, 0x00, 0x08, 0x89, 0x23, 0x00, 0x07, 0x99, 0x2A,
	0x59, 0x04, 0x80, 0x1C, 0x00, 0x01, 0x89, 0x2A, 0x00, 0x0D, 0x90, 0x1C,
	0x74, 0x03, 0x99, 0x23, 0x7F, 0x00, 0x99, 0x2A, 0x78, 0x05, 0x89, 0x2A,
	0x00, 0x09, 0x89, 0x23, 0x00, 0x07, 0x99, 0x2A, 0x65, 0x05, 0x89, 0x2A,
	0x00, 0x0A, 0x80, 0x1C, 0x00, 0x06, 0x95, 0x28, 0x7F, 0x00, 0x95, 0x26,
	0x7F, 0x00, 0x96, 0x29, 0x6E, 0x00, 0x96, 0x28, 0x7A, 0x00, 0x99, 0x2F,
	0x75, 0x00, 0x99, 0x30, 0x75, 0x00, 0x99, 0x31, 0x7F, 0x00, 0x99, 0x32,
	0x66, 0x00, 0x99, 0x28, 0x7F, 0x00, 0x99, 0x29, 0x5E, 0x01, 0x91, 0x22,
	0x7F, 0x08, 0x89, 0x31, 0x00, 0x02, 0x89, 0x2F, 0x00, 0x00, 0x89, 0x30,
	0x00, 0x02, 0x89, 0x28, 0x00, 0x00, 0x89, 0x32, 0x00, 0x03, 0x85, 0x28,
	0x00, 0x00, 0x89, 0x29, 0x00, 0x01, 0x86, 0x28, 0x00, 0x00, 0x86, 0x29,
	0x00, 0x01, 0x85, 0x26, 0x00, 0x03, 0x99, 0x31, 0x01, 0x0F, 0x81, 0x22,
	0x00, 0x06, 0x90, 0x1C, 0x6E, 0x00, 0x99, 0x23, 0x70, 0x00, 0x99, 0x2A,
	0x68, 0x04, 0x89, 0x2A, 0x00, 0x03, 0x80, 0x1C, 0x00, 0x03, 0x89, 0x23,
	0x00, 0x09, 0x90, 0x1C, 0x68, 0x02, 0x99, 0x23, 0x72, 0x00, 0x99, 0x2A,
	0x68, 0x04, 0x89, 0x2A, 0x00, 0x08, 0x89, 0x23, 0x00, 0x09, 0x99, 0x2A,
	0x4D, 0x05, 0x89, 0x2A, 0x00, 0x02, 0x80, 0x1C, 0x00, 0x0E, 0x90, 0x1C,
	0x65, 0x00, 0x99, 0x23, 0x6E, 0x00, 0x99, 0x2A, 0x59, 0x04, 0x89, 0x2A,
	0x00, 0x02, 0x80, 0x1C, 0x00, 0x03, 0x89, 0x23, 0x00, 0x0C, 0x99, 0x23,
	0x74, 0x00, 0x99, 0x2A, 0x7D, 0x01, 0x90, 0x1C, 0x74, 0x05, 0x89, 0x2A,
	0x00, 0x07, 0x89, 0x23, 0x00, 0x08, 0x99, 0x2A, 0x53, 0x05, 0x89, 0x2A,
	0x00, 0x02, 0x80, 0x1C, 0x00, 0x0D, 0x90, 0x1C, 0x62, 0x00, 0x99, 0x23,
	0x72, 0x00, 0x99, 0x2A, 0x70, 0x05, 0x89, 0x2A, 0x00, 0x02, 0x80, 0x1C,
	0x00, 0x03, 0x89, 0x23, 0x00, 0x0B, 0x99, 0x23, 0x68, 0x00, 0x99, 0x2A,
	0x6B, 0x02, 0x90, 0x1C, 0x7C, 0x04, 0x89, 0x2A, 0x00, 0x08, 0x89, 0x23,
	0x00, 0x07, 0x99, 0x2A, 0x59, 0x05, 0x80, 0x1C, 0x00, 0x01, 0x89, 0x2A,
	0x00, 0x0D, 0x90, 0x1C, 0x62, 0x02, 0x99, 0x23, 0x74, 0x00, 0x99, 0x2A,
	0x70, 0x04, 0x80, 0x1C, 0x00, 0x01, 0x89, 0x2A, 0x00, 0x05, 0x89, 0x23,
	0x00, 0x09, 0x90, 0x1C, 0x68, 0x02, 0x99, 0x23, 0x74, 0x00, 0x99, 0x2A,
	0x7F, 0x06, 0x89, 0x2A, 0x00, 0x08, 0x89, 0x23, 0x00, 0x07, 0x99, 0x2A,
	0x70, 0x03, 0x80, 0x1C, 0x00, 0x03, 0x89, 0x2A, 0x00, 0x0D, 0x90, 0x1C,
	0x74, 0x02, 0x99, 0x23, 0x7D, 0x00, 0x99, 0x2A, 0x7D, 0x06, 0x89, 0x2A,
	0x00, 0x06, 0x89, 0x23, 0x00, 0x09, 0x99, 0x2A, 0x78, 0x06, 0x89, 0x2A,
	0x00, 0x09, 0x80, 0x1C, 0x00, 0x06, 0x95, 0x28, 0x7F, 0x00, 0x95, 0x26,
	0x7F, 0x00, 0x96, 0x29, 0x7A, 0x00, 0x96, 0x28, 0x7F, 0x00, 0x99, 0x2F,
	0x75, 0x00, 0x99, 0x30, 0x73, 0x00, 0x89, 0x31, 0x00, 0x00, 0x99, 0x31,
	0x74, 0x01, 0x99, 0x28, 0x7F, 0x00, 0x99, 0x29, 0x66, 0x00, 0x99, 0x32,
	0x6A, 0x02, 0x91, 0x23, 0x7F, 0x07, 0x89, 0x30, 0x00, 0x01, 0x89, 0x31,
	0x00, 0x01, 0x89, 0x2F, 0x00, 0x01, 0x86, 0x29, 0x00, 0x01, 0x89, 0x32,
	0x00, 0x01, 0x86, 0x28, 0x00, 0x00, 0x89, 0x28, 0x00, 0x02, 0x89, 0x29,
	0x00, 0x01, 0x85, 0x28, 0x00, 0x01, 0x85, 0x26, 0x00, 0x02, 0x99, 0x31,
	0x01, 0x01, 0x89, 0x31, 0x00, 0x08, 0x81, 0x23, 0x00, 0x0C, 0x99, 0x23,
	0x68, 0x00, 0x99, 0x2A, 0x78, 0x02, 0x90, 0x1C, 0x6E, 0x04, 0x89, 0x2A,
	0x00, 0x02, 0x80, 0x1C, 0x00, 0x02, 0x89, 0x23, 0x00, 0x0B, 0x99, 0x23,
	0x6E, 0x00, 0x99, 0x2A, 0x68, 0x01, 0x90, 0x1C, 0x6E, 0x05, 0x89, 0x2A,
	0x00, 0x08, 0x89, 0x23, 0x00, 0x08, 0x99, 0x2A, 0x56, 0x05, 0x89, 0x2A,
	0x00, 0x01, 0x80, 0x1C, 0x00, 0x0E, 0x90, 0x1C, 0x53, 0x01, 0x99, 0x23,
	0x68, 0x00, 0x99, 0x2A, 0x65, 0x04, 0x89, 0x2A, 0x00, 0x01, 0x80, 0x1C,
	0x00, 0x03, 0x89, 0x23, 0x00, 0x0D, 0x90, 0x1C, 0x7C, 0x00, 0x99, 0x23,
	0x6E, 0x00, 0x99, 0x2A, 0x72, 0x05, 0x89, 0x2A, 0x00, 0x08, 0x89, 0x23,
	0x00, 0x08, 0x99, 0x2A, 0x59, 0x04, 0x89, 0x2A, 0x00, 0x02, 0x80, 0x1C,
	0x00, 0x0E, 0x90, 0x1C, 0x62, 0x01, 0x99, 0x23, 0x56, 0x00, 0x99, 0x2A,
	0x7A, 0x04, 0x89, 0x2A, 0x00, 0x02, 0x80, 0x1C, 0x00, 0x02, 0x89, 0x23,
	0x00, 0x0C, 0x90, 0x1C, 0x74, 0x01, 0x99, 0x23, 0x74, 0x00, 0x99, 0x2A,
	0x7A, 0x05, 0x89, 0x2A, 0x00, 0x08, 0x89, 0x23, 0x00, 0x08, 0x99, 0x2A,
	0x59, 0x06, 0x80, 0x1C, 0x00, 0x00, 0x89, 0x2A, 0x00, 0x0C, 0x90, 0x1C,
	0x68, 0x03, 0x99, 0x23, 0x68, 0x00, 0x99, 0x2A, 0x62, 0x04, 0x80, 0x1C,
	0x00, 0x00, 0x89, 0x2A, 0x00, 0x05, 0x89, 0x23, 0x00, 0x0A, 0x90, 0x1C,
	0x6E, 0x02, 0x99, 0x23, 0x74, 0x00, 0x99, 0x2A, 0x7E, 0x05, 0x89, 0x2A,
	0x00, 0x07, 0x89, 0x23, 0x00, 0x09, 0x99, 0x2A, 0x68, 0x02, 0x80, 0x1C,
	0x00, 0x03, 0x89, 0x2A, 0x00, 0x0E, 0x90, 0x1C, 0x70, 0x02, 0x99, 0x23,
	0x7F, 0x00, 0x99, 0x2A, 0x7F, 0x06, 0x89, 0x2A, 0x00, 0x07, 0x89, 0x23,
	0x00, 0x08, 0x99, 0x2A, 0x7E, 0x05, 0x89, 0x2A, 0x00, 0x09, 0x80, 0x1C,
	0x00, 0x07, 0x95, 0x28, 0x7F, 0x00, 0x95, 0x26, 0x7F, 0x00, 0x96, 0x29,
	0x78, 0x00, 0x96, 0x28, 0x76, 0x00, 0x99, 0x2F, 0x75, 0x00, 0x99, 0x30,
	0x75, 0x00, 0x99, 0x31, 0x7F, 0x00, 0x99, 0x28, 0x7D, 0x00, 0x99, 0x29,
	0x4F, 0x00, 0x99, 0x2B, 0x0E, 0x00, 0x99, 0x32, 0x72, 0x02, 0x91, 0x24,
	0x7D, 0x02, 0x89, 0x2B, 0x00, 0x05, 0x89, 0x31, 0x00, 0x04, 0x89, 0x2F,
	0x00, 0x00, 0x89, 0x30, 0x00, 0x01, 0x86, 0x28, 0x00, 0x00, 0x86, 0x29,
	0x00, 0x00, 0x89, 0x28, 0x00, 0x00, 0x89, 0x32, 0x00, 0x02, 0x89, 0x29,
	0x00, 0x02, 0x85, 0x28, 0x00, 0x00, 0x85, 0x26, 0x00, 0x03, 0x99, 0x31,
	0x01, 0x0C, 0x81, 0x24, 0x00, 0x09, 0x90, 0x1C, 0x65, 0x00, 0x99, 0x23,
	0x62, 0x00, 0x99, 0x2A, 0x7E, 0x05, 0x89, 0x2A, 0x00, 0x02, 0x80, 0x1C,
	0x00, 0x02, 0x89, 0x23, 0x00, 0x0B, 0x90, 0x1C, 0x56, 0x01, 0x99, 0x23,
	0x68, 0x00, 0x99, 0x2A, 0x76, 0x06, 0x89, 0x2A, 0x00, 0x05, 0x89, 0x23,
	0x00, 0x0A, 0x99, 0x2A, 0x68, 0x05, 0x89, 0x2A, 0x00, 0x01, 0x80, 0x1C,
	0x00, 0x0E, 0x90, 0x1C, 0x62, 0x01, 0x99, 0x23, 0x70, 0x00, 0x99, 0x2A,
	0x7D, 0x04, 0x89, 0x2A, 0x00, 0x01, 0x80, 0x1C, 0x00, 0x04, 0x89, 0x23,
	0x00, 0x0B, 0x90, 0x1C, 0x74, 0x01, 0x99, 0x23, 0x72, 0x00, 0x99, 0x2A,
	0x7D, 0x05, 0x89, 0x2A, 0x00, 0x08, 0x89, 0x23, 0x00, 0x08, 0x99, 0x2A,
	0x4D, 0x05, 0x80, 0x1C, 0x00, 0x00, 0x89, 0x2A, 0x00, 0x0E, 0x90, 0x1C,
	0x53, 0x02, 0x99, 0x23, 0x68, 0x00, 0x99, 0x2A, 0x76, 0x04, 0x80, 0x1C,
	0x00, 0x00, 0x89, 0x2A, 0x00, 0x05, 0x89, 0x23, 0x00, 0x09, 0x90, 0x1C,
	0x62, 0x03, 0x99, 0x23, 0x70, 0x00, 0x99, 0x2A, 0x7A, 0x05, 0x89, 0x2A,
	0x00, 0x08, 0x89, 0x23, 0x00, 0x08, 0x99, 0x2A, 0x53, 0x05, 0x80, 0x1C,
	0x00, 0x00, 0x89, 0x2A, 0x00, 0x0F, 0x90, 0x1C, 0x74, 0x01, 0x99, 0x23,
	0x70, 0x00, 0x99, 0x2A, 0x72, 0x05, 0x89, 0x2A, 0x00, 0x01, 0x80, 0x1C,
	0x00, 0x03, 0x89, 0x23, 0x00, 0x0C, 0x90, 0x1C, 0x7D, 0x00, 0x99, 0x23,
	0x68, 0x00, 0x99, 0x2A, 0x7D, 0x05, 0x89, 0x2A, 0x00, 0x09, 0x89, 0x23,
	0x00, 0x07, 0x99, 0x2A, 0x7F, 0x05, 0x89, 0x2A, 0x00, 0x09, 0x80, 0x1C,
	0x00, 0x06, 0x99, 0x28, 0x70, 0x00, 0x99, 0x29, 0x52, 0x00, 0x99, 0x32,
	0x6A, 0x01, 0x90, 0x25, 0x7F, 0x00, 0x95, 0x28, 0x78, 0x00, 0x95, 0x26,
	0x74, 0x00, 0x96, 0x29, 0x74, 0x00, 0x96, 0x28, 0x7F, 0x00, 0x99, 0x23,
	0x7F, 0x00, 0x89, 0x31, 0x00, 0x00, 0x99, 0x31, 0x7F, 0x01, 0x91, 0x25,
	0x7F, 0x07, 0x85, 0x28, 0x00, 0x00, 0x89, 0x28, 0x00, 0x00, 0x89, 0x29,
	0x00, 0x00, 0x89, 0x32, 0x00, 0x01, 0x85, 0x26, 0x00, 0x00, 0x86, 0x28,
	0x00, 0x00, 0x86, 0x29, 0x00, 0x01, 0x89, 0x31, 0x00, 0x04, 0x89, 0x23,
	0x00, 0x05, 0x80, 0x25, 0x00, 0x01, 0x99, 0x28, 0x74, 0x00, 0x99, 0x29,
	0x64, 0x01, 0x90, 0x24, 0x70, 0x00, 0x95, 0x28, 0x7A, 0x00, 0x95, 0x26,
	0x74, 0x00, 0x96, 0x29, 0x72, 0x00, 0x96, 0x28, 0x7E, 0x00, 0x99, 0x30,
	0x73, 0x00, 0x99, 0x31, 0x01, 0x01, 0x91, 0x24, 0x5C, 0x01, 0x81, 0x25,
	0x00, 0x05, 0x86, 0x28, 0x00, 0x00, 0x86, 0x29, 0x00, 0x00, 0x89, 0x28,
	0x00, 0x00, 0x89, 0x29, 0x00, 0x01, 0x85, 0x26, 0x00, 0x01, 0x85, 0x28,
	0x00, 0x00, 0x89, 0x30, 0x00, 0x09, 0x80, 0x24, 0x00, 0x02, 0x99, 0x28,
	0x74, 0x00, 0x99, 0x29, 0x64, 0x00, 0x99, 0x2F, 0x64, 0x01, 0x91, 0x23,
	0x6E, 0x00, 0x95, 0x28, 0x7C, 0x00, 0x95, 0x26, 0x7A, 0x00, 0x96, 0x28,
	0x68, 0x00, 0x96, 0x29, 0x78, 0x00, 0x99, 0x23, 0x7F, 0x00, 0x89, 0x31,
	0x00, 0x00, 0x99, 0x31, 0x7F, 0x02, 0x90, 0x23, 0x7F, 0x02, 0x81, 0x24,
	0x00, 0x03, 0x86, 0x29, 0x00, 0x00, 0x89, 0x28, 0x00, 0x00, 0x89, 0x2F,
	0x00, 0x01, 0x85, 0x26, 0x00, 0x00, 0x85, 0x28, 0x00, 0x00, 0x89, 0x29,
	0x00, 0x01, 0x86, 0x28, 0x00, 0x00, 0x89, 0x31, 0x00, 0x02, 0x81, 0x23,
	0x00, 0x01, 0x89, 0x23, 0x00, 0x04, 0x91, 0x23, 0x41, 0x04, 0x90, 0x22,
	0x78, 0x00, 0x99, 0x28, 0x7D, 0x00, 0x99, 0x29, 0x70, 0x00, 0x99, 0x2D,
	0x72, 0x01, 0x80, 0x23, 0x00, 0x00, 0x95, 0x28, 0x7D, 0x00, 0x95, 0x26,
	0x74, 0x00, 0x96, 0x29, 0x70, 0x00, 0x96, 0x28, 0x7D, 0x00, 0x99, 0x31,
	0x01, 0x03, 0x81, 0x23, 0x00, 0x05, 0x89, 0x2D, 0x00, 0x01, 0x85, 0x28,
	0x00, 0x00, 0x89, 0x29, 0x00, 0x00, 0x89, 0x28, 0x00, 0x01, 0x86, 0x29,
	0x00, 0x01, 0x85, 0x26, 0x00, 0x00, 0x86, 0x28, 0x00, 0x05, 0x80, 0x22,
	0x00, 0x05, 0x92, 0x40, 0x68, 0x00, 0x93, 0x43, 0x7A, 0x00, 0x94, 0x47,
	0x74, 0x00, 0x99, 0x24, 0x68, 0x00, 0x89, 0x31, 0x00, 0x00, 0x99, 0x31,
	0x7F, 0x01, 0x90, 0x1C, 0x53, 0x01, 0x89, 0x24, 0x00, 0x06, 0x80, 0x1C,
	0x00, 0x01, 0x89, 0x31, 0x00, 0x0C, 0x99, 0x24, 0x59, 0x02, 0x90, 0x1C,
	0x62, 0x06, 0x89, 0x24, 0x00, 0x0D, 0x99, 0x28, 0x68, 0x02, 0x99, 0x2E,
	0x59, 0x03, 0x89, 0x28, 0x00, 0x02, 0x80, 0x1C, 0x00, 0x07, 0x89, 0x2E,
	0x00, 0x07, 0x90, 0x1C, 0x68, 0x00, 0x99, 0x24, 0x59, 0x06, 0x89, 0x24,
	0x00, 0x01, 0x80, 0x1C, 0x00, 0x0E, 0x99, 0x24, 0x74, 0x01, 0x90, 0x1C,
	0x74, 0x01, 0x99, 0x2E, 0x4D, 0x05, 0x89, 0x24, 0x00, 0x07, 0x89, 0x2E,
	0x00, 0x0F, 0x80, 0x1C, 0x00, 0x0D, 0x99, 0x28, 0x68, 0x02, 0x90, 0x1C,
	0x68, 0x00, 0x99, 0x2E, 0x4D, 0x04, 0x89, 0x28, 0x00, 0x05, 0x80, 0x1C,
	0x00, 0x03, 0x89, 0x2E, 0x00, 0x07, 0x99, 0x24, 0x56, 0x01, 0x90, 0x1C,
	0x7C, 0x03, 0x89, 0x24, 0x00, 0x11, 0x99, 0x24, 0x5C, 0x00, 0x99, 0x2E,
	0x4D, 0x06, 0x89, 0x24, 0x00, 0x01, 0x80, 0x1C, 0x00, 0x06, 0x89, 0x2E,
	0x00, 0x07, 0x90, 0x1C, 0x62, 0x01, 0x99, 0x24, 0x68, 0x07, 0x80, 0x1C,
	0x00, 0x00, 0x89, 0x24, 0x00, 0x0D, 0x90, 0x1C, 0x68, 0x01, 0x99, 0x28,
	0x62, 0x00, 0x99, 0x2E, 0x53, 0x06, 0x89, 0x28, 0x00, 0x06, 0x89, 0x2E,
	0x00, 0x09, 0x99, 0x24, 0x5C, 0x05, 0x80, 0x1C, 0x00, 0x01, 0x89, 0x24,
	0x00, 0x0F, 0x90, 0x1C, 0x70, 0x00, 0x99, 0x24, 0x62, 0x00, 0x99, 0x2E,
	0x53, 0x06, 0x89, 0x24, 0x00, 0x08, 0x89, 0x2E, 0x00, 0x07, 0x99, 0x24,
	0x6E, 0x07, 0x89, 0x24, 0x00, 0x09, 0x80, 0x1C, 0x00, 0x05, 0x95, 0x28,
	0x7F, 0x00, 0x95, 0x26, 0x7F, 0x00, 0x99, 0x28, 0x74, 0x00, 0x99, 0x2F,
	0x75, 0x00, 0x99, 0x30, 0x75, 0x00, 0x99, 0x29, 0x70, 0x00, 0x99, 0x32,
	0x75, 0x02, 0x91, 0x22, 0x7F, 0x00, 0x99, 0x2E, 0x5F, 0x03, 0x89, 0x28,
	0x00, 0x03, 0x89, 0x30, 0x00, 0x02, 0x89, 0x2F, 0x00, 0x01, 0x89, 0x32,
	0x00, 0x02, 0x89, 0x29, 0x00, 0x01, 0x89, 0x2E, 0x00, 0x07, 0x99, 0x24,
	0x78, 0x02, 0x85, 0x28, 0x00, 0x00, 0x85, 0x26, 0x00, 0x04, 0x89, 0x24,
	0x00, 0x08, 0x81, 0x22, 0x00, 0x06, 0x82, 0x40, 0x00, 0x00, 0x83, 0x43,
	0x00, 0x00, 0x84, 0x47, 0x00, 0x01, 0x90, 0x1C, 0x6E, 0x00, 0x92, 0x40,
	0x68, 0x00, 0x93, 0x43, 0x6E, 0x00, 0x94, 0x48, 0x74, 0x00, 0x99, 0x24,
	0x68, 0x01, 0x99, 0x2E, 0x4A, 0x05, 0x89, 0x24, 0x00, 0x01, 0x80, 0x1C,
	0x00, 0x07, 0x89, 0x2E, 0x00, 0x05, 0x90, 0x1C, 0x68, 0x02, 0x99, 0x24,
	0x62, 0x07, 0x89, 0x24, 0x00, 0x0E, 0x99, 0x28, 0x70, 0x01, 0x99, 0x2E,
	0x4D, 0x03, 0x80, 0x1C, 0x00, 0x01, 0x89, 0x28, 0x00, 0x09, 0x89, 0x2E,
	0x00, 0x04, 0x90, 0x1C, 0x68, 0x03, 0x99, 0x24, 0x5C, 0x04, 0x80, 0x1C,
	0x00, 0x02, 0x89, 0x24, 0x00, 0x0C, 0x90, 0x1C, 0x74, 0x03, 0x99, 0x24,
	0x7A, 0x00, 0x99, 0x2E, 0x47, 0x07, 0x89, 0x24, 0x00, 0x05, 0x89, 0x2E,
	0x00, 0x0B, 0x80, 0x1C, 0x00, 0x0F, 0x90, 0x1C, 0x70, 0x04, 0x99, 0x28,
	0x7A, 0x00, 0x99, 0x2E, 0x53, 0x04, 0x89, 0x28, 0x00, 0x01, 0x80, 0x1C,
	0x00, 0x09, 0x89, 0x2E, 0x00, 0x04, 0x90, 0x1C, 0x7C, 0x03, 0x99, 0x24,
	0x74, 0x06, 0x89, 0x24, 0x00, 0x0F, 0x99, 0x24, 0x59, 0x00, 0x99, 0x2E,
	0x4D, 0x04, 0x80, 0x1C, 0x00, 0x02, 0x89, 0x24, 0x00, 0x07, 0x89, 0x2E,
	0x00, 0x05, 0x90, 0x1C, 0x6E, 0x03, 0x99, 0x24, 0x68, 0x04, 0x80, 0x1C,
	0x00, 0x03, 0x89, 0x24, 0x00, 0x0C, 0x90, 0x1C, 0x70, 0x01, 0x99, 0x2E,
	0x4A, 0x01, 0x99, 0x28, 0x68, 0x05, 0x89, 0x28, 0x00, 0x09, 0x89, 0x2E,
	0x00, 0x07, 0x80, 0x1C, 0x00, 0x00, 0x99, 0x24, 0x65, 0x06, 0x89, 0x24,
	0x00, 0x0B, 0x90, 0x1C, 0x70, 0x04, 0x99, 0x24, 0x68, 0x00, 0x99, 0x2E,
	0x4A, 0x05, 0x89, 0x24, 0x00, 0x09, 0x89, 0x2E, 0x00, 0x07, 0x99, 0x24,
	0x68, 0x07, 0x89, 0x24, 0x00, 0x0A, 0x80, 0x1C, 0x00, 0x04, 0x91, 0x23,
	0x7F, 0x00, 0x95, 0x28, 0x7F, 0x00, 0x95, 0x26, 0x7E, 0x00, 0x99, 0x28,
	0x6E, 0x00, 0x99, 0x2E, 0x4A, 0x00, 0x99, 0x2F, 0x75, 0x00, 0x99, 0x30,
	0x75, 0x00, 0x99, 0x29, 0x6A, 0x00, 0x99, 0x32, 0x75, 0x05, 0x89, 0x28,
	0x00, 0x05, 0x89, 0x30, 0x00, 0x01, 0x89, 0x2F, 0x00, 0x02, 0x89, 0x2E,
	0x00, 0x00, 0x89, 0x32, 0x00, 0x02, 0x89, 0x29, 0x00, 0x06, 0x81, 0x23,
	0x00, 0x00, 0x99, 0x24, 0x5C, 0x04, 0x85, 0x28, 0x00, 0x01, 0x85, 0x26,
	0x00, 0x01, 0x89, 0x24, 0x00, 0x0E, 0x82, 0x40, 0x00, 0x00, 0x83, 0x43,
	0x00, 0x00, 0x84, 0x48, 0x00, 0x01, 0x92, 0x40, 0x62, 0x00, 0x93, 0x43,
	0x74, 0x00, 0x94, 0x49, 0x59, 0x00, 0x99, 0x24, 0x62, 0x00, 0x99, 0x2E,
	0x4D, 0x02, 0x90, 0x1C, 0x70, 0x05, 0x89, 0x24, 0x00, 0x02, 0x80, 0x1C,
	0x00, 0x05, 0x89, 0x2E, 0x00, 0x07, 0x99, 0x24, 0x62, 0x01, 0x90, 0x1C,
	0x78, 0x06, 0x89, 0x24, 0x00, 0x0E, 0x99, 0x28, 0x68, 0x00, 0x99, 0x2E,
	0x4D, 0x05, 0x80, 0x1C, 0x00, 0x01, 0x89, 0x28, 0x00, 0x08, 0x89, 0x2E,
	0x00, 0x07, 0x90, 0x1C, 0x62, 0x00, 0x99, 0x24, 0x65, 0x05, 0x89, 0x24,
	0x00, 0x01, 0x80, 0x1C, 0x00, 0x0F, 0x90, 0x1C, 0x70, 0x00, 0x99, 0x24,
	0x68, 0x00, 0x99, 0x2E, 0x4A, 0x07, 0x89, 0x24, 0x00, 0x07, 0x89, 0x2E,
	0x00, 0x0C, 0x80, 0x1C, 0x00, 0x0E, 0x90, 0x1C, 0x62, 0x00, 0x99, 0x2E,
	0x41, 0x02, 0x99, 0x28, 0x70, 0x05, 0x89, 0x28, 0x00, 0x02, 0x80, 0x1C,
	0x00, 0x04, 0x89, 0x2E, 0x00, 0x09, 0x90, 0x1C, 0x68, 0x01, 0x99, 0x24,
	0x68, 0x06, 0x89, 0x24, 0x00, 0x0B, 0x99, 0x2E, 0x44, 0x04, 0x99, 0x24,
	0x62, 0x04, 0x80, 0x1C, 0x00, 0x02, 0x89, 0x24, 0x00, 0x05, 0x89, 0x2E,
	0x00, 0x08, 0x90, 0x1C, 0x68, 0x02, 0x99, 0x24, 0x68, 0x05, 0x80, 0x1C,
	0x00, 0x01, 0x89, 0x24, 0x00, 0x0C, 0x99, 0x2E, 0x59, 0x02, 0x90, 0x1C,
	0x68, 0x01, 0x99, 0x28, 0x68, 0x05, 0x89, 0x28, 0x00, 0x05, 0x89, 0x2E,
	0x00, 0x0A, 0x99, 0x24, 0x68, 0x05, 0x80, 0x1C, 0x00, 0x02, 0x89, 0x24,
	0x00, 0x0C, 0x90, 0x1C, 0x7A, 0x01, 0x99, 0x2E, 0x4D, 0x01, 0x99, 0x24,
	0x6E, 0x06, 0x89, 0x24, 0x00, 0x07, 0x89, 0x2E, 0x00, 0x08, 0x99, 0x24,
	0x62, 0x07, 0x89, 0x24, 0x00, 0x0D, 0x99, 0x2E, 0x53, 0x01, 0x95, 0x28,
	0x7D, 0x00, 0x95, 0x26, 0x7F, 0x00, 0x99, 0x28, 0x6E, 0x00, 0x99, 0x2F,
	0x75, 0x00, 0x99, 0x30, 0x75, 0x01, 0x99, 0x29, 0x73, 0x00, 0x99, 0x32,
	0x75, 0x01, 0x91, 0x24, 0x7F, 0x01, 0x80, 0x1C, 0x00, 0x04, 0x89, 0x28,
	0x00, 0x04, 0x89, 0x30, 0x00, 0x01, 0x89, 0x2F, 0x00, 0x01, 0x89, 0x2E,
	0x00, 0x00, 0x89, 0x32, 0x00, 0x02, 0x89, 0x29, 0x00, 0x06, 0x99, 0x24,
	0x68, 0x03, 0x85, 0x26, 0x00, 0x00, 0x85, 0x28, 0x00, 0x03, 0x81, 0x24,
	0x00, 0x01, 0x89, 0x24, 0x00, 0x0E, 0x82, 0x40, 0x00, 0x00, 0x92, 0x40,
	0x59, 0x00, 0x83, 0x43, 0x00, 0x00, 0x93, 0x43, 0x7A, 0x00, 0x84, 0x49,
	0x00, 0x00, 0x94, 0x4A, 0x56, 0x00, 0x99, 0x24, 0x6E, 0x01, 0x90, 0x1C,
	0x7C, 0x00, 0x99, 0x2E, 0x4D, 0x06, 0x89, 0x24, 0x00, 0x01, 0x80, 0x1C,
	0x00, 0x06, 0x89, 0x2E, 0x00, 0x07, 0x90, 0x1C, 0x68, 0x00, 0x99, 0x24,
	0x5C, 0x07, 0x89, 0x24, 0x00, 0x0C, 0x99, 0x2E, 0x53, 0x02, 0x99, 0x28,
	0x6E, 0x07, 0x80, 0x1C, 0x00, 0x00, 0x89, 0x28, 0x00, 0x05, 0x89, 0x2E,
	0x00, 0x08, 0x90, 0x1C, 0x6E, 0x01, 0x99, 0x24, 0x74, 0x06, 0x80, 0x1C,
	0x00, 0x01, 0x89, 0x24, 0x00, 0x0C, 0x90, 0x1C, 0x68, 0x00, 0x99, 0x2E,
	0x53, 0x0E, 0x89, 0x2E, 0x00, 0x09, 0x99, 0x24, 0x70, 0x06, 0x80, 0x1C,
	0x00, 0x02, 0x89, 0x24, 0x00, 0x0B, 0x90, 0x1C, 0x68, 0x02, 0x99, 0x28,
	0x70, 0x00, 0x99, 0x2E, 0x53, 0x05, 0x80, 0x1C, 0x00, 0x01, 0x89, 0x28,
	0x00, 0x08, 0x89, 0x2E, 0x00, 0x06, 0x90, 0x1C, 0x6E, 0x01, 0x99, 0x24,
	0x74, 0x06, 0x89, 0x24, 0x00, 0x0F, 0x99, 0x2E, 0x4A, 0x00, 0x99, 0x24,
	0x68, 0x06, 0x80, 0x1C, 0x00, 0x01, 0x89, 0x24, 0x00, 0x06, 0x89, 0x2E,
	0x00, 0x07, 0x90, 0x1C, 0x68, 0x01, 0x99, 0x24, 0x62, 0x06, 0x80, 0x1C,
	0x00, 0x02, 0x89, 0x24, 0x00, 0x0B, 0x90, 0x1C, 0x70, 0x00, 0x99, 0x2E,
	0x62, 0x02, 0x99, 0x28, 0x70, 0x07, 0x89, 0x28, 0x00, 0x05, 0x89, 0x2E,
	0x00, 0x09, 0x99, 0x24, 0x74, 0x06, 0x89, 0x24, 0x00, 0x09, 0x80, 0x1C,
	0x00, 0x06, 0x91, 0x24, 0x7A, 0x00, 0x82, 0x40, 0x00, 0x00, 0x92, 0x40,
	0x5C, 0x00, 0x83, 0x43, 0x00, 0x00, 0x93, 0x43, 0x7F, 0x00, 0x84, 0x4A,
	0x00, 0x00, 0x94, 0x48, 0x70, 0x00, 0x95, 0x28, 0x76, 0x00, 0x95, 0x26,
	0x76, 0x00, 0x99, 0x29, 0x52, 0x00, 0x99, 0x28, 0x78, 0x00, 0x99, 0x2F,
	0x75, 0x00, 0x99, 0x30, 0x73, 0x00, 0x99, 0x32, 0x52, 0x02, 0x99, 0x2E,
	0x53, 0x05, 0x89, 0x28, 0x00, 0x04, 0x89, 0x32, 0x00, 0x01, 0x89, 0x2F,
	0x00, 0x00, 0x89, 0x30, 0x00, 0x00, 0x89, 0x29, 0x00, 0x02, 0x85, 0x26,
	0x00, 0x00, 0x85, 0x28, 0x00, 0x01, 0x89, 0x2E, 0x00, 0x06, 0x82, 0x40,
	0x00, 0x00, 0x83, 0x43, 0x00, 0x00, 0x84, 0x48, 0x00, 0x00, 0x99, 0x24,
	0x72, 0x07, 0x81, 0x24, 0x00, 0x01, 0x89, 0x24, 0x00, 0x0D, 0x92, 0x40,
	0x5C, 0x00, 0x93, 0x43, 0x6E, 0x00, 0x94, 0x47, 0x62, 0x00, 0x95, 0x26,
	0x7A, 0x00, 0x95, 0x28, 0x7F, 0x00, 0x99, 0x29, 0x5E, 0x00, 0x99, 0x32,
	0x5E, 0x00, 0x99, 0x28, 0x68, 0x00, 0x99, 0x2F, 0x75, 0x00, 0x99, 0x30,
	0x75, 0x01, 0x99, 0x2E, 0x68, 0x01, 0x91, 0x23, 0x74, 0x05, 0x89, 0x28,
	0x00, 0x03, 0x84, 0x47, 0x00, 0x00, 0x89, 0x32, 0x00, 0x01, 0x89, 0x30,
	0x00, 0x01, 0x89, 0x2F, 0x00, 0x00, 0x89, 0x29, 0x00, 0x01, 0x89, 0x2E,
	0x00, 0x04, 0x85, 0x28, 0x00, 0x01, 0x81, 0x23, 0x00, 0x00, 0x85, 0x26,
	0x00, 0x03, 0x82, 0x40, 0x00, 0x00, 0x83, 0x43, 0x00, 0x00, 0x99, 0x24,
	0x68, 0x06, 0x89, 0x24, 0x00, 0x0F, 0x90, 0x1C, 0x74, 0x00, 0x92, 0x40,
	0x74, 0x00, 0x93, 0x43, 0x7A, 0x00, 0x94, 0x47, 0x7A, 0x00, 0x99, 0x24,
	0x74, 0x00, 0x99, 0x31, 0x72, 0x07, 0x80, 0x1C, 0x00, 0x00, 0x89, 0x24,
	0x00, 0x07, 0x89, 0x31, 0x00, 0x07, 0x99, 0x24, 0x70, 0x03, 0x90, 0x1C,
	0x62, 0x04, 0x89, 0x24, 0x00, 0x0D, 0x99, 0x2E, 0x62, 0x01, 0x99, 0x28,
	0x70, 0x06, 0x89, 0x28, 0x00, 0x01, 0x80, 0x1C, 0x00, 0x05, 0x89, 0x2E,
	0x00, 0x09, 0x90, 0x1C, 0x68, 0x00, 0x99, 0x24, 0x62, 0x07, 0x89, 0x24,
	0x00, 0x01, 0x80, 0x1C, 0x00, 0x0B, 0x99, 0x2E, 0x4D, 0x03, 0x99, 0x24,
	0x74, 0x01, 0x90, 0x1C, 0x74, 0x05, 0x89, 0x24, 0x00, 0x05, 0x89, 0x2E,
	0x00, 0x0A, 0x99, 0x24, 0x70, 0x06, 0x89, 0x24, 0x00, 0x02, 0x80, 0x1C,
	0x00, 0x0D, 0x99, 0x28, 0x6E, 0x00, 0x99, 0x2E, 0x4A, 0x02, 0x90, 0x1C,
	0x68, 0x03, 0x89, 0x28, 0x00, 0x06, 0x80, 0x1C, 0x00, 0x01, 0x89, 0x2E,
	0x00, 0x09, 0x99, 0x24, 0x6E, 0x01, 0x90, 0x1C, 0x7C, 0x06, 0x89, 0x24,
	0x00, 0x0B, 0x99, 0x2E, 0x47, 0x0A, 0x80, 0x1C, 0x00, 0x04, 0x89, 0x2E,
	0x00, 0x09, 0x90, 0x1C, 0x62, 0x01, 0x99, 0x24, 0x70, 0x07, 0x80, 0x1C,
	0x00, 0x00, 0x89, 0x24, 0x00, 0x0D, 0x90, 0x1C, 0x68, 0x00, 0x99, 0x2E,
	0x47, 0x01, 0x99, 0x28, 0x70, 0x06, 0x89, 0x28, 0x00, 0x05, 0x89, 0x2E,
	0x00, 0x0A, 0x99, 0x24, 0x74, 0x05, 0x80, 0x1C, 0x00, 0x01, 0x89, 0x24,
	0x00, 0x0F, 0x90, 0x1C, 0x70, 0x00, 0x99, 0x24, 0x70, 0x00, 0x99, 0x2E,
	0x53, 0x06, 0x89, 0x24, 0x00, 0x07, 0x89, 0x2E, 0x00, 0x08, 0x99, 0x24,
	0x68, 0x06, 0x89, 0x24, 0x00, 0x0A, 0x80, 0x1C, 0x00, 0x05, 0x95, 0x28,
	0x7D, 0x00, 0x95, 0x26, 0x7F, 0x00, 0x99, 0x28, 0x7A, 0x00, 0x99, 0x2F,
	0x75, 0x00, 0x99, 0x30, 0x73, 0x00, 0x99, 0x29, 0x70, 0x00, 0x99, 0x2E,
	0x53, 0x00, 0x99, 0x32, 0x75, 0x02, 0x91, 0x22, 0x7F, 0x03, 0x89, 0x28,
	0x00, 0x06, 0x89, 0x32, 0x00, 0x00, 0x89, 0x2F, 0x00, 0x01, 0x89, 0x30,
	0x00, 0x01, 0x89, 0x29, 0x00, 0x00, 0x89, 0x2E, 0x00, 0x08, 0x99, 0x24,
	0x6E, 0x05, 0x85, 0x26, 0x00, 0x00, 0x85, 0x28, 0x00, 0x00, 0x89, 0x24,
	0x00, 0x09, 0x81, 0x22, 0x00, 0x06, 0x82, 0x40, 0x00, 0x00, 0x83, 0x43,
	0x00, 0x00, 0x84, 0x47, 0x00, 0x01, 0x90, 0x1C, 0x6E, 0x00, 0x92, 0x40,
	0x6E, 0x00, 0x93, 0x43, 0x74, 0x00, 0x94, 0x48, 0x68, 0x00, 0x99, 0x24,
	0x6E, 0x00, 0x99, 0x2E, 0x53, 0x07, 0x80, 0x1C, 0x00, 0x00, 0x89, 0x24,
	0x00, 0x06, 0x89, 0x2E, 0x00, 0x06, 0x90, 0x1C, 0x68, 0x02, 0x99, 0x24,
	0x70, 0x07, 0x89, 0x24, 0x00, 0x0E, 0x99, 0x28, 0x68, 0x00, 0x99, 0x2E,
	0x4D, 0x04, 0x80, 0x1C, 0x00, 0x01, 0x89, 0x28, 0x00, 0x07, 0x89, 0x2E,
	0x00, 0x06, 0x90, 0x1C, 0x68, 0x03, 0x99, 0x24, 0x78, 0x04, 0x80, 0x1C,
	0x00, 0x02, 0x89, 0x24, 0x00, 0x0C, 0x90, 0x1C, 0x74, 0x02, 0x99, 0x2E,
	0x4A, 0x01, 0x99, 0x24, 0x70, 0x06, 0x89, 0x24, 0x00, 0x07, 0x89, 0x2E,
	0x00, 0x08, 0x99, 0x24, 0x70, 0x02, 0x80, 0x1C, 0x00, 0x05, 0x89, 0x24,
	0x00, 0x0A, 0x90, 0x1C, 0x70, 0x02, 0x99, 0x2E, 0x47, 0x02, 0x99, 0x28,
	0x70, 0x05, 0x80, 0x1C, 0x00, 0x00, 0x89, 0x28, 0x00, 0x06, 0x89, 0x2E,
	0x00, 0x07, 0x90, 0x1C, 0x7C, 0x03, 0x99, 0x24, 0x7A, 0x07, 0x89, 0x24,
	0x00, 0x0B, 0x99, 0x2E, 0x4D, 0x07, 0x80, 0x1C, 0x00, 0x06, 0x89, 0x2E,
	0x00, 0x08, 0x90, 0x1C, 0x6E, 0x03, 0x99, 0x24, 0x78, 0x04, 0x80, 0x1C,
	0x00, 0x03, 0x89, 0x24, 0x00, 0x0B, 0x99, 0x2E, 0x4D, 0x01, 0x90, 0x1C,
	0x70, 0x02, 0x99, 0x28, 0x72, 0x05, 0x89, 0x28, 0x00, 0x06, 0x89, 0x2E,
	0x00, 0x0A, 0x80, 0x1C, 0x00, 0x00, 0x99, 0x24, 0x74, 0x06, 0x89, 0x24,
	0x00, 0x0B, 0x90, 0x1C, 0x70, 0x04, 0x99, 0x24, 0x70, 0x01, 0x99, 0x2E,
	0x4A, 0x05, 0x89, 0x24, 0x00, 0x07, 0x89, 0x2E, 0x00, 0x08, 0x99, 0x24,
	0x5C, 0x06, 0x89, 0x24, 0x00, 0x0B, 0x80, 0x1C, 0x00, 0x04, 0x91, 0x23,
	0x7F, 0x00, 0x95, 0x28, 0x78, 0x00, 0x95, 0x26, 0x7F, 0x00, 0x99, 0x28,
	0x78, 0x00, 0x99, 0x2E, 0x4D, 0x00, 0x99, 0x2F, 0x75, 0x00, 0x99, 0x30,
	0x75, 0x00, 0x99, 0x29, 0x6A, 0x00, 0x99, 0x32, 0x75, 0x05, 0x89, 0x28,
	0x00, 0x04, 0x89, 0x30, 0x00, 0x02, 0x89, 0x2F, 0x00, 0x00, 0x89, 0x2E,
	0x00, 0x02, 0x89, 0x32, 0x00, 0x02, 0x89, 0x29, 0x00, 0x06, 0x81, 0x23,
	0x00, 0x00, 0x99, 0x24, 0x5C, 0x02, 0x85, 0x28, 0x00, 0x01, 0x85, 0x26,
	0x00, 0x01, 0x89, 0x24, 0x00, 0x06, 0x99, 0x24, 0x68, 0x05, 0x89, 0x24,
	0x00, 0x04, 0x99, 0x2E, 0x47, 0x01, 0x82, 0x40, 0x00, 0x00, 0x83, 0x43,
	0x00, 0x00, 0x84, 0x48, 0x00, 0x01, 0x92, 0x40, 0x62, 0x00, 0x93, 0x43,
	0x7A, 0x00, 0x94, 0x49, 0x70, 0x00, 0x99, 0x24, 0x7A, 0x02, 0x90, 0x1C,
	0x70, 0x04, 0x89, 0x24, 0x00, 0x03, 0x80, 0x1C, 0x00, 0x02, 0x89, 0x2E,
	0x00, 0x0A, 0x99, 0x24, 0x74, 0x01, 0x90, 0x1C, 0x78, 0x06, 0x89, 0x24,
	0x00, 0x0C, 0x99, 0x2E, 0x47, 0x02, 0x99, 0x28, 0x6E, 0x04, 0x89, 0x28,
	0x00, 0x01, 0x80, 0x1C, 0x00, 0x06, 0x89, 0x2E, 0x00, 0x0A, 0x90, 0x1C,
	0x62, 0x00, 0x99, 0x24, 0x6E, 0x05, 0x89, 0x24, 0x00, 0x01, 0x80, 0x1C,
	0x00, 0x0C, 0x99, 0x2E, 0x56, 0x03, 0x90, 0x1C, 0x70, 0x00, 0x99, 0x24,
	0x6E, 0x06, 0x89, 0x24, 0x00, 0x05, 0x89, 0x2E, 0x00, 0x0A, 0x99, 0x24,
	0x68, 0x05, 0x80, 0x1C, 0x00, 0x02, 0x89, 0x24, 0x00, 0x0C, 0x90, 0x1C,
	0x62, 0x02, 0x99, 0x28, 0x72, 0x00, 0x99, 0x2E, 0x59, 0x05, 0x89, 0x28,
	0x00, 0x02, 0x80, 0x1C, 0x00, 0x04, 0x89, 0x2E, 0x00, 0x09, 0x90, 0x1C,
	0x68, 0x01, 0x99, 0x24, 0x7A, 0x07, 0x89, 0x24, 0x00, 0x0E, 0x99, 0x2E,
	0x59, 0x04, 0x80, 0x1C, 0x00, 0x09, 0x89, 0x2E, 0x00, 0x06, 0x90, 0x1C,
	0x68, 0x02, 0x99, 0x24, 0x74, 0x05, 0x80, 0x1C, 0x00, 0x02, 0x89, 0x24,
	0x00, 0x0C, 0x99, 0x2E, 0x47, 0x01, 0x90, 0x1C, 0x68, 0x01, 0x99, 0x28,
	0x68, 0x05, 0x89, 0x28, 0x00, 0x06, 0x89, 0x2E, 0x00, 0x0A, 0x99, 0x24,
	0x56, 0x04, 0x80, 0x1C, 0x00, 0x00, 0x89, 0x24, 0x00, 0x0E, 0x90, 0x1C,
	0x7A, 0x03, 0x99, 0x24, 0x70, 0x00, 0x99, 0x2E, 0x53, 0x05, 0x89, 0x24,
	0x00, 0x08, 0x89, 0x2E, 0x00, 0x08, 0x99, 0x24, 0x62, 0x00, 0x99, 0x24,
	0x62, 0x06, 0x89, 0x24, 0x00, 0x00, 0x89, 0x24, 0x00, 0x0F, 0x95, 0x28,
	0x7E, 0x00, 0x95, 0x26, 0x7F, 0x00, 0x99, 0x28, 0x68, 0x00, 0x99, 0x2E,
	0x44, 0x00, 0x99, 0x2F, 0x75, 0x00, 0x99, 0x30, 0x75, 0x00, 0x99, 0x29,
	0x73, 0x00, 0x99, 0x32, 0x75, 0x01, 0x91, 0x24, 0x7F, 0x01, 0x80, 0x1C,
	0x00, 0x03, 0x89, 0x28, 0x00, 0x05, 0x89, 0x2F, 0x00, 0x00, 0x89, 0x30,
	0x00, 0x01, 0x89, 0x2E, 0x00, 0x01, 0x89, 0x32, 0x00, 0x02, 0x89, 0x29,
	0x00, 0x02, 0x85, 0x28, 0x00, 0x01, 0x85, 0x26, 0x00, 0x04, 0x99, 0x24,
	0x62, 0x05, 0x81, 0x24, 0x00, 0x02, 0x89, 0x24, 0x00, 0x0D, 0x82, 0x40,
	0x00, 0x00, 0x83, 0x43, 0x00, 0x00, 0x84, 0x49, 0x00, 0x01, 0x90, 0x1C,
	0x7C, 0x00, 0x92, 0x40, 0x5C, 0x00, 0x93, 0x43, 0x68, 0x00, 0x94, 0x4A,
	0x53, 0x00, 0x99, 0x24, 0x70, 0x01, 0x99, 0x2E, 0x53, 0x06, 0x80, 0x1C,
	0x00, 0x00, 0x89, 0x24, 0x00, 0x07, 0x89, 0x2E, 0x00, 0x07, 0x90, 0x1C,
	0x68, 0x00, 0x99, 0x24, 0x68, 0x07, 0x89, 0x24, 0x00, 0x0D, 0x99, 0x2E,
	0x53, 0x01, 0x99, 0x28, 0x78, 0x06, 0x80, 0x1C, 0x00, 0x00, 0x89, 0x28,
	0x00, 0x04, 0x89, 0x2E, 0x00, 0x09, 0x90, 0x1C, 0x6E, 0x02, 0x99, 0x24,
	0x70, 0x05, 0x80, 0x1C, 0x00, 0x01, 0x89, 0x24, 0x00, 0x0C, 0x90, 0x1C,
	0x68, 0x01, 0x99, 0x2E, 0x59, 0x02, 0x99, 0x24, 0x70, 0x06, 0x89, 0x24,
	0x00, 0x04, 0x89, 0x2E, 0x00, 0x0B, 0x99, 0x24, 0x62, 0x05, 0x80, 0x1C,
	0x00, 0x02, 0x89, 0x24, 0x00, 0x0B, 0x90, 0x1C, 0x68, 0x03, 0x99, 0x28,
	0x68, 0x00, 0x99, 0x2E, 0x4D, 0x04, 0x80, 0x1C, 0x00, 0x01, 0x89, 0x28,
	0x00, 0x06, 0x89, 0x2E, 0x00, 0x08, 0x90, 0x1C, 0x6E, 0x02, 0x99, 0x24,
	0x70, 0x07, 0x89, 0x24, 0x00, 0x0B, 0x99, 0x2E, 0x59, 0x03, 0x99, 0x24,
	0x62, 0x05, 0x80, 0x1C, 0x00, 0x01, 0x89, 0x24, 0x00, 0x03, 0x89, 0x2E,
	0x00, 0x0A, 0x90, 0x1C, 0x68, 0x02, 0x99, 0x24, 0x68, 0x05, 0x80, 0x1C,
	0x00, 0x02, 0x89, 0x24, 0x00, 0x0B, 0x90, 0x1C, 0x70, 0x03, 0x99, 0x28,
	0x6E, 0x00, 0x99, 0x2E, 0x4D, 0x05, 0x89, 0x28, 0x00, 0x07, 0x89, 0x2E,
	0x00, 0x09, 0x99, 0x24, 0x72, 0x07, 0x89, 0x24, 0x00, 0x07, 0x80, 0x1C,
	0x00, 0x06, 0x82, 0x40, 0x00, 0x00, 0x83, 0x43, 0x00, 0x00, 0x84, 0x4A,
	0x00, 0x00, 0x99, 0x29, 0x52, 0x01, 0x91, 0x25, 0x7A, 0x00, 0x92, 0x40,
	0x62, 0x00, 0x93, 0x43, 0x7A, 0x00, 0x94, 0x48, 0x62, 0x00, 0x95, 0x28,
	0x7E, 0x00, 0x95, 0x26, 0x7F, 0x00, 0x99, 0x28, 0x78, 0x00, 0x99, 0x2F,
	0x74, 0x00, 0x99, 0x30, 0x75, 0x00, 0x99, 0x32, 0x52, 0x00, 0x99, 0x2E,
	0x59, 0x06, 0x89, 0x28, 0x00, 0x04, 0x89, 0x30, 0x00, 0x00, 0x89, 0x32,
	0x00, 0x01, 0x89, 0x29, 0x00, 0x00, 0x89, 0x2F, 0x00, 0x01, 0x89, 0x2E,
	0x00, 0x01, 0x85, 0x28, 0x00, 0x01, 0x85, 0x26, 0x00, 0x06, 0x82, 0x40,
	0x00, 0x00, 0x83, 0x43, 0x00, 0x00, 0x84, 0x48, 0x00, 0x01, 0x99, 0x24,
	0x68, 0x07, 0x81, 0x25, 0x00, 0x00, 0x89, 0x24, 0x00, 0x0C, 0x99, 0x2E,
	0x62, 0x01, 0x99, 0x29, 0x5E, 0x00, 0x99, 0x32, 0x5E, 0x01, 0x92, 0x40,
	0x68, 0x00, 0x93, 0x43, 0x6E, 0x00, 0x94, 0x47, 0x74, 0x00, 0x95, 0x28,
	0x76, 0x00, 0x95, 0x26, 0x7F, 0x00, 0x99, 0x28, 0x68, 0x00, 0x99, 0x2F,
	0x73, 0x00, 0x99, 0x30, 0x75, 0x01, 0x91, 0x23, 0x74, 0x05, 0x89, 0x28,
	0x00, 0x03, 0x89, 0x32, 0x00, 0x01, 0x89, 0x2E, 0x00, 0x01, 0x89, 0x2F,
	0x00, 0x00, 0x89, 0x30, 0x00, 0x00, 0x89, 0x29, 0x00, 0x03, 0x85, 0x26,
	0x00, 0x00, 0x85, 0x28, 0x00, 0x03, 0x81, 0x23, 0x00, 0x03, 0x82, 0x40,
	0x00, 0x00, 0x83, 0x43, 0x00, 0x00, 0x84, 0x47, 0x00, 0x01, 0x99, 0x24,
	0x74, 0x07, 0x89, 0x24, 0x00, 0x0E, 0x92, 0x45, 0x70, 0x00, 0x93, 0x48,
	0x7D, 0x00, 0x94, 0x4C, 0x74, 0x00, 0x99, 0x24, 0x68, 0x00, 0x99, 0x39,
	0x6B, 0x01, 0x90, 0x21, 0x53, 0x01, 0x89, 0x24, 0x00, 0x06, 0x80, 0x21,
	0x00, 0x04, 0x89, 0x39, 0x00, 0x09, 0x99, 0x24, 0x59, 0x02, 0x90, 0x21,
	0x62, 0x06, 0x89, 0x24, 0x00, 0x0D, 0x99, 0x28, 0x68, 0x02, 0x99, 0x2E,
	0x59, 0x03, 0x89, 0x28, 0x00, 0x02, 0x80, 0x21, 0x00, 0x07, 0x89, 0x2E,
	0x00, 0x07, 0x90, 0x21, 0x68, 0x00, 0x99, 0x24, 0x59, 0x06, 0x89, 0x24,
	0x00, 0x01, 0x80, 0x21, 0x00, 0x0E, 0x99, 0x24, 0x74, 0x01, 0x90, 0x21,
	0x74, 0x01, 0x99, 0x2E, 0x4D, 0x05, 0x89, 0x24, 0x00, 0x07, 0x89, 0x2E,
	0x00, 0x0F, 0x80, 0x21, 0x00, 0x0D, 0x99, 0x28, 0x68, 0x02, 0x90, 0x21,
	0x68, 0x00, 0x99, 0x2E, 0x4D, 0x04, 0x89, 0x28, 0x00, 0x05, 0x80, 0x21,
	0x00, 0x03, 0x89, 0x2E, 0x00, 0x07, 0x99, 0x24, 0x56, 0x01, 0x90, 0x21,
	0x7C, 0x03, 0x89, 0x24, 0x00, 0x11, 0x99, 0x24, 0x5C, 0x00, 0x99, 0x2E,
	0x4D, 0x06, 0x89, 0x24, 0x00, 0x01, 0x80, 0x21, 0x00, 0x06, 0x89, 0x2E,
	0x00, 0x07, 0x90, 0x21, 0x62, 0x01, 0x99, 0x24, 0x68, 0x07, 0x80, 0x21,
	0x00, 0x00, 0x89, 0x24, 0x00, 0x0D, 0x90, 0x21, 0x68, 0x01, 0x99, 0x28,
	0x62, 0x00, 0x99, 0x2E, 0x53, 0x06, 0x89, 0x28, 0x00, 0x06, 0x89, 0x2E,
	0x00, 0x09, 0x99, 0x24, 0x5C, 0x05, 0x80, 0x21, 0x00, 0x01, 0x89, 0x24,
	0x00, 0x0F, 0x90, 0x21, 0x70, 0x00, 0x99, 0x24, 0x62, 0x00, 0x99, 0x2E,
	0x53, 0x06, 0x89, 0x24, 0x00, 0x08, 0x89, 0x2E, 0x00, 0x07, 0x99, 0x24,
	0x6E, 0x07, 0x89, 0x24, 0x00, 0x09, 0x80, 0x21, 0x00, 0x05, 0x95, 0x28,
	0x7D, 0x00, 0x95, 0x26, 0x7F, 0x00, 0x99, 0x28, 0x74, 0x00, 0x99, 0x2F,
	0x75, 0x00, 0x99, 0x30, 0x75, 0x00, 0x99, 0x29, 0x70, 0x00, 0x99, 0x32,
	0x75, 0x02, 0x91, 0x27, 0x7F, 0x00, 0x99, 0x2E, 0x5F, 0x03, 0x89, 0x28,
	0x00, 0x06, 0x89, 0x32, 0x00, 0x00, 0x89, 0x2F, 0x00, 0x01, 0x89, 0x30,
	0x00, 0x01, 0x89, 0x29, 0x00, 0x01, 0x89, 0x2E, 0x00, 0x03, 0x85, 0x26,
	0x00, 0x00, 0x85, 0x28, 0x00, 0x04, 0x99, 0x24, 0x78, 0x06, 0x89, 0x24,
	0x00, 0x08, 0x81, 0x27, 0x00, 0x06, 0x82, 0x45, 0x00, 0x00, 0x83, 0x48,
	0x00, 0x00, 0x84, 0x4C, 0x00, 0x01, 0x90, 0x21, 0x6E, 0x00, 0x92, 0x45,
	0x68, 0x00, 0x93, 0x48, 0x72, 0x00, 0x94, 0x4D, 0x62, 0x00, 0x99, 0x24,
	0x68, 0x01, 0x99, 0x2E, 0x4A, 0x05, 0x89, 0x24, 0x00, 0x01, 0x80, 0x21,
	0x00, 0x07, 0x89, 0x2E, 0x00, 0x05, 0x90, 0x21, 0x68, 0x02, 0x99, 0x24,
	0x62, 0x07, 0x89, 0x24, 0x00, 0x0E, 0x99, 0x28, 0x70, 0x01, 0x99, 0x2E,
	0x4D, 0x03, 0x80, 0x21, 0x00, 0x01, 0x89, 0x28, 0x00, 0x09, 0x89, 0x2E,
	0x00, 0x04, 0x90, 0x21, 0x68, 0x03, 0x99, 0x24, 0x5C, 0x04, 0x80, 0x21,
	0x00, 0x02, 0x89, 0x24, 0x00, 0x0C, 0x90, 0x21, 0x74, 0x03, 0x99, 0x24,
	0x7A, 0x00, 0x99, 0x2E, 0x47, 0x07, 0x89, 0x24, 0x00, 0x05, 0x89, 0x2E,
	0x00, 0x0B, 0x80, 0x21, 0x00, 0x0F, 0x90, 0x21, 0x70, 0x04, 0x99, 0x28,
	0x7A, 0x00, 0x99, 0x2E, 0x53, 0x04, 0x89, 0x28, 0x00, 0x01, 0x80, 0x21,
	0x00, 0x09, 0x89, 0x2E, 0x00, 0x04, 0x90, 0x21, 0x7C, 0x03, 0x99, 0x24,
	0x74, 0x06, 0x89, 0x24, 0x00, 0x0F, 0x99, 0x24, 0x59, 0x00, 0x99, 0x2E,
	0x4D, 0x04, 0x80, 0x21, 0x00, 0x02, 0x89, 0x24, 0x00, 0x07, 0x89, 0x2E,
	0x00, 0x05, 0x90, 0x21, 0x6E, 0x03, 0x99, 0x24, 0x68, 0x04, 0x80, 0x21,
	0x00, 0x03, 0x89, 0x24, 0x00, 0x0C, 0x90, 0x21, 0x70, 0x01, 0x99, 0x2E,
	0x4A, 0x01, 0x99, 0x28, 0x68, 0x05, 0x89, 0x28, 0x00, 0x09, 0x89, 0x2E,
	0x00, 0x07, 0x80, 0x21, 0x00, 0x00, 0x99, 0x24, 0x65, 0x06, 0x89, 0x24,
	0x00, 0x0B, 0x90, 0x21, 0x70, 0x04, 0x99, 0x24, 0x68, 0x00, 0x99, 0x2E,
	0x4A, 0x05, 0x89, 0x24, 0x00, 0x09, 0x89, 0x2E, 0x00, 0x07, 0x99, 0x24,
	0x68, 0x07, 0x89, 0x24, 0x00, 0x0A, 0x80, 0x21, 0x00, 0x04, 0x91, 0x28,
	0x7F, 0x00, 0x95, 0x28, 0x7D, 0x00, 0x95, 0x26, 0x7E, 0x00, 0x99, 0x28,
	0x6E, 0x00, 0x99, 0x2E, 0x4A, 0x00, 0x99, 0x2F, 0x75, 0x00, 0x99, 0x30,
	0x75, 0x00, 0x99, 0x29, 0x6A, 0x00, 0x99, 0x32, 0x75, 0x05, 0x89, 0x28,
	0x00, 0x06, 0x89, 0x2F, 0x00, 0x00, 0x89, 0x30, 0x00, 0x02, 0x89, 0x2E,
	0x00, 0x00, 0x89, 0x32, 0x00, 0x02, 0x89, 0x29, 0x00, 0x02, 0x85, 0x26,
	0x00, 0x01, 0x85, 0x28, 0x00, 0x03, 0x81, 0x28, 0x00, 0x00, 0x99, 0x24,
	0x5C, 0x06, 0x89, 0x24, 0x00, 0x0E, 0x82, 0x45, 0x00, 0x00, 0x83, 0x48,
	0x00, 0x00, 0x84, 0x4D, 0x00, 0x01, 0x92, 0x45, 0x70, 0x00, 0x93, 0x48,
	0x78, 0x00, 0x94, 0x4E, 0x7A, 0x00, 0x99, 0x24, 0x62, 0x00, 0x99, 0x2E,
	0x4D, 0x02, 0x90, 0x21, 0x70, 0x05, 0x89, 0x24, 0x00, 0x02, 0x80, 0x21,
	0x00, 0x05, 0x89, 0x2E, 0x00, 0x07, 0x99, 0x24, 0x62, 0x01, 0x90, 0x21,
	0x78, 0x06, 0x89, 0x24, 0x00, 0x0E, 0x99, 0x28, 0x68, 0x00, 0x99, 0x2E,
	0x4D, 0x05, 0x80, 0x21, 0x00, 0x01, 0x89, 0x28, 0x00, 0x08, 0x89, 0x2E,
	0x00, 0x07, 0x90, 0x21, 0x62, 0x00, 0x99, 0x24, 0x65, 0x05, 0x89, 0x24,
	0x00, 0x01, 0x80, 0x21, 0x00, 0x0F, 0x90, 0x21, 0x70, 0x00, 0x99, 0x24,
	0x68, 0x00, 0x99, 0x2E, 0x4A, 0x07, 0x89, 0x24, 0x00, 0x07, 0x89, 0x2E,
	0x00, 0x0C, 0x80, 0x21, 0x00, 0x0E, 0x90, 0x21, 0x62, 0x00, 0x99, 0x2E,
	0x41, 0x02, 0x99, 0x28, 0x70, 0x05, 0x89, 0x28, 0x00, 0x02, 0x80, 0x21,
	0x00, 0x04, 0x89, 0x2E, 0x00, 0x09, 0x90, 0x21, 0x68, 0x01, 0x99, 0x24,
	0x68, 0x06, 0x89, 0x24, 0x00, 0x0B, 0x99, 0x2E, 0x44, 0x04, 0x99, 0x24,
	0x62, 0x04, 0x80, 0x21, 0x00, 0x02, 0x89, 0x24, 0x00, 0x05, 0x89, 0x2E,
	0x00, 0x08, 0x90, 0x21, 0x68, 0x02, 0x99, 0x24, 0x68, 0x05, 0x80, 0x21,
	0x00, 0x01, 0x89, 0x24, 0x00, 0x0C, 0x99, 0x2E, 0x59, 0x02, 0x90, 0x21,
	0x68, 0x01, 0x99, 0x28, 0x68, 0x05, 0x89, 0x28, 0x00, 0x05, 0x89, 0x2E,
	0x00, 0x0B, 0x99, 0x24, 0x68, 0x04, 0x80, 0x21, 0x00, 0x02, 0x89, 0x24,
	0x00, 0x0C, 0x90, 0x21, 0x7A, 0x01, 0x99, 0x2E, 0x4D, 0x02, 0x99, 0x24,
	0x6E, 0x05, 0x89, 0x24, 0x00, 0x07, 0x89, 0x2E, 0x00, 0x09, 0x99, 0x24,
	0x62, 0x07, 0x89, 0x24, 0x00, 0x0C, 0x99, 0x2E, 0x53, 0x02, 0x95, 0x28,
	0x72, 0x00, 0x95, 0x26, 0x72, 0x00, 0x99, 0x28, 0x6E, 0x00, 0x99, 0x2F,
	0x75, 0x00, 0x99, 0x30, 0x73, 0x00, 0x99, 0x29, 0x73, 0x00, 0x99, 0x32,
	0x75, 0x01, 0x91, 0x29, 0x7F, 0x01, 0x80, 0x21, 0x00, 0x04, 0x89, 0x28,
	0x00, 0x05, 0x89, 0x30, 0x00, 0x00, 0x89, 0x2F, 0x00, 0x01, 0x89, 0x2E,
	0x00, 0x00, 0x89, 0x32, 0x00, 0x02, 0x89, 0x29, 0x00, 0x02, 0x85, 0x28,
	0x00, 0x00, 0x85, 0x26, 0x00, 0x05, 0x99, 0x24, 0x68, 0x05, 0x81, 0x29,
	0x00, 0x01, 0x89, 0x24, 0x00, 0x0E, 0x82, 0x45, 0x00, 0x00, 0x83, 0x48,
	0x00, 0x00, 0x84, 0x4E, 0x00, 0x01, 0x90, 0x21, 0x7C, 0x00, 0x92, 0x45,
	0x70, 0x00, 0x93, 0x48, 0x78, 0x00, 0x94, 0x4F, 0x59, 0x00, 0x99, 0x24,
	0x6E, 0x00, 0x99, 0x2E, 0x4D, 0x07, 0x80, 0x21, 0x00, 0x00, 0x89, 0x24,
	0x00, 0x07, 0x89, 0x2E, 0x00, 0x07, 0x90, 0x21, 0x68, 0x00, 0x99, 0x24,
	0x5C, 0x07, 0x89, 0x24, 0x00, 0x0B, 0x99, 0x2E, 0x53, 0x03, 0x99, 0x28,
	0x6E, 0x06, 0x80, 0x21, 0x00, 0x00, 0x89, 0x28, 0x00, 0x05, 0x89, 0x2E,
	0x00, 0x08, 0x90, 0x21, 0x6E, 0x02, 0x99, 0x24, 0x74, 0x05, 0x80, 0x21,
	0x00, 0x01, 0x89, 0x24, 0x00, 0x0C, 0x90, 0x21, 0x68, 0x00, 0x99, 0x2E,
	0x53, 0x0E, 0x89, 0x2E, 0x00, 0x0A, 0x99, 0x24, 0x70, 0x05, 0x80, 0x21,
	0x00, 0x02, 0x89, 0x24, 0x00, 0x0B, 0x90, 0x21, 0x68, 0x03, 0x99, 0x28,
	0x70, 0x00, 0x99, 0x2E, 0x53, 0x04, 0x80, 0x21, 0x00, 0x01, 0x89, 0x28,
	0x00, 0x08, 0x89, 0x2E, 0x00, 0x06, 0x90, 0x21, 0x6E, 0x02, 0x99, 0x24,
	0x74, 0x05, 0x89, 0x24, 0x00, 0x0F, 0x99, 0x2E, 0x4A, 0x01, 0x99, 0x24,
	0x68, 0x05, 0x80, 0x21, 0x00, 0x02, 0x89, 0x24, 0x00, 0x05, 0x89, 0x2E,
	0x00, 0x07, 0x90, 0x21, 0x68, 0x02, 0x99, 0x24, 0x62, 0x05, 0x80, 0x21,
	0x00, 0x02, 0x89, 0x24, 0x00, 0x0B, 0x90, 0x21, 0x70, 0x00, 0x99, 0x2E,
	0x62, 0x03, 0x99, 0x28, 0x70, 0x06, 0x89, 0x28, 0x00, 0x05, 0x89, 0x2E,
	0x00, 0x0A, 0x99, 0x24, 0x74, 0x05, 0x89, 0x24, 0x00, 0x09, 0x80, 0x21,
	0x00, 0x06, 0x82, 0x45, 0x00, 0x00, 0x83, 0x48, 0x00, 0x00, 0x84, 0x4F,
	0x00, 0x00, 0x99, 0x29, 0x52, 0x01, 0x91, 0x29, 0x7A, 0x00, 0x92, 0x45,
	0x68, 0x00, 0x93, 0x48, 0x6E, 0x00, 0x94, 0x4D, 0x7A, 0x00, 0x95, 0x28,
	0x78, 0x00, 0x95, 0x26, 0x74, 0x00, 0x99, 0x28, 0x78, 0x00, 0x99, 0x2F,
	0x73, 0x00, 0x99, 0x30, 0x6E, 0x00, 0x99, 0x32, 0x52, 0x01, 0x99, 0x2E,
	0x53, 0x05, 0x89, 0x28, 0x00, 0x03, 0x89, 0x30, 0x00, 0x01, 0x89, 0x32,
	0x00, 0x01, 0x89, 0x2F, 0x00, 0x00, 0x89, 0x29, 0x00, 0x01, 0x85, 0x26,
	0x00, 0x02, 0x85, 0x28, 0x00, 0x00, 0x89, 0x2E, 0x00, 0x06, 0x82, 0x45,
	0x00, 0x00, 0x83, 0x48, 0x00, 0x00, 0x84, 0x4D, 0x00, 0x01, 0x99, 0x24,
	0x72, 0x07, 0x81, 0x29, 0x00, 0x00, 0x89, 0x24, 0x00, 0x0D, 0x99, 0x29,
	0x5E, 0x00, 0x99, 0x32, 0x5E, 0x01, 0x92, 0x45, 0x62, 0x00, 0x93, 0x48,
	0x7E, 0x00, 0x94, 0x4C, 0x78, 0x00, 0x95, 0x28, 0x78, 0x00, 0x95, 0x26,
	0x7A, 0x00, 0x99, 0x28, 0x68, 0x00, 0x99, 0x2F, 0x75, 0x00, 0x99, 0x30,
	0x75, 0x00, 0x99, 0x2E, 0x68, 0x01, 0x91, 0x28, 0x74, 0x05, 0x89, 0x28,
	0x00, 0x03, 0x84, 0x4C, 0x00, 0x00, 0x89, 0x32, 0x00, 0x01, 0x89, 0x2F,
	0x00, 0x01, 0x89, 0x30, 0x00, 0x00, 0x89, 0x29, 0x00, 0x01, 0x89, 0x2E,
	0x00, 0x02, 0x85, 0x26, 0x00, 0x01, 0x85, 0x28, 0x00, 0x02, 0x81, 0x28,
	0x00, 0x03, 0x82, 0x45, 0x00, 0x00, 0x83, 0x48, 0x00, 0x01, 0x99, 0x24,
	0x68, 0x05, 0x89, 0x24, 0x00, 0x0E, 0x90, 0x21, 0x74, 0x02, 0x92, 0x45,
	0x70, 0x00, 0x93, 0x48, 0x68, 0x00, 0x94, 0x4C, 0x74, 0x00, 0x99, 0x24,
	0x74, 0x00, 0x99, 0x39, 0x6B, 0x05, 0x80, 0x21, 0x00, 0x02, 0x89, 0x24,
	0x00, 0x06, 0x89, 0x39, 0x00, 0x08, 0x99, 0x24, 0x70, 0x02, 0x90, 0x21,
	0x62, 0x05, 0x89, 0x24, 0x00, 0x0C, 0x99, 0x2E, 0x62, 0x02, 0x99, 0x28,
	0x70, 0x05, 0x89, 0x28, 0x00, 0x02, 0x80, 0x21, 0x00, 0x04, 0x89, 0x2E,
	0x00, 0x0A, 0x90, 0x21, 0x68, 0x00, 0x99, 0x24, 0x62, 0x06, 0x89, 0x24,
	0x00, 0x01, 0x80, 0x21, 0x00, 0x0B, 0x99, 0x2E, 0x4D, 0x03, 0x99, 0x24,
	0x74, 0x01, 0x90, 0x21, 0x74, 0x05, 0x89, 0x24, 0x00, 0x05, 0x89, 0x2E,
	0x00, 0x0A, 0x99, 0x24, 0x70, 0x06, 0x89, 0x24, 0x00, 0x02, 0x80, 0x21,
	0x00, 0x0D, 0x99, 0x28, 0x6E, 0x00, 0x99, 0x2E, 0x4A, 0x02, 0x90, 0x21,
	0x68, 0x03, 0x89, 0x28, 0x00, 0x06, 0x80, 0x21, 0x00, 0x01, 0x89, 0x2E,
	0x00, 0x09, 0x99, 0x24, 0x6E, 0x01, 0x90, 0x21, 0x7C, 0x06, 0x89, 0x24,
	0x00, 0x0B, 0x99, 0x2E, 0x47, 0x0A, 0x80, 0x21, 0x00, 0x04, 0x89, 0x2E,
	0x00, 0x09, 0x90, 0x21, 0x62, 0x01, 0x99, 0x24, 0x70, 0x07, 0x80, 0x21,
	0x00, 0x00, 0x89, 0x24, 0x00, 0x0D, 0x90, 0x21, 0x68, 0x00, 0x99, 0x2E,
	0x47, 0x01, 0x99, 0x28, 0x70, 0x06, 0x89, 0x28, 0x00, 0x05, 0x89, 0x2E,
	0x00, 0x0A, 0x99, 0x24, 0x74, 0x05, 0x80, 0x21, 0x00, 0x01, 0x89, 0x24,
	0x00, 0x0F, 0x90, 0x21, 0x70, 0x00, 0x99, 0x24, 0x70, 0x00, 0x99, 0x2E,
	0x53, 0x06, 0x89, 0x24, 0x00, 0x07, 0x89, 0x2E, 0x00, 0x08, 0x99, 0x24,
	0x68, 0x06, 0x89, 0x24, 0x00, 0x0A, 0x80, 0x21, 0x00, 0x05, 0x95, 0x28,
	0x78, 0x00, 0x95, 0x26, 0x72, 0x00, 0x99, 0x28, 0x7A, 0x00, 0x99, 0x2F,
	0x72, 0x00, 0x99, 0x30, 0x75, 0x00, 0x99, 0x29, 0x70, 0x00, 0x99, 0x2E,
	0x53, 0x00, 0x99, 0x32, 0x75, 0x02, 0x91, 0x27, 0x7F, 0x03, 0x89, 0x28,
	0x00, 0x06, 0x89, 0x30, 0x00, 0x00, 0x89, 0x32, 0x00, 0x01, 0x89, 0x2F,
	0x00, 0x01, 0x89, 0x29, 0x00, 0x00, 0x89, 0x2E, 0x00, 0x03, 0x85, 0x28,
	0x00, 0x01, 0x85, 0x26, 0x00, 0x04, 0x99, 0x24, 0x6E, 0x05, 0x89, 0x24,
	0x00, 0x09, 0x81, 0x27, 0x00, 0x06, 0x82, 0x45, 0x00, 0x00, 0x83, 0x48,
	0x00, 0x00, 0x84, 0x4C, 0x00, 0x01, 0x90, 0x21, 0x6E, 0x00, 0x92, 0x45,
	0x68, 0x00, 0x93, 0x48, 0x7C, 0x00, 0x94, 0x4D, 0x70, 0x00, 0x99, 0x24,
	0x6E, 0x00, 0x99, 0x2E, 0x53, 0x07, 0x80, 0x21, 0x00, 0x00, 0x89, 0x24,
	0x00, 0x06, 0x89, 0x2E, 0x00, 0x06, 0x90, 0x21, 0x68, 0x02, 0x99, 0x24,
	0x70, 0x07, 0x89, 0x24, 0x00, 0x0E, 0x99, 0x28, 0x68, 0x00, 0x99, 0x2E,
	0x4D, 0x04, 0x80, 0x21, 0x00, 0x01, 0x89, 0x28, 0x00, 0x07, 0x89, 0x2E,
	0x00, 0x06, 0x90, 0x21, 0x68, 0x03, 0x99, 0x24, 0x78, 0x04, 0x80, 0x21,
	0x00, 0x02, 0x89, 0x24, 0x00, 0x0C, 0x90, 0x21, 0x74, 0x02, 0x99, 0x2E,
	0x4A, 0x01, 0x99, 0x24, 0x70, 0x06, 0x89, 0x24, 0x00, 0x07, 0x89, 0x2E,
	0x00, 0x08, 0x99, 0x24, 0x70, 0x02, 0x80, 0x21, 0x00, 0x05, 0x89, 0x24,
	0x00, 0x0A, 0x90, 0x21, 0x70, 0x02, 0x99, 0x2E, 0x47, 0x01, 0x99, 0x28,
	0x70, 0x06, 0x80, 0x21, 0x00, 0x00, 0x89, 0x28, 0x00, 0x06, 0x89, 0x2E,
	0x00, 0x07, 0x90, 0x21, 0x7C, 0x02, 0x99, 0x24, 0x7A, 0x07, 0x89, 0x24,
	0x00, 0x0C, 0x99, 0x2E, 0x4D, 0x07, 0x80, 0x21, 0x00, 0x06, 0x89, 0x2E,
	0x00, 0x08, 0x90, 0x21, 0x6E, 0x02, 0x99, 0x24, 0x78, 0x05, 0x80, 0x21,
	0x00, 0x02, 0x89, 0x24, 0x00, 0x0C, 0x99, 0x2E, 0x4D, 0x01, 0x90, 0x21,
	0x70, 0x01, 0x99, 0x28, 0x72, 0x06, 0x89, 0x28, 0x00, 0x06, 0x89, 0x2E,
	0x00, 0x09, 0x99, 0x24, 0x74, 0x01, 0x80, 0x21, 0x00, 0x06, 0x89, 0x24,
	0x00, 0x0B, 0x90, 0x21, 0x70, 0x03, 0x99, 0x24, 0x70, 0x02, 0x99, 0x2E,
	0x4A, 0x05, 0x89, 0x24, 0x00, 0x07, 0x89, 0x2E, 0x00, 0x07, 0x99, 0x24,
	0x5C, 0x07, 0x89, 0x24, 0x00, 0x0B, 0x80, 0x21, 0x00, 0x03, 0x95, 0x28,
	0x74, 0x00, 0x95, 0x26, 0x76, 0x00, 0x99, 0x28, 0x78, 0x00, 0x99, 0x2E,
	0x4D, 0x00, 0x99, 0x2F, 0x75, 0x00, 0x99, 0x30, 0x75, 0x01, 0x91, 0x28,
	0x7F, 0x00, 0x99, 0x29, 0x6A, 0x00, 0x99, 0x32, 0x75, 0x05, 0x89, 0x28,
	0x00, 0x04, 0x89, 0x30, 0x00, 0x02, 0x89, 0x2F, 0x00, 0x00, 0x89, 0x2E,
	0x00, 0x02, 0x89, 0x32, 0x00, 0x02, 0x89, 0x29, 0x00, 0x03, 0x85, 0x28,
	0x00, 0x02, 0x85, 0x26, 0x00, 0x00, 0x99, 0x24, 0x5C, 0x01, 0x81, 0x28,
	0x00, 0x04, 0x89, 0x24, 0x00, 0x06, 0x99, 0x24, 0x68, 0x05, 0x89, 0x24,
	0x00, 0x04, 0x99, 0x2E, 0x47, 0x01, 0x82, 0x45, 0x00, 0x00, 0x92, 0x45,
	0x62, 0x00, 0x83, 0x48, 0x00, 0x00, 0x93, 0x48, 0x7C, 0x00, 0x84, 0x4D,
	0x00, 0x00, 0x94, 0x4E, 0x78, 0x00, 0x99, 0x24, 0x7A, 0x03, 0x90, 0x21,
	0x70, 0x04, 0x89, 0x24, 0x00, 0x03, 0x80, 0x21, 0x00, 0x02, 0x89, 0x2E,
	0x00, 0x09, 0x99, 0x24, 0x74, 0x02, 0x90, 0x21, 0x78, 0x05, 0x89, 0x24,
	0x00, 0x0D, 0x99, 0x2E, 0x47, 0x01, 0x99, 0x28, 0x6E, 0x05, 0x89, 0x28,
	0x00, 0x01, 0x80, 0x21, 0x00, 0x06, 0x89, 0x2E, 0x00, 0x09, 0x90, 0x21,
	0x62, 0x00, 0x99, 0x24, 0x6E, 0x06, 0x89, 0x24, 0x00, 0x01, 0x80, 0x21,
	0x00, 0x0C, 0x99, 0x2E, 0x56, 0x02, 0x99, 0x24, 0x6E, 0x01, 0x90, 0x21,
	0x70, 0x06, 0x89, 0x24, 0x00, 0x05, 0x89, 0x2E, 0x00, 0x09, 0x99, 0x24,
	0x68, 0x06, 0x80, 0x21, 0x00, 0x01, 0x89, 0x24, 0x00, 0x0D, 0x90, 0x21,
	0x62, 0x01, 0x99, 0x28, 0x72, 0x00, 0x99, 0x2E, 0x59, 0x06, 0x89, 0x28,
	0x00, 0x01, 0x80, 0x21, 0x00, 0x05, 0x89, 0x2E, 0x00, 0x09, 0x90, 0x21,
	0x68, 0x00, 0x99, 0x24, 0x7A, 0x07, 0x89, 0x24, 0x00, 0x0E, 0x99, 0x2E,
	0x59, 0x05, 0x80, 0x21, 0x00, 0x09, 0x89, 0x2E, 0x00, 0x06, 0x90, 0x21,
	0x68, 0x01, 0x99, 0x24, 0x74, 0x06, 0x80, 0x21, 0x00, 0x02, 0x89, 0x24,
	0x00, 0x0C, 0x99, 0x2E, 0x47, 0x01, 0x90, 0x21, 0x68, 0x00, 0x99, 0x28,
	0x68, 0x06, 0x89, 0x28, 0x00, 0x06, 0x89, 0x2E, 0x00, 0x09, 0x99, 0x24,
	0x56, 0x05, 0x80, 0x21, 0x00, 0x00, 0x89, 0x24, 0x00, 0x0E, 0x90, 0x21,
	0x7A, 0x02, 0x99, 0x24, 0x70, 0x01, 0x99, 0x2E, 0x53, 0x05, 0x89, 0x24,
	0x00, 0x08, 0x89, 0x2E, 0x00, 0x07, 0x99, 0x24, 0x62, 0x00, 0x99, 0x24,
	0x62, 0x07, 0x89, 0x24, 0x00, 0x00, 0x89, 0x24, 0x00, 0x0E, 0x95, 0x28,
	0x7F, 0x00, 0x95, 0x26, 0x7F, 0x00, 0x99, 0x28, 0x68, 0x00, 0x99, 0x2E,
	0x44, 0x00, 0x99, 0x2F, 0x75, 0x00, 0x99, 0x30, 0x72, 0x01, 0x99, 0x29,
	0x73, 0x00, 0x99, 0x32, 0x75, 0x01, 0x91, 0x29, 0x7F, 0x01, 0x80, 0x21,
	0x00, 0x03, 0x89, 0x28, 0x00, 0x06, 0x89, 0x2E, 0x00, 0x00, 0x89, 0x2F,
	0x00, 0x00, 0x89, 0x30, 0x00, 0x01, 0x89, 0x32, 0x00, 0x01, 0x85, 0x28,
	0x00, 0x01, 0x85, 0x26, 0x00, 0x00, 0x89, 0x29, 0x00, 0x06, 0x99, 0x24,
	0x62, 0x06, 0x81, 0x29, 0x00, 0x01, 0x89, 0x24, 0x00, 0x0E, 0x82, 0x45,
	0x00, 0x00, 0x92, 0x45, 0x68, 0x00, 0x83, 0x48, 0x00, 0x00, 0x93, 0x48,
	0x74, 0x00, 0x84, 0x4E, 0x00, 0x00, 0x94, 0x4F, 0x62, 0x00, 0x99, 0x24,
	0x70, 0x01, 0x90, 0x21, 0x7C, 0x01, 0x99, 0x2E, 0x53, 0x05, 0x89, 0x24,
	0x00, 0x01, 0x80, 0x21, 0x00, 0x06, 0x89, 0x2E, 0x00, 0x07, 0x90, 0x21,
	0x68, 0x00, 0x99, 0x24, 0x68, 0x07, 0x89, 0x24, 0x00, 0x0E, 0x99, 0x2E,
	0x53, 0x00, 0x99, 0x28, 0x78, 0x07, 0x80, 0x21, 0x00, 0x00, 0x89, 0x28,
	0x00, 0x04, 0x89, 0x2E, 0x00, 0x09, 0x90, 0x21, 0x6E, 0x01, 0x99, 0x24,
	0x70, 0x06, 0x80, 0x21, 0x00, 0x01, 0x89, 0x24, 0x00, 0x0C, 0x90, 0x21,
	0x68, 0x01, 0x99, 0x2E, 0x59, 0x01, 0x99, 0x24, 0x70, 0x07, 0x89, 0x24,
	0x00, 0x04, 0x89, 0x2E, 0x00, 0x0A, 0x99, 0x24, 0x62, 0x06, 0x80, 0x21,
	0x00, 0x02, 0x89, 0x24, 0x00, 0x0B, 0x90, 0x21, 0x68, 0x02, 0x99, 0x28,
	0x68, 0x00, 0x99, 0x2E, 0x4D, 0x05, 0x80, 0x21, 0x00, 0x01, 0x89, 0x28,
	0x00, 0x06, 0x89, 0x2E, 0x00, 0x08, 0x90, 0x21, 0x6E, 0x01, 0x99, 0x24,
	0x70, 0x07, 0x89, 0x24, 0x00, 0x0C, 0x99, 0x2E, 0x59, 0x02, 0x99, 0x24,
	0x62, 0x06, 0x80, 0x21, 0x00, 0x01, 0x89, 0x24, 0x00, 0x03, 0x89, 0x2E,
	0x00, 0x0A, 0x90, 0x21, 0x68, 0x01, 0x99, 0x24, 0x68, 0x06, 0x80, 0x21,
	0x00, 0x01, 0x89, 0x24, 0x00, 0x0C, 0x90, 0x21, 0x70, 0x02, 0x99, 0x28,
	0x6E, 0x00, 0x99, 0x2E, 0x4D, 0x06, 0x89, 0x28, 0x00, 0x07, 0x89, 0x2E,
	0x00, 0x08, 0x99, 0x24, 0x72, 0x07, 0x89, 0x24, 0x00, 0x08, 0x80, 0x21,
	0x00, 0x06, 0x91, 0x2A, 0x7A, 0x00, 0x82, 0x45, 0x00, 0x00, 0x92, 0x45,
	0x62, 0x00, 0x83, 0x48, 0x00, 0x00, 0x93, 0x48, 0x74, 0x00, 0x84, 0x4F,
	0x00, 0x00, 0x94, 0x4D, 0x68, 0x00, 0x95, 0x28, 0x78, 0x00, 0x95, 0x26,
	0x72, 0x00, 0x99, 0x29, 0x52, 0x00, 0x99, 0x28, 0x78, 0x00, 0x99, 0x2F,
	0x74, 0x00, 0x99, 0x30, 0x6E, 0x00, 0x99, 0x32, 0x52, 0x01, 0x99, 0x2E,
	0x59, 0x06, 0x89, 0x28, 0x00, 0x03, 0x89, 0x2F, 0x00, 0x01, 0x89, 0x30,
	0x00, 0x00, 0x89, 0x32, 0x00, 0x01, 0x89, 0x29, 0x00, 0x01, 0x85, 0x28,
	0x00, 0x00, 0x89, 0x2E, 0x00, 0x01, 0x85, 0x26, 0x00, 0x07, 0x82, 0x45,
	0x00, 0x00, 0x83, 0x48, 0x00, 0x00, 0x84, 0x4D, 0x00, 0x00, 0x99, 0x24,
	0x68, 0x07, 0x81, 0x2A, 0x00, 0x00, 0x89, 0x24, 0x00, 0x0D, 0x99, 0x2E,
	0x62, 0x01, 0x92, 0x45, 0x68, 0x00, 0x94, 0x4C, 0x74, 0x00, 0x95, 0x28,
	0x7E, 0x00, 0x95, 0x26, 0x7F, 0x00, 0x99, 0x29, 0x5E, 0x00, 0x99, 0x32,
	0x5E, 0x00, 0x99, 0x28, 0x68, 0x00, 0x99, 0x2F, 0x75, 0x00, 0x99, 0x30,
	0x75, 0x02, 0x91, 0x28, 0x74, 0x05, 0x89, 0x28, 0x00, 0x03, 0x89, 0x32,
	0x00, 0x01, 0x89, 0x2E, 0x00, 0x00, 0x89, 0x2F, 0x00, 0x01, 0x89, 0x30,
	0x00, 0x00, 0x89, 0x29, 0x00, 0x02, 0x85, 0x26, 0x00, 0x00, 0x85, 0x28,
	0x00, 0x04, 0x81, 0x28, 0x00, 0x03, 0x82, 0x45, 0x00, 0x00, 0x84, 0x4C,
	0x00, 0x00, 0x99, 0x24, 0x74, 0x08, 0x89, 0x24, 0x00, 0x0D, 0x99, 0x24,
	0x68, 0x00, 0x99, 0x31, 0x6B, 0x03, 0x89, 0x24, 0x00, 0x0A, 0x89, 0x31,
	0x00, 0x08, 0x99, 0x24, 0x59, 0x09, 0x89, 0x24, 0x00, 0x09, 0xFF, 0x2F,
	0x00
};
